<?xml version="1.0" encoding="UTF-8" standalone="no"?>
<!-- Created with Inkscape (http://www.inkscape.org/) -->
<svg
   xmlns:dc="http://purl.org/dc/elements/1.1/"
   xmlns:cc="http://web.resource.org/cc/"
   xmlns:rdf="http://www.w3.org/1999/02/22-rdf-syntax-ns#"
   xmlns:svg="http://www.w3.org/2000/svg"
   xmlns="http://www.w3.org/2000/svg"
   xmlns:sodipodi="http://sodipodi.sourceforge.net/DTD/sodipodi-0.dtd"
   xmlns:inkscape="http://www.inkscape.org/namespaces/inkscape"
   width="475"
   height="350"
   id="svg5873"
   sodipodi:version="0.32"
   inkscape:version="0.44.1"
   version="1.0"
   sodipodi:docbase="/home/cburnett/wikipedia/images/electronics"
   sodipodi:docname="Hamming(11,7) example 0110101.svg">
  <defs
     id="defs5875" />
  <sodipodi:namedview
     id="base"
     pagecolor="#ffffff"
     bordercolor="#666666"
     borderopacity="1.0"
     gridtolerance="10000"
     guidetolerance="10"
     objecttolerance="10"
     inkscape:pageopacity="0.0"
     inkscape:pageshadow="2"
     inkscape:zoom="1.4"
     inkscape:cx="274.30262"
     inkscape:cy="188.75125"
     inkscape:document-units="px"
     inkscape:current-layer="layer1"
     height="350px"
     width="475px"
     showgrid="true"
     inkscape:grid-points="true"
     inkscape:window-width="945"
     inkscape:window-height="660"
     inkscape:window-x="0"
     inkscape:window-y="31" />
  <metadata
     id="metadata5878">
    <rdf:RDF>
      <cc:Work
         rdf:about="">
        <dc:format>image/svg+xml</dc:format>
        <dc:type
           rdf:resource="http://purl.org/dc/dcmitype/StillImage" />
      </cc:Work>
    </rdf:RDF>
  </metadata>
  <g
     inkscape:label="Layer 1"
     inkscape:groupmode="layer"
     id="layer1"
     transform="translate(-129.657,-89.438)"
     style="display:inline">
    <path
       sodipodi:type="arc"
       style="fill:blue;fill-opacity:0.50196078;fill-rule:nonzero;stroke:black;stroke-width:1.56200004;stroke-linecap:round;stroke-linejoin:round;stroke-miterlimit:4;stroke-dasharray:none;stroke-dashoffset:10;stroke-opacity:1"
       id="path5881"
       sodipodi:cx="120"
       sodipodi:cy="120"
       sodipodi:rx="100"
       sodipodi:ry="100"
       d="M 220 120 A 100 100 0 1 1  20,120 A 100 100 0 1 1  220 120 z"
       transform="translate(128.438,144.6095)" />
    <path
       sodipodi:type="arc"
       style="fill:yellow;fill-opacity:0.50196078;fill-rule:nonzero;stroke:black;stroke-width:1.56200004;stroke-linecap:round;stroke-linejoin:round;stroke-miterlimit:4;stroke-dasharray:none;stroke-dashoffset:10;stroke-opacity:1;display:inline"
       id="path7049"
       sodipodi:cx="120"
       sodipodi:cy="120"
       sodipodi:rx="100"
       sodipodi:ry="100"
       d="M 220 120 A 100 100 0 1 1  20,120 A 100 100 0 1 1  220 120 z"
       transform="translate(249.438,84.219)" />
    <path
       sodipodi:type="arc"
       style="fill:lime;fill-opacity:0.50196078;fill-rule:nonzero;stroke:black;stroke-width:1.56200004;stroke-linecap:round;stroke-linejoin:round;stroke-miterlimit:4;stroke-dasharray:none;stroke-dashoffset:10;stroke-opacity:1"
       id="path5885"
       sodipodi:cx="120"
       sodipodi:cy="120"
       sodipodi:rx="100"
       sodipodi:ry="100"
       d="M 220 120 A 100 100 0 1 1  20,120 A 100 100 0 1 1  220 120 z"
       transform="translate(370.438,144.6095)" />
    <path
       sodipodi:type="arc"
       style="fill:red;fill-opacity:0.50196078;fill-rule:nonzero;stroke:black;stroke-width:1.56200004;stroke-linecap:round;stroke-linejoin:round;stroke-miterlimit:4;stroke-dasharray:none;stroke-dashoffset:10;stroke-opacity:1"
       id="path5883"
       sodipodi:cx="120"
       sodipodi:cy="120"
       sodipodi:rx="100"
       sodipodi:ry="100"
       d="M 220 120 A 100 100 0 1 1  20,120 A 100 100 0 1 1  220 120 z"
       transform="translate(249.438,205)" />
    <path
       id="path2039"
       style="fill:none;fill-opacity:0.50196078;fill-rule:nonzero;stroke:black;stroke-width:1.56200004;stroke-linecap:round;stroke-linejoin:round;stroke-miterlimit:4;stroke-dashoffset:10;stroke-opacity:1;display:inline"
       d="M 348.438,264.6095 C 348.438,319.8095 303.638,364.6095 248.438,364.6095 C 193.238,364.6095 148.438,319.8095 148.438,264.6095 C 148.438,209.4095 193.238,164.6095 248.438,164.6095 C 303.638,164.6095 348.438,209.4095 348.438,264.6095 z M 469.438,204.219 C 469.438,259.419 424.638,304.219 369.438,304.219 C 314.238,304.219 269.438,259.419 269.438,204.219 C 269.438,149.019 314.238,104.219 369.438,104.219 C 424.638,104.219 469.438,149.019 469.438,204.219 z M 590.438,264.6095 C 590.438,319.8095 545.638,364.6095 490.438,364.6095 C 435.238,364.6095 390.438,319.8095 390.438,264.6095 C 390.438,209.4095 435.238,164.6095 490.438,164.6095 C 545.638,164.6095 590.438,209.4095 590.438,264.6095 z M 469.438,325 C 469.438,380.2 424.638,425 369.438,425 C 314.238,425 269.438,380.2 269.438,325 C 269.438,269.8 314.238,225 369.438,225 C 424.638,225 469.438,269.8 469.438,325 z " />
  </g>
</svg>
