<?xml version="1.0" encoding="UTF-8" standalone="no"?>
<svg
   height="320"
   width="320"
   shapeRendering="crispEdges"
   viewBox="0 0 29 29"
   style="width: 320px; height: 320px;"
   version="1.1"
   id="svg884"
   sodipodi:docname="techelevator-scrum-class.svg"
   inkscape:version="1.1.2 (1:1.1+202202050852+0a00cf5339)"
   xmlns:inkscape="http://www.inkscape.org/namespaces/inkscape"
   xmlns:sodipodi="http://sodipodi.sourceforge.net/DTD/sodipodi-0.dtd"
   xmlns="http://www.w3.org/2000/svg"
   xmlns:svg="http://www.w3.org/2000/svg">
  <defs
     id="defs888" />
  <sodipodi:namedview
     id="namedview886"
     pagecolor="#505050"
     bordercolor="#eeeeee"
     borderopacity="1"
     inkscape:pageshadow="0"
     inkscape:pageopacity="0"
     inkscape:pagecheckerboard="0"
     showgrid="false"
     inkscape:zoom="1.403125"
     inkscape:cx="140.75724"
     inkscape:cy="164.27617"
     inkscape:window-width="1850"
     inkscape:window-height="1057"
     inkscape:window-x="70"
     inkscape:window-y="23"
     inkscape:window-maximized="0"
     inkscape:current-layer="svg884" />
  <path
     fill="#fff"
     d="M0,0 h29v29H0z"
     id="path880" />
  <path
     fill="#000"
     d="M0 0h7v1H0zM8 0h1v1H8zM11 0h3v1H11zM17 0h2v1H17zM22,0 h7v1H22zM0 1h1v1H0zM6 1h1v1H6zM8 1h3v1H8zM12 1h1v1H12zM14 1h1v1H14zM17 1h1v1H17zM20 1h1v1H20zM22 1h1v1H22zM28,1 h1v1H28zM0 2h1v1H0zM2 2h3v1H2zM6 2h1v1H6zM10 2h4v1H10zM16 2h2v1H16zM19 2h1v1H19zM22 2h1v1H22zM24 2h3v1H24zM28,2 h1v1H28zM0 3h1v1H0zM2 3h3v1H2zM6 3h1v1H6zM10 3h1v1H10zM13 3h2v1H13zM16 3h3v1H16zM22 3h1v1H22zM24 3h3v1H24zM28,3 h1v1H28zM0 4h1v1H0zM2 4h3v1H2zM6 4h1v1H6zM8 4h4v1H8zM14 4h1v1H14zM18 4h1v1H18zM22 4h1v1H22zM24 4h3v1H24zM28,4 h1v1H28zM0 5h1v1H0zM6 5h1v1H6zM8 5h1v1H8zM11 5h1v1H11zM14 5h1v1H14zM16 5h1v1H16zM22 5h1v1H22zM28,5 h1v1H28zM0 6h7v1H0zM8 6h1v1H8zM10 6h1v1H10zM12 6h1v1H12zM14 6h1v1H14zM16 6h1v1H16zM18 6h1v1H18zM20 6h1v1H20zM22,6 h7v1H22zM8 7h1v1H8zM10 7h3v1H10zM14 7h2v1H14zM20 7h1v1H20zM0 8h3v1H0zM5 8h2v1H5zM8 8h3v1H8zM14 8h3v1H14zM19 8h1v1H19zM21 8h4v1H21zM27,8 h2v1H27zM2 9h4v1H2zM8 9h3v1H8zM13 9h1v1H13zM15 9h2v1H15zM19 9h5v1H19zM27,9 h2v1H27zM0 10h1v1H0zM2 10h2v1H2zM6 10h3v1H6zM11 10h1v1H11zM13 10h1v1H13zM15 10h1v1H15zM17 10h1v1H17zM19 10h1v1H19zM22 10h1v1H22zM24 10h3v1H24zM28,10 h1v1H28zM0 11h2v1H0zM3 11h1v1H3zM7 11h1v1H7zM9 11h1v1H9zM14 11h2v1H14zM18 11h4v1H18zM24 11h2v1H24zM1 12h1v1H1zM3 12h1v1H3zM6 12h1v1H6zM9 12h1v1H9zM11 12h2v1H11zM15 12h1v1H15zM20 12h1v1H20zM22 12h1v1H22zM28,12 h1v1H28zM3 13h1v1H3zM7 13h2v1H7zM12 13h1v1H12zM15 13h3v1H15zM19 13h1v1H19zM21 13h3v1H21zM27,13 h2v1H27zM1 14h4v1H1zM6 14h1v1H6zM8 14h2v1H8zM12 14h1v1H12zM14 14h2v1H14zM17 14h1v1H17zM19 14h1v1H19zM21 14h3v1H21zM28,14 h1v1H28zM1 15h1v1H1zM5 15h1v1H5zM9 15h1v1H9zM11 15h2v1H11zM14 15h1v1H14zM16 15h1v1H16zM20 15h1v1H20zM22 15h3v1H22zM1 16h1v1H1zM4 16h5v1H4zM10 16h1v1H10zM16 16h1v1H16zM20 16h1v1H20zM22 16h2v1H22zM28,16 h1v1H28zM1 17h1v1H1zM8 17h3v1H8zM13 17h1v1H13zM15 17h1v1H15zM19 17h2v1H19zM22 17h2v1H22zM26,17 h3v1H26zM0 18h3v1H0zM6 18h3v1H6zM11 18h1v1H11zM13 18h1v1H13zM15 18h3v1H15zM19 18h1v1H19zM24 18h2v1H24zM28,18 h1v1H28zM2 19h4v1H2zM15 19h1v1H15zM18 19h3v1H18zM24 19h1v1H24zM0 20h2v1H0zM3 20h4v1H3zM11 20h2v1H11zM15 20h1v1H15zM20 20h6v1H20zM27 20h1v1H27zM8 21h3v1H8zM12 21h1v1H12zM15 21h2v1H15zM18 21h1v1H18zM20 21h1v1H20zM24 21h3v1H24zM28,21 h1v1H28zM0 22h7v1H0zM10 22h1v1H10zM12 22h4v1H12zM20 22h1v1H20zM22 22h1v1H22zM24 22h1v1H24zM28,22 h1v1H28zM0 23h1v1H0zM6 23h1v1H6zM8 23h2v1H8zM11 23h2v1H11zM14 23h3v1H14zM19 23h2v1H19zM24 23h1v1H24zM0 24h1v1H0zM2 24h3v1H2zM6 24h1v1H6zM10 24h1v1H10zM12 24h1v1H12zM16 24h1v1H16zM19 24h7v1H19zM0 25h1v1H0zM2 25h3v1H2zM6 25h1v1H6zM9 25h2v1H9zM14 25h3v1H14zM19 25h2v1H19zM24 25h3v1H24zM28,25 h1v1H28zM0 26h1v1H0zM2 26h3v1H2zM6 26h1v1H6zM8 26h4v1H8zM14 26h8v1H14zM24 26h1v1H24zM27,26 h2v1H27zM0 27h1v1H0zM6 27h1v1H6zM8 27h1v1H8zM10 27h2v1H10zM14 27h1v1H14zM16 27h1v1H16zM18 27h1v1H18zM20 27h3v1H20zM25 27h1v1H25zM0 28h7v1H0zM8 28h1v1H8zM11 28h1v1H11zM15 28h1v1H15zM20 28h2v1H20zM24 28h1v1H24zM28,28 h1v1H28z"
     id="path882" />
</svg>
