<?xml version="1.0" standalone="no"?>
<!DOCTYPE svg PUBLIC "-//W3C//DTD SVG 20010904//EN"
 "http://www.w3.org/TR/2001/REC-SVG-20010904/DTD/svg10.dtd">
<svg version="1.0" xmlns="http://www.w3.org/2000/svg"
 width="1920.000000pt" height="1200.000000pt" viewBox="0 0 1920.000000 1200.000000"
 preserveAspectRatio="xMidYMid meet">

<g transform="translate(0.000000,1200.000000) scale(0.100000,-0.100000)"
fill="#000000" stroke="none">
<path d="M6184 11508 c-55 -57 -193 -203 -308 -326 l-209 -223 6 -73 7 -74
-78 -58 c-89 -66 -250 -220 -286 -273 -27 -40 -94 -235 -151 -436 -74 -263
-84 -302 -115 -415 -81 -300 -158 -500 -302 -785 -80 -158 -109 -209 -319
-547 -234 -376 -298 -489 -429 -753 -133 -269 -163 -316 -286 -447 -106 -113
-154 -175 -292 -379 -113 -165 -151 -212 -417 -515 -115 -132 -312 -357 -436
-499 -125 -143 -294 -332 -376 -420 l-149 -160 -90 -7 c-371 -29 -504 -43
-679 -68 -218 -32 -336 -54 -365 -70 -11 -6 -32 -27 -47 -47 l-28 -37 0 -205
c0 -159 -3 -212 -14 -231 -59 -104 -414 -642 -603 -914 -62 -87 -69 -103 -66
-139 l3 -40 181 259 c286 409 448 655 524 799 l32 60 -6 143 c-4 78 -5 142 -4
142 2 0 50 -46 108 -101 297 -284 511 -403 785 -438 44 -6 154 -17 245 -26
343 -32 340 -32 1240 -80 295 -16 551 -35 562 -41 3 -2 0 -30 -8 -62 -48 -199
-96 -419 -154 -702 -54 -267 -138 -609 -220 -900 -18 -63 -40 -144 -50 -180
-10 -36 -45 -164 -78 -285 -87 -317 -133 -497 -129 -509 10 -29 123 248 165
404 6 19 22 76 37 125 15 50 38 131 52 180 22 81 216 842 239 940 7 32 13 39
29 37 19 -4 77 -25 337 -125 158 -61 274 -87 386 -87 50 0 101 4 114 10 13 5
70 28 128 50 130 52 377 176 535 270 66 40 128 76 137 81 13 7 43 -4 120 -44
102 -53 133 -74 384 -255 71 -51 176 -116 232 -144 57 -28 105 -56 107 -62 15
-52 102 -275 188 -481 161 -387 216 -543 253 -718 18 -88 19 -84 -18 -91 -18
-3 -90 -24 -159 -47 l-126 -41 -6 -136 c-15 -302 -4 -451 54 -715 35 -160 66
-247 113 -322 48 -74 63 -79 28 -8 -41 82 -77 191 -101 311 -27 128 -42 442
-33 666 l7 159 240 82 c276 94 363 129 460 185 139 82 252 189 430 408 55 67
103 121 108 119 17 -5 116 -298 117 -344 1 -17 1 -17 15 0 7 11 19 41 26 68 7
27 16 49 20 49 4 0 18 -17 30 -37 126 -210 387 -440 614 -543 170 -76 489
-142 803 -167 90 -7 95 -3 66 47 -16 26 -19 27 -79 22 -170 -13 -578 74 -779
167 -295 137 -595 437 -748 749 l-33 66 0 426 c-1 234 -5 453 -9 488 -5 36 -5
62 0 62 5 -1 65 -103 134 -227 155 -282 225 -383 377 -548 343 -372 588 -564
814 -641 108 -36 192 -33 539 25 342 57 474 86 620 134 58 20 143 41 190 47
143 19 360 59 438 80 89 25 148 54 230 114 70 51 225 196 218 203 -3 3 -65
-39 -138 -92 -73 -54 -164 -113 -203 -131 -74 -36 -98 -41 -325 -74 -165 -24
-217 -36 -600 -131 -442 -109 -623 -139 -845 -139 l-115 0 -88 44 c-153 77
-258 155 -432 324 -225 217 -368 382 -486 559 -19 29 -81 139 -138 245 -114
213 -227 404 -361 608 -203 309 -270 529 -301 991 l-6 86 -45 22 -45 22 6 -43
c13 -97 28 -267 24 -280 -8 -22 -144 122 -172 183 -41 89 -49 136 -51 319 -2
143 -7 199 -29 310 -45 225 -57 300 -54 326 3 24 5 23 86 -36 46 -34 87 -71
91 -83 4 -12 16 -84 26 -160 9 -75 21 -139 25 -142 4 -2 19 9 35 25 l28 29
-19 98 c-18 90 -19 146 -16 713 2 697 12 849 67 1070 26 102 55 184 104 293
17 37 53 125 81 196 74 188 139 280 235 330 41 21 102 37 111 29 3 -3 -21 -42
-52 -87 -55 -80 -55 -82 -27 -75 52 12 147 56 319 145 148 77 267 129 295 129
5 0 6 -47 2 -105 -6 -97 -5 -105 13 -111 64 -20 96 -63 109 -144 4 -25 9 -48
11 -52 2 -3 101 43 220 104 118 60 218 108 220 105 9 -8 -45 -118 -82 -168
-47 -64 -106 -99 -168 -99 -40 0 -47 -3 -42 -17 8 -25 25 -106 26 -117 0 -20
-195 23 -380 85 -106 35 -191 67 -300 113 -46 20 -87 36 -90 36 -11 0 -98
-133 -124 -190 -14 -30 -26 -68 -26 -83 0 -34 21 -88 42 -104 9 -8 91 -20 193
-31 l178 -17 -89 -54 c-190 -116 -354 -236 -377 -277 -13 -22 15 -8 173 86
187 113 212 125 315 155 146 42 261 43 650 6 50 -5 93 -6 97 -3 5 6 46 203 51
252 2 11 -15 16 -73 22 -160 15 -160 15 -159 51 2 71 6 75 148 137 74 33 136
58 137 57 2 -2 -3 -27 -11 -57 -8 -30 -15 -59 -15 -65 0 -5 35 25 78 68 l77
77 107 0 107 0 7 -36 c3 -19 4 -101 1 -182 -4 -113 -10 -163 -27 -217 -27 -86
-69 -169 -107 -213 l-28 -33 -134 56 c-73 30 -135 55 -136 55 -2 0 40 -44 94
-97 116 -116 158 -189 167 -293 l5 -65 -96 -115 c-124 -148 -275 -359 -248
-349 5 2 50 51 100 109 106 124 210 230 292 298 l59 49 -80 139 c-44 76 -84
145 -90 152 -6 7 -9 14 -6 17 7 8 131 34 138 30 4 -3 10 -23 13 -46 3 -22 7
-43 10 -45 2 -3 26 4 53 14 63 25 157 41 319 56 l130 12 -55 19 c-41 15 -81
20 -160 20 -94 0 -110 -3 -155 -27 l-50 -26 -47 40 c-27 22 -48 44 -48 48 0 5
26 44 58 87 32 43 75 106 96 140 l37 63 -31 107 c-38 128 -53 320 -29 349 21
25 120 97 126 91 2 -3 -14 -35 -37 -72 l-42 -66 63 -68 c35 -38 68 -69 73 -70
5 0 38 21 75 48 98 72 151 105 157 98 9 -9 -23 -242 -46 -341 -24 -101 -34
-80 100 -231 52 -59 107 -122 123 -140 l27 -33 -63 -50 c-85 -68 -196 -186
-231 -246 -24 -41 -28 -57 -24 -100 4 -44 13 -65 59 -129 76 -107 109 -174
109 -219 0 -21 2 -38 5 -38 8 0 85 40 85 43 0 2 -21 25 -46 53 -84 90 -138
187 -157 282 -12 61 142 290 250 371 42 32 66 41 125 51 120 19 111 10 106
106 -2 46 -4 84 -3 84 0 0 57 -20 127 -44 l126 -43 70 34 c99 47 240 80 422
98 182 18 373 44 387 54 16 9 -31 230 -62 296 -30 62 -78 105 -120 105 -53 0
-148 -32 -288 -96 -269 -124 -246 -118 -462 -119 -189 -1 -190 -1 -275 -34
-46 -18 -86 -34 -88 -36 -2 -2 30 -45 72 -95 l75 -93 -20 -51 c-37 -93 -89
-144 -132 -130 -34 11 -144 122 -204 207 l-54 77 32 183 c17 100 35 206 38
235 8 59 3 53 93 116 68 48 172 96 207 96 11 0 43 20 70 44 94 84 188 126 421
191 74 21 148 44 164 52 20 11 45 14 78 10 47 -6 51 -4 93 34 64 59 127 158
189 294 51 112 57 121 98 142 45 23 164 57 241 68 45 7 45 7 52 -27 4 -18 16
-71 28 -118 16 -64 21 -118 21 -220 l1 -135 -39 -85 c-67 -148 -102 -304 -89
-398 8 -55 16 -45 38 47 17 71 22 79 90 146 88 88 125 141 180 258 37 81 90
246 110 345 15 74 13 17 -6 -163 -28 -261 -16 -392 45 -514 32 -63 117 -174
252 -331 231 -269 263 -323 374 -625 29 -77 65 -171 82 -208 29 -68 29 -70 32
-285 3 -165 7 -230 20 -272 62 -209 76 -501 36 -733 -12 -71 -28 -147 -36
-169 -8 -22 -14 -48 -14 -58 0 -17 3 -17 51 -3 39 12 53 12 59 3 21 -34 18
-300 -6 -462 -4 -27 -5 -48 -2 -48 2 0 52 18 111 39 118 43 213 95 230 126 15
28 128 368 123 372 -6 7 -74 -132 -116 -237 -22 -58 -44 -112 -49 -120 -9 -16
-247 -117 -256 -108 -3 3 -1 18 5 33 36 94 32 229 -10 386 l-23 87 44 78 c47
82 145 193 158 178 4 -5 13 -35 20 -66 7 -32 15 -60 19 -62 4 -2 41 36 82 85
40 49 77 89 81 89 4 0 10 -39 14 -87 4 -49 10 -104 15 -123 l7 -35 35 71 c45
92 73 131 108 149 42 22 57 19 63 -12 10 -51 -12 -377 -33 -498 -39 -228 -131
-484 -224 -623 -70 -105 -185 -209 -295 -265 -136 -70 -197 -62 -293 35 l-46
47 5 -97 c6 -109 -11 -267 -57 -517 -66 -364 -122 -538 -209 -654 -34 -45
-730 -629 -1006 -843 -152 -118 -250 -221 -265 -278 -6 -25 -15 -58 -20 -75
-18 -60 -63 -317 -97 -558 -3 -21 -8 -39 -12 -41 -21 -13 -597 -56 -750 -56
-113 0 -398 23 -494 41 -56 10 -58 9 -98 -23 l-41 -33 158 -6 c88 -3 224 -12
304 -19 190 -17 425 -7 698 28 117 15 215 25 217 22 1 -3 6 -68 10 -145 3 -77
11 -180 15 -230 5 -49 6 -93 1 -98 -4 -4 -57 -17 -117 -28 -60 -11 -110 -22
-112 -24 -3 -3 69 -296 95 -384 11 -36 22 -60 25 -55 10 15 -27 199 -61 310
-17 56 -31 104 -31 108 0 3 22 6 49 6 159 0 455 57 676 131 599 200 1136 631
1464 1175 50 82 64 116 76 179 38 199 7 402 -130 850 -25 83 -44 155 -43 162
4 18 181 -47 323 -118 66 -34 201 -110 300 -169 99 -59 198 -116 220 -127 59
-30 194 -36 503 -22 l269 12 61 -33 c34 -18 100 -64 147 -101 47 -38 85 -64
85 -58 0 6 -52 63 -115 126 l-115 116 -238 -9 c-130 -5 -301 -8 -380 -7 l-143
2 -112 59 c-62 33 -179 97 -262 142 -203 112 -330 171 -455 210 -58 18 -112
36 -120 40 -18 9 -45 110 -59 226 -13 107 -15 314 -2 314 5 0 50 -43 100 -96
l91 -95 81 32 c52 21 86 41 97 58 48 70 98 222 153 466 45 203 149 544 224
740 340 878 422 1111 495 1403 19 72 36 132 40 132 13 0 65 -123 130 -305 105
-294 187 -469 298 -636 140 -211 362 -451 467 -506 33 -17 107 -50 165 -73
173 -69 286 -129 337 -179 57 -56 149 -207 311 -511 66 -124 182 -328 258
-455 76 -126 168 -291 205 -365 37 -74 95 -173 129 -220 33 -47 75 -114 93
-150 32 -64 32 -67 36 -232 l3 -168 -47 -20 c-47 -20 -106 -38 -275 -84 -177
-48 -282 -31 -565 94 -144 64 -231 92 -280 93 -27 1 -89 -19 -195 -62 -169
-68 -244 -91 -302 -91 -24 0 -38 -5 -38 -12 0 -7 -64 -61 -143 -120 -157 -118
-307 -245 -307 -260 0 -5 28 10 63 35 272 194 496 320 677 381 229 77 292 72
600 -52 159 -64 222 -76 358 -70 97 5 124 11 272 61 l165 56 3 -67 c2 -36 -4
-150 -12 -252 -26 -301 -20 -436 29 -735 27 -161 44 -245 107 -510 22 -93 47
-203 56 -244 14 -69 17 -74 50 -88 19 -8 36 -12 39 -10 2 3 -4 22 -15 44 -71
141 -131 430 -214 1023 -12 91 -4 524 13 660 7 52 12 190 13 305 1 204 0 212
-25 270 -14 34 -56 107 -94 163 -37 56 -66 104 -64 106 2 1 47 -3 99 -10 203
-27 462 -10 750 51 221 46 287 66 377 115 148 80 252 183 312 310 22 47 26 68
25 140 -2 90 -5 102 -103 378 -61 171 -73 260 -43 307 10 17 97 90 193 162 96
72 190 147 208 167 19 20 40 36 46 36 14 0 103 -153 143 -245 30 -69 77 -209
107 -316 11 -39 34 -78 80 -136 84 -104 155 -170 400 -366 110 -88 215 -174
233 -190 l32 -31 0 38 c0 22 -6 44 -14 50 -7 6 -91 74 -187 150 -312 250 -495
457 -519 588 -31 164 -126 359 -268 550 -56 76 -71 89 -124 113 -77 35 -218
85 -238 84 -8 0 -58 -31 -110 -69 -52 -39 -100 -70 -106 -70 -13 0 -148 148
-236 257 -29 38 -88 111 -130 164 -96 119 -188 207 -393 375 -188 154 -304
272 -362 369 -23 39 -72 138 -108 220 -98 221 -134 292 -241 475 -115 196
-190 349 -314 640 -168 395 -276 585 -475 840 -190 243 -221 303 -376 745 -95
273 -165 407 -283 548 -98 116 -134 173 -244 392 -111 221 -152 289 -233 385
-51 60 -101 128 -223 303 -69 99 -138 179 -191 222 l-45 38 -58 -31 c-247
-130 -225 -115 -240 -168 -7 -27 -20 -76 -29 -109 -9 -33 -19 -64 -23 -69 -9
-9 -245 120 -360 197 -41 28 -109 83 -151 124 l-76 73 -98 -35 c-116 -42 -201
-96 -230 -145 -23 -39 -27 -152 -11 -292 l8 -78 -145 0 c-80 0 -169 5 -198 11
-139 30 -312 140 -518 331 -266 246 -401 348 -569 432 -261 131 -466 167 -778
136 -55 -5 -214 -16 -354 -25 -301 -18 -451 -32 -540 -50 -79 -17 -252 -76
-340 -117 -153 -72 -569 -283 -677 -344 -108 -60 -457 -288 -561 -366 l-43
-32 -24 29 c-12 17 -31 45 -41 63 -17 32 -17 34 15 125 36 105 37 120 15 173
-22 53 -53 91 -128 157 l-65 58 -83 -48 c-46 -26 -114 -67 -153 -90 -38 -23
-71 -38 -73 -33 -2 5 22 84 52 176 l56 167 -27 36 c-88 115 -160 168 -217 157
-17 -3 -67 -31 -110 -61 -123 -85 -208 -88 -283 -9 -24 24 -43 51 -43 59 0 8
-4 15 -10 15 -6 0 -10 -35 -10 -85 0 -59 -4 -85 -12 -85 -32 0 15 -19 82 -34
41 -9 120 -36 175 -61 55 -25 115 -45 133 -45 19 0 61 12 94 27 l60 27 -5 50
c-3 28 -9 80 -12 116 l-7 65 76 -80 c41 -44 75 -87 75 -95 0 -8 -19 -84 -43
-169 -33 -119 -47 -156 -62 -162 -10 -5 -64 -25 -119 -45 -130 -47 -386 -172
-547 -268 -229 -135 -596 -383 -667 -450 -72 -68 -104 -129 -224 -427 -133
-331 -255 -602 -296 -663 -16 -23 -102 -111 -191 -196 -88 -84 -166 -162 -172
-173 -15 -29 157 117 275 232 88 86 105 108 153 204 53 104 132 283 208 472
21 50 43 104 50 120 8 17 28 64 46 105 70 163 121 250 174 296 28 25 143 105
256 179 533 349 713 442 981 510 55 14 104 23 108 20 8 -4 5 -25 -13 -127 -7
-36 4 -35 29 2 l20 30 110 -2 c97 -2 116 0 158 21 l47 23 0 94 c0 52 1 94 3
94 1 0 35 -32 76 -71 l74 -72 -12 -45 c-18 -69 -72 -150 -148 -223 -96 -92
-141 -121 -368 -234 l-200 -101 -83 -109 c-109 -145 -125 -161 -277 -275 -226
-168 -235 -184 -379 -640 l-55 -175 -65 -64 c-36 -36 -64 -67 -62 -69 2 -2
116 53 252 122 137 68 276 136 309 151 187 84 486 155 513 123 5 -7 24 -49 42
-93 47 -114 40 -109 145 -102 110 8 172 25 248 71 56 34 57 34 57 11 0 -60
-35 -130 -95 -191 -68 -67 -189 -133 -370 -199 -426 -155 -622 -262 -786 -426
-108 -108 -152 -173 -256 -376 -45 -89 -115 -215 -155 -280 -106 -174 -117
-206 -118 -338 -1 -205 -29 -312 -243 -935 -14 -41 -40 -120 -57 -175 -75
-234 -142 -301 -436 -432 -82 -36 -168 -79 -191 -95 -102 -69 -358 -407 -548
-723 -91 -150 -281 -539 -350 -715 -32 -80 -60 -148 -64 -152 -3 -4 -53 -3
-111 2 -58 5 -235 19 -395 30 -464 32 -813 59 -915 70 -52 6 -169 17 -260 25
-331 30 -526 64 -670 117 -30 11 -63 22 -73 25 -9 3 -17 9 -17 13 0 5 81 86
179 182 210 202 271 274 321 380 33 71 42 82 110 130 110 76 234 201 399 398
80 96 188 220 240 275 51 55 171 188 265 295 94 107 214 240 267 296 107 113
174 199 304 389 109 159 145 206 248 319 119 129 154 184 286 448 136 271 170
331 407 709 204 327 264 429 349 598 153 304 213 474 351 998 51 196 126 439
164 537 36 92 46 107 112 172 40 40 134 118 208 175 74 57 205 160 291 229
180 145 276 213 371 263 36 19 64 37 62 40 -9 8 -93 -21 -154 -54 -54 -28 -90
-56 -278 -211 -64 -54 -73 -58 -121 -58 -30 0 -51 4 -51 11 0 16 48 109 74
144 88 115 204 184 321 190 l60 4 68 102 c70 107 89 153 34 84 -68 -86 -124
-135 -151 -135 -22 0 -26 4 -26 27 0 41 37 108 76 138 46 35 90 40 191 22 46
-8 85 -12 88 -9 5 6 -179 112 -193 112 -5 0 -53 -46 -108 -102z m816 -170 c0
-72 -66 -148 -128 -148 -35 0 -82 28 -82 49 0 32 47 78 112 110 85 43 98 41
98 -11z m5875 -514 c28 -27 46 -56 53 -85 6 -24 10 -44 8 -46 -1 -1 -48 -11
-105 -22 l-103 -20 -64 53 c-69 57 -184 124 -184 108 0 -18 151 -151 208 -184
50 -28 66 -32 127 -32 85 0 136 23 189 86 l36 42 47 -23 c103 -50 167 -103
383 -321 209 -210 236 -234 365 -318 343 -223 376 -259 490 -522 37 -85 99
-229 138 -320 132 -308 267 -561 386 -730 76 -107 164 -205 298 -333 239 -226
236 -224 223 -197 -7 14 -96 108 -199 210 -192 190 -256 269 -372 462 -53 87
-229 428 -229 442 0 3 -25 63 -56 133 -30 70 -67 155 -81 188 -192 450 -208
470 -513 672 -184 122 -262 187 -435 369 l-139 147 -1 111 c0 98 3 115 23 147
14 24 37 43 62 53 52 21 50 21 50 -16 0 -53 25 -132 61 -195 33 -58 137 -169
214 -229 l40 -32 89 54 c49 30 92 54 97 54 16 0 113 -108 160 -178 27 -40 103
-182 169 -315 114 -231 124 -248 224 -367 138 -164 196 -279 305 -605 118
-355 164 -456 278 -602 289 -371 380 -532 606 -1068 52 -124 174 -357 277
-529 108 -182 183 -329 210 -411 19 -61 103 -226 151 -297 64 -95 181 -211
306 -304 236 -175 392 -328 553 -539 38 -49 143 -170 235 -269 154 -166 265
-298 265 -317 0 -4 -19 -21 -42 -38 -81 -56 -168 -164 -168 -209 0 -13 21 -76
46 -140 180 -456 178 -615 -8 -787 -74 -69 -177 -121 -333 -170 -266 -83 -498
-119 -781 -119 l-201 -1 -42 29 c-54 38 -90 87 -158 221 -31 61 -77 144 -103
185 -64 103 -179 310 -325 584 -270 510 -270 510 -580 636 -235 96 -247 104
-371 225 -267 263 -459 604 -633 1122 -53 157 -62 196 -70 292 -11 130 -18
144 -99 200 -139 94 -232 237 -323 496 -13 37 -23 44 -116 92 -181 92 -234
134 -365 293 -30 36 -140 137 -245 225 -105 88 -221 188 -258 223 -57 54 -94
77 -249 152 -196 96 -262 146 -297 225 -24 55 -34 115 -20 115 6 0 53 -16 104
-36 104 -42 164 -47 218 -21 54 27 106 83 125 136 10 25 19 47 20 49 1 2 50
-10 110 -27 59 -17 111 -31 116 -31 29 0 165 -77 238 -135 139 -111 239 -173
565 -354 l310 -171 130 -134 c109 -111 215 -208 215 -194 0 1 -75 80 -168 174
-103 106 -198 192 -249 228 -188 131 -316 319 -452 665 -69 176 -86 199 -262
351 -150 130 -190 173 -250 265 -61 93 -161 187 -349 327 -173 129 -280 235
-325 324 -26 50 -30 70 -30 134 1 66 5 83 34 138 19 34 39 61 44 59 6 -2 21
-43 34 -93 13 -49 27 -90 31 -92 4 -2 59 -27 122 -57 l115 -54 35 37 c19 20
46 50 58 67 l24 30 96 -50 c53 -28 144 -79 204 -115 100 -61 144 -94 355 -268
44 -37 130 -96 190 -131 272 -162 393 -256 464 -362 20 -30 85 -133 144 -229
234 -379 531 -786 715 -980 112 -118 20 14 -164 235 -64 77 -140 176 -169 220
-28 44 -114 173 -189 287 -76 114 -160 246 -187 295 -97 173 -127 216 -207
292 -73 71 -140 119 -378 270 -61 38 -134 103 -267 235 -126 125 -241 227
-367 325 -101 79 -223 182 -271 231 -78 77 -89 94 -104 147 -19 67 -22 189 -7
245 13 45 41 67 180 134 l105 51 74 -66 c41 -36 94 -84 116 -107z m826 104
c75 -64 156 -164 218 -270 28 -47 51 -88 51 -91 0 -8 -162 -108 -170 -105 -4
2 -55 54 -113 116 -110 117 -151 183 -163 260 -7 42 -5 45 46 97 30 30 58 51
64 48 6 -4 36 -28 67 -55z m-6301 33 c42 -80 -49 -188 -148 -178 -59 6 -70 19
-51 57 12 25 154 134 181 139 4 0 12 -8 18 -18z m140 -507 l45 -45 -30 -22
c-205 -150 -343 -333 -570 -757 -66 -122 -132 -236 -195 -336 -10 -16 -38 -28
-97 -44 -58 -15 -157 -59 -321 -142 -218 -110 -237 -119 -240 -99 -7 47 76
333 151 516 39 98 112 176 293 313 139 106 260 227 293 295 12 26 28 50 34 54
7 4 87 42 179 85 172 79 270 133 348 192 25 19 50 35 55 35 6 1 31 -20 55 -45z
m4767 -119 c83 -38 173 -133 173 -184 0 -7 -38 -11 -115 -11 -99 0 -116 2
-124 18 -9 18 -71 199 -71 209 0 11 86 -9 137 -32z m-4827 -985 c10 -6 15 -26
15 -59 0 -43 -5 -55 -34 -85 -46 -48 -121 -78 -208 -84 l-72 -5 -55 87 c-31
47 -56 89 -56 94 0 7 33 15 210 48 80 15 180 17 200 4z m4709 -570 c148 -39
231 -69 231 -84 0 -23 -61 -85 -103 -105 -54 -26 -180 -28 -276 -5 -36 9 -67
18 -69 19 -3 3 47 185 54 197 9 14 44 9 163 -22z m-5718 -382 c-59 -178 -100
-469 -126 -888 -22 -361 -6 -489 112 -860 125 -396 145 -473 173 -650 19 -124
39 -176 122 -310 l47 -75 10 -150 c6 -82 16 -224 21 -315 12 -183 48 -413 80
-505 24 -69 41 -89 135 -160 98 -73 110 -89 135 -180 21 -76 22 -81 6 -132
-11 -34 -48 -94 -105 -170 -48 -65 -134 -181 -191 -258 -234 -317 -404 -519
-571 -680 -140 -135 -195 -179 -211 -169 -64 39 -311 219 -425 311 -181 145
-243 183 -300 183 -38 0 -76 -18 -260 -121 -229 -128 -328 -179 -458 -235
-197 -84 -343 -74 -713 51 -123 41 -229 75 -235 75 -37 1 -39 16 -14 111 31
118 48 193 97 444 73 375 119 507 292 844 218 422 374 677 574 941 155 205
155 205 355 295 340 153 386 203 469 509 16 59 51 156 78 214 85 185 101 236
102 318 0 47 22 70 200 218 52 44 134 118 182 165 l88 85 -1 206 -1 205 -70
72 -70 73 33 57 c54 98 159 253 221 327 74 89 232 239 236 226 2 -5 -6 -38
-17 -72z m-400 -660 c33 -46 39 -110 27 -275 l-12 -152 -143 -143 c-78 -78
-145 -140 -147 -137 -3 3 -6 95 -7 205 -2 155 1 209 13 245 8 25 54 107 102
182 l88 137 30 -17 c16 -10 39 -30 49 -45z m-4131 -2661 c0 -25 -78 -173 -117
-223 -22 -27 -127 -136 -233 -242 l-193 -192 -56 41 c-31 22 -106 76 -167 119
-61 43 -137 107 -169 142 -58 63 -124 184 -108 198 28 25 360 88 603 115 80 8
181 20 225 26 86 11 195 26 208 28 4 0 7 -5 7 -12z m15982 -27 c31 -12 71 -34
89 -50 l33 -27 -38 -47 c-41 -49 -102 -98 -200 -158 l-61 -38 -17 23 c-41 54
-181 253 -185 263 -4 12 53 38 119 55 57 14 197 3 260 -21z m-10634 -1173 c17
-37 78 -138 135 -225 203 -306 202 -304 218 -709 9 -236 9 -357 1 -470 l-11
-152 -70 -105 c-179 -266 -340 -420 -542 -518 -91 -44 -328 -132 -336 -125 -2
2 -19 66 -38 143 -53 215 -92 329 -257 739 -114 285 -141 369 -135 416 4 33
22 56 109 148 116 121 295 339 439 535 131 179 368 496 393 527 l21 25 21 -81
c11 -44 34 -111 52 -148z m5257 47 c27 -29 40 -94 32 -157 -10 -74 11 -321 38
-439 21 -96 67 -247 187 -617 32 -100 51 -448 29 -543 -25 -109 -271 -447
-470 -647 -353 -354 -741 -583 -1216 -716 -104 -30 -259 -55 -270 -44 -20 19
-11 467 13 659 56 446 67 499 122 581 31 48 204 190 629 519 230 178 429 340
515 420 154 143 228 325 281 690 9 63 25 159 36 214 10 54 19 100 19 102 0 14
35 0 55 -22z"/>
<path d="M11420 7315 c0 -3 26 -52 59 -108 118 -205 264 -506 323 -662 l18
-50 -5 42 c-16 134 -149 446 -258 608 -59 87 -137 184 -137 170z"/>
<path d="M7480 7273 c-93 -201 -156 -434 -185 -691 -9 -78 -14 -148 -12 -155
7 -17 11 -2 41 138 86 405 117 538 158 663 21 66 20 92 -2 45z"/>
<path d="M10450 7181 c0 -19 56 -56 173 -116 119 -61 185 -102 313 -196 84
-62 165 -100 226 -106 98 -10 102 4 11 42 -77 31 -139 69 -368 225 -49 34
-122 77 -161 95 -71 34 -194 70 -194 56z"/>
<path d="M8095 7015 c-127 -29 -257 -98 -383 -206 -45 -38 -82 -74 -82 -79 0
-9 80 -60 95 -60 5 0 -2 11 -15 25 l-24 25 30 31 c78 82 205 151 385 209 l124
41 63 -33 c55 -27 77 -33 155 -36 75 -4 94 -8 105 -23 21 -31 93 -75 157 -97
73 -25 186 -55 191 -49 8 8 -161 100 -268 146 -184 79 -241 100 -297 111 -71
13 -162 11 -236 -5z"/>
<path d="M10298 6891 c-98 -21 -174 -53 -238 -100 -53 -38 -44 -39 72 -1 163
52 266 72 368 73 102 0 139 -9 235 -53 33 -16 95 -45 139 -64 78 -36 162 -106
136 -114 -6 -2 -73 26 -149 63 -175 87 -258 115 -355 122 l-78 6 -194 -98
c-107 -54 -194 -102 -194 -107 0 -4 27 -8 59 -8 33 0 136 -7 228 -16 127 -12
201 -14 303 -8 74 5 194 8 266 7 l131 -1 114 -95 c62 -53 115 -95 117 -93 2 2
-12 28 -31 57 -41 67 -56 103 -60 154 -4 39 -6 41 -103 97 -54 32 -159 88
-233 124 l-134 67 -156 4 c-125 2 -173 -1 -243 -16z m125 -178 c9 -9 17 -21
17 -28 0 -22 -48 -57 -87 -62 -32 -4 -45 -1 -68 20 -28 24 -29 25 -12 50 30
46 109 56 150 20z"/>
<path d="M8170 6871 c-220 -38 -317 -77 -386 -155 -64 -71 -163 -204 -157
-210 8 -7 56 27 128 92 87 78 111 87 215 73 198 -25 292 -32 410 -29 116 3
123 4 92 17 -52 21 -70 81 -35 116 20 21 81 15 120 -10 23 -15 25 -22 21 -66
l-5 -49 31 5 c100 16 150 25 154 29 6 7 -139 100 -201 130 -81 38 -177 68
-232 71 -27 2 -97 -4 -155 -14z"/>
<path d="M8555 6491 c-44 -10 -136 -35 -205 -55 -96 -29 -145 -38 -210 -39
-85 -2 -86 -2 -153 42 -68 44 -87 48 -69 14 20 -36 50 -53 127 -73 94 -24 192
-26 286 -4 66 15 342 114 356 128 11 11 -50 5 -132 -13z"/>
<path d="M10055 6459 c-33 -5 -64 -10 -70 -12 -19 -7 101 -28 195 -34 89 -6
98 -8 133 -39 80 -67 212 -94 350 -71 47 8 47 8 53 -22 8 -39 24 -40 24 -2 0
33 13 40 73 42 66 2 25 7 -144 19 -174 12 -224 23 -350 81 -96 44 -165 54
-264 38z"/>
<path d="M10051 6039 c108 -89 205 -156 279 -194 65 -32 191 -75 224 -75 10 0
38 -16 62 -36 48 -39 52 -38 29 6 -12 24 -103 80 -130 80 -14 0 -260 128 -386
201 -75 43 -140 79 -144 79 -4 0 25 -27 66 -61z"/>
<path d="M8609 6011 c-8 -10 -74 -85 -146 -167 -73 -81 -133 -151 -133 -156 0
-4 24 7 53 24 79 49 168 145 212 232 36 72 44 109 14 67z"/>
<path d="M8792 5818 c-39 -78 -73 -154 -77 -168 -17 -58 -110 -224 -151 -268
l-44 -47 -45 49 c-25 27 -47 47 -50 45 -2 -2 -6 -15 -8 -29 -4 -20 4 -34 48
-73 l53 -48 74 100 c40 55 76 101 79 101 6 0 49 -126 49 -145 0 -6 6 -18 13
-27 11 -14 13 -3 9 65 -5 115 19 246 78 425 29 85 49 156 47 159 -3 2 -37 -60
-75 -139z"/>
<path d="M9769 5872 c5 -10 17 -24 25 -32 13 -10 16 -37 16 -139 0 -113 -3
-132 -25 -178 l-24 -53 50 0 c55 0 81 -11 180 -77 l66 -44 7 -137 8 -137 -78
-72 c-73 -68 -104 -87 -104 -64 0 6 -26 37 -57 71 -69 75 -133 110 -202 110
-56 0 -65 -7 -179 -138 -67 -76 -124 -113 -177 -115 -50 -1 -148 52 -297 163
-75 55 -139 100 -144 100 -4 0 -56 -48 -116 -106 l-108 -105 -29 21 c-94 66
-171 235 -171 372 0 32 -4 48 -9 42 -12 -11 -76 -226 -84 -279 -6 -40 -6 -40
22 18 16 32 32 68 35 80 5 18 15 3 55 -78 27 -55 68 -121 91 -147 36 -42 47
-48 81 -48 32 0 48 7 82 39 59 55 108 73 197 75 l76 1 104 -93 105 -92 105 1
104 1 52 57 c28 31 62 69 75 84 l24 28 100 -21 c55 -11 154 -35 220 -52 l120
-31 48 54 c74 83 98 141 98 235 l0 79 20 -25 c88 -112 168 -270 169 -332 0
-15 5 -30 12 -34 8 -5 10 16 6 80 -5 75 -11 98 -48 174 -35 74 -56 101 -138
182 -70 69 -120 108 -179 140 l-82 45 -1 162 0 163 -47 35 c-54 39 -68 43 -54
17z"/>
<path d="M7071 5055 c-21 -145 -9 -232 35 -249 34 -13 37 4 31 143 -8 157 -13
181 -37 181 -14 0 -20 -14 -29 -75z"/>
<path d="M8298 4661 c-47 -55 -95 -138 -129 -222 -31 -76 -71 -220 -64 -228 7
-6 6 -8 70 134 85 190 115 254 141 308 14 26 22 47 20 47 -2 0 -19 -18 -38
-39z"/>
<path d="M10029 4603 c77 -107 142 -216 225 -380 53 -104 86 -159 106 -173 17
-12 30 -20 30 -18 0 7 -131 293 -162 353 -17 33 -50 87 -74 121 -42 60 -147
164 -165 164 -5 0 13 -30 40 -67z"/>
<path d="M8860 4214 c-74 -58 -159 -129 -188 -157 -56 -55 -112 -134 -112
-158 0 -24 57 -136 98 -191 98 -133 244 -230 442 -293 114 -37 182 -37 290 -1
102 34 248 106 350 171 87 55 289 206 315 235 16 18 16 19 -22 29 -89 23 -113
24 -113 6 0 -15 -7 -17 -52 -11 -66 9 -175 45 -294 98 l-91 40 -114 -9 c-63
-5 -143 -5 -179 -1 -36 5 -91 6 -123 2 -60 -6 -85 -13 -251 -63 -113 -34 -220
-49 -230 -32 -10 15 60 106 131 171 32 30 110 91 172 134 l114 80 99 -53 c117
-62 117 -62 317 0 l126 39 100 -67 c129 -86 207 -164 246 -245 l31 -63 -6 52
c-10 101 -69 168 -274 311 l-102 72 -117 -40 c-64 -22 -140 -43 -168 -46 -47
-6 -59 -2 -153 45 -56 28 -103 51 -104 51 -2 0 -64 -48 -138 -106z m367 -350
c114 -5 197 -3 245 5 61 10 85 9 143 -4 107 -23 254 -52 310 -60 l49 -7 -24
-19 c-68 -53 -301 -204 -369 -238 -179 -91 -363 -119 -491 -77 -177 60 -380
202 -445 313 -32 53 -31 61 2 74 76 29 118 30 580 13z"/>
<path d="M9070 2986 c-155 -63 -231 -104 -293 -157 -93 -80 -68 -76 116 16
212 106 313 136 395 115 26 -6 135 -54 242 -106 209 -102 222 -98 61 17 -125
89 -225 133 -371 162 -16 3 -69 -13 -150 -47z"/>
<path d="M4808 2313 c-49 -126 -225 -677 -378 -1183 -127 -419 -295 -925 -354
-1062 -19 -45 -21 -71 -4 -66 12 4 34 55 93 218 13 36 38 103 55 150 41 110
219 644 260 780 17 58 38 123 45 145 8 22 29 94 49 160 19 66 51 176 72 245
20 69 44 154 54 190 10 36 43 152 74 259 53 183 67 249 34 164z"/>
<path d="M7764 1823 c3 -10 12 -52 21 -93 16 -78 36 -164 110 -465 74 -302
104 -431 160 -680 62 -275 97 -397 111 -382 8 7 -31 303 -62 467 -34 186 -108
508 -144 625 -4 17 -25 91 -45 165 -70 257 -96 334 -117 357 -26 27 -41 30
-34 6z"/>
</g>
</svg>
