<?xml version="1.0" encoding="UTF-8" standalone="no"?>
<svg
   version="1.0"
   width="474.000000pt"
   height="337.000000pt"
   viewBox="0 0 474.000000 337.000000"
   preserveAspectRatio="xMidYMid meet"
   id="svg874"
   sodipodi:docname="footprint.svg"
   inkscape:version="1.1.2 (1:1.1+202202050852+0a00cf5339)"
   xmlns:inkscape="http://www.inkscape.org/namespaces/inkscape"
   xmlns:sodipodi="http://sodipodi.sourceforge.net/DTD/sodipodi-0.dtd"
   xmlns="http://www.w3.org/2000/svg"
   xmlns:svg="http://www.w3.org/2000/svg">
  <defs
     id="defs878" />
  <sodipodi:namedview
     id="namedview876"
     pagecolor="#505050"
     bordercolor="#eeeeee"
     borderopacity="1"
     inkscape:pageshadow="0"
     inkscape:pageopacity="0"
     inkscape:pagecheckerboard="0"
     inkscape:document-units="pt"
     showgrid="false"
     inkscape:zoom="1.6898734"
     inkscape:cx="316"
     inkscape:cy="224.86891"
     inkscape:window-width="1853"
     inkscape:window-height="1057"
     inkscape:window-x="67"
     inkscape:window-y="23"
     inkscape:window-maximized="0"
     inkscape:current-layer="svg874" />
  <g
     transform="translate(0.000000,337.000000) scale(0.100000,-0.100000)"
     fill="#000000"
     stroke="none"
     id="g872"
     style="fill:#028040;fill-opacity:1">
    <path
       d="M3215 3360 c3 -5 -2 -10 -12 -10 -10 0 -38 -10 -63 -21 -170 -77 -279 -256 -268 -437 8 -113 38 -184 112 -258 81 -81 147 -108 266 -108 149 0 271 68 359 200 108 162 104 359 -10 504 -40 50 -121 106 -171 117 -16 3 -28 9 -28 14 0 5 -43 9 -96 9 -61 0 -93 -4 -89 -10z"
       id="path860"
       style="fill:#028040;fill-opacity:1" />
    <path
       d="M1969 3311 c-46 -15 -79 -43 -107 -90 -24 -40 -27 -56 -26 -126 1 -122 41 -197 128 -236 74 -33 138 -19 193 44 44 50 56 96 51 186 -5 93 -34 152 -93 193 -43 30 -105 42 -146 29z"
       id="path862"
       style="fill:#028040;fill-opacity:1" />
    <path
       d="M2433 3290 c-74 -45 -133 -180 -119 -273 20 -129 172 -215 282 -159 118 60 171 260 97 365 -56 81 -184 114 -260 67z"
       id="path864"
       style="fill:#028040;fill-opacity:1" />
    <path
       d="M1490 3109 c-32 -13 -78 -56 -96 -91 -23 -45 -17 -108 17 -177 67 -134 202 -169 305 -79 43 38 56 68 55 130 0 81 -73 190 -144 217 -35 13 -103 13 -137 0z"
       id="path866"
       style="fill:#028040;fill-opacity:1" />
    <path
       d="M1120 2787 c-87 -44 -94 -194 -12 -280 60 -64 138 -83 201 -49 52 28 73 74 69 149 -5 75 -41 135 -103 170 -45 25 -116 30 -155 10z"
       id="path868"
       style="fill:#028040;fill-opacity:1" />
    <path
       d="M2072 2760 c-223 -31 -482 -151 -625 -289 -135 -130 -209 -294 -257 -568 -47 -272 -10 -682 96 -1045 144 -494 359 -781 626 -830 36 -7 64 -16 62 -20 -3 -4 54 -8 125 -8 72 0 131 4 131 8 0 5 22 14 50 21 93 24 179 103 201 185 6 22 9 73 7 112 -4 61 -13 88 -60 185 -31 63 -90 172 -132 244 -42 71 -91 163 -108 205 -30 69 -33 84 -33 180 0 97 2 110 31 170 76 160 249 257 529 300 161 25 257 104 311 260 15 44 19 82 19 185 -1 119 -4 138 -32 220 -92 268 -254 407 -548 471 -83 19 -305 26 -393 14z"
       id="path870"
       style="fill:#028040;fill-opacity:1" />
  </g>
</svg>
