<?xml version="1.0" encoding="UTF-8" standalone="no"?>
<svg
   version="1.0"
   width="300.000000pt"
   height="300.000000pt"
   viewBox="0 0 300.000000 300.000000"
   preserveAspectRatio="xMidYMid meet"
   id="svg81"
   sodipodi:docname="git_logo.svg"
   inkscape:version="1.1.2 (1:1.1+202202050852+0a00cf5339)"
   xmlns:inkscape="http://www.inkscape.org/namespaces/inkscape"
   xmlns:sodipodi="http://sodipodi.sourceforge.net/DTD/sodipodi-0.dtd"
   xmlns="http://www.w3.org/2000/svg"
   xmlns:svg="http://www.w3.org/2000/svg">
  <defs
     id="defs85" />
  <sodipodi:namedview
     id="namedview83"
     pagecolor="#505050"
     bordercolor="#eeeeee"
     borderopacity="1"
     inkscape:pageshadow="0"
     inkscape:pageopacity="0"
     inkscape:pagecheckerboard="0"
     inkscape:document-units="pt"
     showgrid="false"
     inkscape:zoom="1.655"
     inkscape:cx="200"
     inkscape:cy="200"
     inkscape:window-width="1469"
     inkscape:window-height="841"
     inkscape:window-x="67"
     inkscape:window-y="23"
     inkscape:window-maximized="0"
     inkscape:current-layer="g79" />
  <g
     transform="matrix(0.1,0,0,-0.1,0,300)"
     fill="#000000"
     stroke="none"
     id="g79">
    <path
       d="m 1415,2971 c -16,-10 -90,-79 -162,-153 l -133,-133 159,-159 159,-159 74,-1 c 63,-1 81,-5 116,-29 23,-15 54,-46 69,-69 24,-35 28,-53 30,-117 l 2,-75 152,-153 c 124,-125 157,-153 174,-149 12,3 84,9 161,12 182,9 174,16 174,-157 v -129 h 128 c 86,0 132,-4 140,-12 8,-8 12,-49 12,-120 0,-96 -2,-108 -19,-118 -11,-5 -74,-10 -140,-10 H 2390 V 1098 955 l 245,245 c 135,135 256,261 268,280 26,42 28,121 4,167 -21,40 -1271,1293 -1318,1322 -45,28 -132,29 -174,2 z"
       id="path63"
       style="fill:#f03c2e;fill-opacity:1" />
    <path
       d="M 543,2108 C 54,1617 63,1629 89,1532 c 10,-40 31,-66 132,-168 l 119,-121 25,43 c 78,133 237,202 440,190 55,-4 190,-9 300,-11 110,-3 210,-8 223,-10 21,-5 22,-10 22,-109 0,-115 0,-116 -70,-116 -66,0 -69,-4 -49,-63 51,-147 -13,-326 -144,-401 -40,-22 -107,-47 -171,-61 -27,-6 -28,-7 -11,-25 12,-13 31,-20 57,-20 48,0 176,-26 220,-44 18,-8 52,-28 74,-44 59,-43 89,-132 81,-242 l -5,-78 42,-40 c 48,-47 81,-62 140,-62 59,0 109,35 241,169 l 110,111 h -232 c -280,0 -267,-6 -261,117 3,94 6,98 80,108 48,7 48,7 48,45 0,35 -3,38 -33,44 -135,25 -215,185 -156,311 20,43 79,105 99,105 6,0 10,19 10,41 0,32 -6,47 -26,65 -15,15 -23,31 -20,42 2,9 8,45 11,80 4,34 13,69 21,77 11,11 14,60 13,247 v 233 l -41,30 c -62,45 -83,94 -82,189 v 80 l -152,153 c -83,84 -153,153 -155,153 -3,0 -203,-199 -446,-442 z"
       id="path65"
       style="fill:#f03c2e;fill-opacity:1" />
    <path
       d="m 1571,1917 c -69,-35 -86,-65 -86,-152 0,-82 16,-115 74,-148 43,-26 139,-26 182,-1 58,34 74,67 74,149 0,87 -17,118 -86,152 -56,28 -103,28 -158,0 z"
       id="path67" />
    <path
       d="m 2176,1728 c -29,-139 -50,-184 -106,-230 -20,-15 -59,-33 -87,-40 l -52,-12 -3,-83 -3,-82 70,-3 70,-3 5,-310 c 5,-297 6,-312 28,-360 30,-65 53,-89 115,-116 98,-43 299,-29 433,30 l 43,19 -24,77 c -13,42 -25,78 -27,81 -2,2 -38,-3 -80,-12 -86,-18 -141,-9 -174,27 -18,19 -19,42 -22,295 l -3,274 h 141 140 v 95 95 h -140 -140 v 140 140 h -90 c -85,0 -90,-1 -94,-22 z"
       id="path69" />
    <path
       d="m 1840,1677 c 0,-9 -14,-32 -30,-51 -34,-38 -102,-66 -162,-66 -38,0 -38,0 -38,-40 v -40 h 108 c 71,0 112,-4 120,-12 9,-9 12,-114 12,-410 V 661 l 51,-7 c 61,-8 79,-24 79,-72 v -37 l 33,35 32,35 -3,313 -4,312 h -58 c -86,0 -92,10 -89,134 1,56 -1,122 -5,147 -4,26 -3,62 2,82 9,32 7,38 -19,63 -22,21 -29,24 -29,11 z"
       id="path71"
       style="fill:#f03c2e;fill-opacity:1" />
    <path
       d="m 684,1440 c -218,-33 -334,-159 -334,-361 0,-89 29,-168 84,-224 22,-23 48,-45 56,-47 11,-4 -5,-26 -57,-80 -40,-42 -77,-87 -83,-102 -24,-63 -7,-125 45,-168 20,-16 20,-17 -12,-50 -38,-40 -73,-112 -73,-153 0,-38 31,-106 61,-134 104,-98 421,-134 653,-75 70,18 141,52 185,90 73,61 111,177 91,281 -28,156 -124,198 -514,223 -94,6 -172,12 -174,15 -2,2 10,23 26,47 l 30,44 73,-10 c 146,-19 307,25 387,107 58,59 84,124 85,212 1,61 -3,81 -29,133 -35,70 -33,72 51,72 84,0 85,1 85,90 v 78 l -232,6 c -128,4 -260,8 -293,10 -33,3 -83,1 -111,-4 z m 215,-208 c 65,-48 86,-152 45,-222 -51,-90 -215,-107 -288,-31 -31,33 -44,99 -32,165 8,42 55,92 99,106 49,14 146,5 176,-18 z M 814,379 c 167,-12 206,-25 206,-68 0,-46 -9,-60 -54,-83 -57,-30 -256,-38 -339,-14 -87,25 -109,79 -61,151 19,30 36,30 248,14 z"
       id="path73" />
    <path
       d="m 704,1201 c -73,-45 -71,-190 3,-219 30,-12 67,-16 122,-14 23,2 43,12 68,37 34,34 35,37 31,97 -4,53 -9,65 -36,89 -28,25 -40,29 -95,29 -43,0 -71,-6 -93,-19 z"
       id="path75"
       style="fill:#f03c2e;fill-opacity:1" />
    <path
       d="m 1427,1437 c -3,-7 -8,-43 -12,-79 l -7,-65 61,-23 61,-22 V 939 631 l -47,-6 c -76,-10 -73,-7 -73,-90 v -75 h 265 265 v 80 80 h -29 c -16,0 -43,3 -60,6 l -31,6 -2,407 -3,406 -191,3 c -153,2 -193,0 -197,-11 z"
       id="path77" />
  </g>
</svg>
