<?xml version="1.0" encoding="UTF-8" standalone="no"?>
<svg
   version="1.0"
   width="2332.000000pt"
   height="1426.000000pt"
   viewBox="0 0 2332.000000 1426.000000"
   preserveAspectRatio="xMidYMid meet"
   id="svg80"
   sodipodi:docname="git-branches.svg"
   inkscape:version="1.1.2 (1:1.1+202202050852+0a00cf5339)"
   xmlns:inkscape="http://www.inkscape.org/namespaces/inkscape"
   xmlns:sodipodi="http://sodipodi.sourceforge.net/DTD/sodipodi-0.dtd"
   xmlns:xlink="http://www.w3.org/1999/xlink"
   xmlns="http://www.w3.org/2000/svg"
   xmlns:svg="http://www.w3.org/2000/svg">
  <defs
     id="defs84">
    <linearGradient
       inkscape:collect="always"
       id="linearGradient18265">
      <stop
         style="stop-color:#752adc;stop-opacity:1;"
         offset="0"
         id="stop18261" />
      <stop
         style="stop-color:#00a1fb;stop-opacity:1"
         offset="1"
         id="stop18263" />
    </linearGradient>
    <inkscape:path-effect
       effect="bspline"
       id="path-effect1035"
       is_visible="true"
       lpeversion="1"
       weight="33.333333"
       steps="2"
       helper_size="0"
       apply_no_weight="true"
       apply_with_weight="true"
       only_selected="false" />
    <linearGradient
       inkscape:collect="always"
       xlink:href="#linearGradient18265"
       id="linearGradient18269"
       x1="9208.4561"
       y1="10947.878"
       x2="10989.544"
       y2="10947.878"
       gradientUnits="userSpaceOnUse"
       gradientTransform="translate(-117.43023,-571.4938)" />
  </defs>
  <sodipodi:namedview
     id="namedview82"
     pagecolor="#505050"
     bordercolor="#eeeeee"
     borderopacity="1"
     inkscape:pageshadow="0"
     inkscape:pageopacity="0"
     inkscape:pagecheckerboard="0"
     inkscape:document-units="pt"
     showgrid="false"
     inkscape:zoom="1.3548387"
     inkscape:cx="1459.9524"
     inkscape:cy="527.73809"
     inkscape:window-width="1853"
     inkscape:window-height="1057"
     inkscape:window-x="67"
     inkscape:window-y="31"
     inkscape:window-maximized="0"
     inkscape:current-layer="g78" />
  <g
     transform="matrix(0.1,0,0,-0.1,0,1426)"
     fill="#000000"
     stroke="none"
     id="g78"
     style="fill:#ffffff;fill-opacity:1">
    <path
       style="fill:#ffffff;fill-opacity:1"
       d="m 4280,14160 c -20,-20 -20,-33 -20,-819 0,-792 0,-798 21,-825 l 20,-26 h 2109 2109 l 20,27 c 21,26 21,28 19,830 -3,783 -4,805 -22,819 -17,12 -323,14 -2128,14 -2095,0 -2108,0 -2128,-20 z"
       id="path2" />
    <path
       style="fill:#752adc;fill-opacity:1;stroke:none;stroke-opacity:1"
       d="m 8430,13340 v -720 H 6410 4390 v 720 720 h 2020 2020 z"
       id="path1250" />
    <path
       d="m 5170,13475 c -18,-21 -5,-45 24,-45 30,0 40,13 31,40 -7,24 -37,26 -55,5 z"
       id="path4"
       style="fill:#ffffff;fill-opacity:1" />
    <path
       d="m 5700,13315 c 0,-168 1,-175 20,-175 19,0 20,7 20,175 0,168 -1,175 -20,175 -19,0 -20,-7 -20,-175 z"
       id="path6"
       style="fill:#ffffff;fill-opacity:1" />
    <path
       d="m 4900,13310 v -170 h 100 100 v 25 c 0,24 -2,25 -75,25 h -75 v 145 145 h -25 -25 z"
       id="path8"
       style="fill:#ffffff;fill-opacity:1" />
    <path
       d="m 6262,13313 c 3,-166 3,-168 26,-171 21,-3 22,0 22,67 v 71 h 70 c 68,0 70,1 70,25 0,24 -2,25 -70,25 h -70 v 55 55 h 80 c 73,0 80,2 80,20 0,19 -7,20 -105,20 h -105 z"
       id="path10"
       style="fill:#ffffff;fill-opacity:1" />
    <path
       d="m 5330,13419 c 0,-22 -5,-32 -20,-36 -11,-3 -20,-14 -20,-24 0,-12 7,-19 20,-19 18,0 20,-7 20,-79 0,-74 2,-81 27,-101 34,-27 67,-23 71,9 2,13 0,21 -6,17 -6,-3 -17,-3 -26,0 -13,5 -16,21 -16,75 0,67 1,69 25,69 20,0 25,5 25,25 0,20 -5,25 -25,25 -22,0 -25,4 -25,35 0,31 -3,35 -25,35 -21,0 -25,-5 -25,-31 z"
       id="path12"
       style="fill:#ffffff;fill-opacity:1" />
    <path
       d="m 5520,13419 c 0,-22 -5,-32 -20,-36 -11,-3 -20,-14 -20,-24 0,-12 7,-19 20,-19 18,0 20,-7 20,-76 0,-41 4,-84 10,-94 11,-20 50,-33 75,-24 18,7 16,38 -3,40 -6,1 -16,2 -22,3 -6,0 -10,32 -10,71 0,69 1,70 26,70 21,0 25,4 22,23 -2,14 -11,23 -25,25 -19,3 -23,10 -23,38 0,30 -3,34 -25,34 -21,0 -25,-5 -25,-31 z"
       id="path14"
       style="fill:#ffffff;fill-opacity:1" />
    <path
       d="m 7088,13418 c -2,-25 -8,-34 -25,-36 -15,-2 -23,-10 -23,-22 0,-12 8,-20 23,-22 20,-3 22,-9 27,-86 4,-68 9,-86 25,-98 28,-21 59,-14 63,15 2,14 0,21 -6,17 -23,-14 -42,25 -42,85 0,56 1,59 25,59 20,0 25,5 25,25 0,20 -5,25 -25,25 -22,0 -25,4 -25,35 0,28 -4,35 -19,35 -15,0 -21,-8 -23,-32 z"
       id="path16"
       style="fill:#ffffff;fill-opacity:1" />
    <path
       d="m 5170,13265 v -115 h 25 25 v 115 115 h -25 -25 z"
       id="path18"
       style="fill:#ffffff;fill-opacity:1" />
    <path
       d="m 5862,13350 c -81,-80 -29,-210 83,-210 28,0 44,8 68,31 29,29 30,32 13,44 -14,11 -21,9 -41,-11 -13,-13 -32,-24 -42,-24 -28,0 -63,29 -63,51 0,17 7,19 80,19 78,0 80,1 80,25 0,93 -113,141 -178,75 z m 106,-26 c 41,-29 28,-44 -38,-44 -62,0 -69,5 -47,32 23,30 54,34 85,12 z"
       id="path20"
       style="fill:#ffffff;fill-opacity:1" />
    <path
       d="m 6544,13346 c -30,-30 -34,-40 -34,-86 0,-46 4,-56 34,-86 27,-27 42,-34 74,-34 60,0 133,68 90,83 -7,2 -23,-7 -35,-20 -27,-28 -66,-30 -93,-3 -40,40 -28,50 65,50 47,0 85,3 85,8 0,30 -25,85 -47,102 -42,33 -98,27 -139,-14 z m 100,-16 c 16,-6 26,-17 26,-30 0,-18 -6,-20 -55,-20 -61,0 -73,16 -33,44 26,19 29,19 62,6 z"
       id="path22"
       style="fill:#ffffff;fill-opacity:1" />
    <path
       d="m 6844,13371 c -25,-11 -56,-50 -48,-63 10,-15 43,-8 54,12 13,24 52,26 75,4 21,-22 10,-32 -48,-43 -58,-10 -87,-35 -87,-73 0,-58 75,-89 128,-52 20,14 22,14 22,-1 0,-11 7,-15 21,-13 21,3 22,8 20,98 -2,76 -6,99 -20,113 -21,21 -86,31 -117,18 z m 90,-143 c -11,-38 -26,-49 -58,-46 -26,2 -31,7 -31,28 0,19 6,26 30,31 59,13 67,11 59,-13 z"
       id="path24"
       style="fill:#ffffff;fill-opacity:1" />
    <path
       d="m 7640,13369 c -13,-6 -28,-15 -32,-22 -5,-8 -8,-6 -8,6 0,12 -8,17 -25,17 h -26 l 3,-112 c 3,-109 4,-113 26,-116 21,-3 22,0 22,62 0,89 10,112 55,120 30,6 36,11 33,28 -4,26 -15,30 -48,17 z"
       id="path26"
       style="fill:#ffffff;fill-opacity:1" />
    <path
       d="m 7782,13364 c -29,-20 -52,-66 -52,-104 0,-69 49,-120 116,-120 43,0 94,34 94,64 0,24 -24,24 -47,-1 -27,-28 -52,-29 -87,-2 -48,38 -35,49 60,49 h 87 l -6,38 c -12,75 -105,118 -165,76 z m 98,-44 c 32,-32 24,-40 -40,-40 -66,0 -79,15 -38,44 30,21 54,20 78,-4 z"
       id="path28"
       style="fill:#ffffff;fill-opacity:1" />
    <path
       d="m 7260,13280 c 0,-83 2,-93 25,-115 26,-27 72,-33 106,-15 13,7 19,7 19,0 0,-5 9,-10 20,-10 19,0 20,7 20,115 0,108 -1,115 -20,115 -18,0 -20,-7 -20,-73 0,-81 -16,-117 -54,-117 -38,0 -46,19 -46,107 0,82 0,83 -25,83 -25,0 -25,-1 -25,-90 z"
       id="path30"
       style="fill:#ffffff;fill-opacity:1" />
    <path
       d="m 6385,11908 c -11,-6 -22,-13 -25,-15 -3,-3 -7,-158 -10,-346 l -5,-342 -126,123 c -132,128 -158,142 -192,104 -36,-40 -24,-59 156,-240 94,-95 184,-180 199,-188 19,-10 34,-11 50,-5 13,5 103,90 201,188 186,188 200,209 159,246 -39,35 -62,23 -187,-103 -66,-66 -123,-120 -127,-120 -5,0 -8,153 -8,339 0,340 0,340 -22,355 -26,19 -36,19 -63,4 z"
       id="path32"
       style="fill:#ffffff;fill-opacity:1" />
    <path
       d="m 8868.7205,9691.161 c -12.1386,3.107 -24.9588,5.483 -28.5172,6.064 -4.2399,-0.15 -112.8147,-110.841 -243.1505,-246.361 l -236.7656,-246.842 -8.3607,175.883 c -9.3431,183.632 -18.8256,211.598 -69.605,206.967 -53.6061,-4.731 -57.7758,-26.813 -49.4346,-281.944 4.0303,-133.584 11.9495,-257.125 17.4726,-273.202 7.0868,-20.268 17.3811,-31.224 33.1783,-37.739 12.9204,-5.202 136.7118,-4.349 275.2177,0.563 264.2416,10.787 288.7993,16.611 284.0177,71.63 -4.6813,52.193 -29.6902,59.089 -207.0374,52.092 -93.2794,-3.309 -171.7942,-3.971 -174.7211,-1.244 -3.6586,3.408 98.4309,117.406 225.2084,253.507 231.7437,248.787 231.7437,248.787 225.8697,274.758 -6.0745,31.625 -13.3917,38.441 -43.3723,45.868 z"
       id="path32-0"
       style="fill:#ffffff;fill-opacity:1" />
    <path
       style="fill:#ffffff;fill-opacity:1"
       d="m 13702,11604 -22,-15 v -813 c 0,-775 1,-814 18,-829 17,-16 136,-17 1510,-17 1479,0 1492,0 1512,20 20,20 20,33 20,825 0,792 0,805 -20,825 -20,20 -33,20 -1508,20 -1330,0 -1490,-2 -1510,-16 z"
       id="path34" />
    <path
       style="fill:#00a1fb;fill-opacity:1"
       d="m 16618,10773 2,-723 h -1410 -1410 v 718 c 0,395 3,722 7,725 3,4 637,6 1407,5 l 1401,-3 z"
       id="path1506" />
    <path
       style="fill:#ffffff;fill-opacity:1;stroke-width:0.65329"
       d="m 9029.1299,10937.158 -13.895,-10.136 v -549.372 c 0,-523.6948 0.6316,-550.0488 11.3686,-560.1848 10.7371,-10.811 85.8965,-11.487 953.7033,-11.487 934.1232,0 942.3342,0 954.9662,13.515 12.632,13.514 12.632,22.299 12.632,557.4808 0,535.182 0,543.967 -12.632,557.481 -12.632,13.515 -20.843,13.515 -952.4402,13.515 -840.0164,0 -941.0711,-1.351 -953.7029,-10.812 z"
       id="path34-9" />
    <path
       style="fill:url(#linearGradient18269);fill-opacity:1;stroke-width:0.65;stroke-miterlimit:4;stroke-dasharray:none"
       d="m 10870.851,10375.622 1.263,-488.5558 h -890.5442 -890.5439 v 485.1778 c 0,266.915 1.8947,487.88 4.4211,489.908 1.8948,2.703 402.3237,4.054 888.6488,3.378 l 884.8602,-2.027 z"
       id="path1506-0" />
    <path
       d="m 14450,10756 c 0,-158 1,-166 20,-166 18,0 20,8 22,128 l 3,127 55,-128 c 49,-114 57,-127 78,-125 20,3 32,23 77,128 l 54,125 1,-127 v -128 h 25 25 v 165 165 h -32 c -33,0 -34,-2 -92,-136 -32,-74 -60,-133 -62,-131 -2,2 -28,61 -58,133 -52,122 -56,129 -85,132 l -31,3 z"
       id="path36"
       style="fill:#ffffff;fill-opacity:1" />
    <path
       d="m 15437,10883 c -4,-3 -7,-17 -7,-29 0,-13 -9,-28 -20,-34 -11,-6 -20,-17 -20,-24 0,-8 9,-16 20,-19 18,-5 20,-14 20,-79 0,-40 4,-78 8,-85 10,-15 53,-31 70,-26 19,7 14,33 -7,33 -25,0 -31,19 -31,91 0,56 1,59 25,59 18,0 25,5 25,20 0,15 -7,20 -25,20 -22,0 -25,4 -25,40 0,38 -14,52 -33,33 z"
       id="path38"
       style="fill:#ffffff;fill-opacity:1" />
    <path
       d="m 15196,10799 c -30,-23 -35,-68 -11,-93 9,-8 31,-18 50,-22 40,-7 58,-25 49,-48 -9,-23 -60,-21 -76,3 -17,25 -43,12 -34,-16 14,-43 87,-55 130,-22 49,39 27,101 -42,115 -37,7 -57,27 -48,49 7,20 62,20 74,0 8,-16 42,-11 42,5 0,17 -53,50 -80,50 -15,0 -39,-9 -54,-21 z"
       id="path40"
       style="fill:#ffffff;fill-opacity:1" />
    <path
       d="m 15644,10809 c -57,-28 -73,-135 -28,-188 42,-51 137,-51 164,0 22,41 -2,55 -33,19 -23,-27 -63,-25 -92,5 -40,39 -32,45 60,45 80,0 85,1 85,21 0,34 -29,85 -56,98 -30,13 -71,13 -100,0 z m 87,-39 c 10,-6 19,-20 19,-30 0,-18 -7,-20 -60,-20 -64,0 -73,9 -43,42 18,20 54,23 84,8 z"
       id="path42"
       style="fill:#ffffff;fill-opacity:1" />
    <path
       d="m 14922,10787 c -12,-13 -22,-29 -22,-35 0,-20 39,-13 50,9 14,25 67,23 84,-4 14,-22 0,-32 -58,-41 -53,-9 -76,-31 -76,-72 0,-56 78,-87 122,-48 16,16 18,16 24,0 3,-9 12,-16 20,-16 11,0 14,20 14,95 0,82 -3,98 -20,115 -30,30 -109,28 -138,-3 z m 118,-115 c 0,-47 -90,-72 -99,-28 -4,26 25,46 66,46 25,0 33,-4 33,-18 z"
       id="path44"
       style="fill:#ffffff;fill-opacity:1" />
    <path
       d="m 15880,10700 c 0,-101 2,-110 19,-110 16,0 19,9 23,76 4,82 18,104 65,104 16,0 23,6 23,20 0,25 -45,28 -72,3 -17,-15 -18,-15 -18,0 0,10 -8,17 -20,17 -19,0 -20,-7 -20,-110 z"
       id="path46"
       style="fill:#ffffff;fill-opacity:1" />
    <path
       style="fill:#ffffff;fill-opacity:1"
       d="m 6242,10391 c -130,-33 -235,-93 -333,-190 -118,-118 -186,-246 -207,-393 l -7,-53 -425,-6 c -383,-5 -433,-8 -510,-27 -254,-61 -459,-173 -639,-346 -117,-114 -195,-219 -265,-355 -101,-199 -139,-357 -155,-636 -11,-197 -34,-312 -90,-446 -90,-217 -258,-419 -464,-558 -82,-56 -251,-131 -354,-157 -140,-36 -325,-45 -827,-42 l -430,3 -12,66 c -61,328 -335,568 -670,586 -129,7 -227,-13 -349,-72 -155,-75 -255,-175 -330,-330 -59,-122 -79,-220 -72,-349 17,-323 232,-581 557,-667 78,-21 254,-16 343,9 199,57 358,184 451,362 36,69 76,195 76,242 v 28 h 2065 2065 l 4,-22 c 31,-152 59,-224 122,-320 91,-137 255,-251 424,-295 87,-22 253,-22 340,0 169,44 333,158 424,295 63,96 91,168 122,320 l 4,22 803,-2 802,-3 7,-47 c 24,-168 135,-354 271,-455 141,-103 273,-147 442,-147 115,1 157,9 265,51 140,55 281,176 354,305 36,62 79,186 91,261 l 6,38 662,-4 c 717,-4 696,-2 873,-62 327,-110 610,-379 741,-702 52,-129 72,-231 83,-413 23,-364 80,-558 237,-794 186,-280 477,-479 823,-563 102,-25 117,-26 518,-30 l 412,-5 5,-26 c 31,-167 87,-288 177,-387 150,-163 320,-239 538,-239 121,0 165,8 270,51 221,90 389,291 431,515 6,35 13,69 15,76 3,9 169,12 788,12 h 786 l 5,-27 c 32,-170 87,-289 177,-388 149,-162 326,-240 543,-239 117,0 161,9 265,51 219,89 389,291 431,515 6,35 13,69 15,76 3,9 169,12 788,12 h 786 l 5,-27 c 32,-170 87,-289 177,-388 102,-111 219,-183 362,-222 74,-20 269,-23 336,-5 277,76 466,265 542,542 18,67 15,262 -5,336 -68,248 -242,431 -485,512 -66,22 -96,26 -207,26 -148,1 -224,-17 -350,-82 -96,-50 -237,-191 -287,-287 -36,-69 -71,-174 -83,-248 l -6,-37 -787,2 -787,3 -7,54 c -11,73 -50,181 -90,249 -48,82 -179,211 -261,257 -124,68 -204,89 -352,89 -148,1 -224,-17 -350,-82 -96,-50 -237,-191 -287,-287 -36,-69 -71,-174 -83,-247 l -6,-38 h -784 -785 l -5,27 c -4,16 -13,56 -21,90 -54,235 -238,430 -482,511 -66,22 -96,26 -207,26 -148,1 -224,-17 -350,-82 -95,-49 -236,-190 -287,-287 -35,-68 -70,-173 -83,-248 l -6,-37 h -342 c -373,0 -473,8 -617,46 -101,26 -267,101 -347,155 -230,156 -407,382 -489,626 -41,123 -54,196 -64,379 -12,202 -29,308 -70,433 -108,330 -336,604 -643,771 l -72,40 h 1322 1323 l 4,-22 c 3,-13 8,-41 11,-63 21,-126 115,-288 227,-389 71,-65 207,-137 308,-163 87,-23 254,-23 340,0 202,54 376,191 464,366 61,119 80,201 80,331 0,136 -16,206 -77,330 -54,111 -185,247 -292,302 -125,65 -202,83 -350,83 -146,0 -210,-16 -340,-83 -96,-49 -236,-190 -287,-287 -35,-69 -71,-173 -83,-248 l -6,-37 h -2174 -2174 l -6,38 c -63,379 -381,641 -755,619 -183,-10 -333,-78 -466,-211 -113,-113 -181,-244 -202,-388 l -7,-53 -802,-3 -803,-2 -5,27 c -19,103 -40,169 -77,243 -34,68 -60,103 -133,175 -99,100 -175,146 -305,187 -108,33 -292,33 -400,0 -130,-41 -206,-87 -305,-187 -123,-122 -173,-223 -210,-417 l -5,-28 H 4355 c -718,0 -1305,2 -1305,4 0,2 35,23 78,46 437,236 702,700 702,1230 0,88 24,225 56,325 143,442 549,779 1004,834 61,8 224,11 450,9 l 355,-3 7,-47 c 22,-157 125,-336 252,-439 231,-187 531,-216 800,-76 95,48 221,168 275,260 181,307 109,705 -169,931 -62,50 -167,105 -250,131 -85,26 -276,30 -368,6 z"
       id="path48"
       inkscape:label="mainbranchpath" />
    <path
       style="fill:#22a576;fill-opacity:1"
       d="m 18355,5128 c 211,-45 384,-218 441,-438 22,-87 15,-251 -15,-333 -60,-169 -199,-308 -368,-368 -82,-30 -246,-37 -333,-15 -182,47 -325,165 -400,331 -39,85 -51,147 -51,246 0,163 58,306 171,419 145,146 346,203 555,158 z"
       id="path3758"
       inkscape:label="path3758" />
    <path
       style="fill:#22a576;fill-opacity:1"
       d="m 21365,5128 c 211,-45 384,-218 441,-438 22,-87 15,-251 -15,-333 -60,-169 -199,-308 -368,-368 -82,-30 -246,-37 -333,-15 -182,47 -325,165 -400,331 -39,85 -51,147 -51,246 0,163 58,306 171,419 145,146 346,203 555,158 z"
       id="path3760" />
    <path
       style="fill:#00a1fb;fill-opacity:1"
       d="m 6545,7695 c 208,-70 351,-215 411,-420 25,-85 23,-239 -5,-325 -58,-185 -210,-337 -393,-395 -161,-51 -356,-26 -494,63 -117,76 -214,202 -255,332 -28,86 -30,240 -5,325 82,277 322,453 601,441 50,-3 113,-12 140,-21 z"
       id="path3750" />
    <path
       style="fill:#22a576;fill-opacity:1"
       d="m 15345,5128 c 211,-45 384,-218 441,-438 22,-87 15,-251 -15,-333 -60,-169 -199,-308 -368,-368 -82,-30 -246,-37 -333,-15 -220,57 -386,223 -439,441 -18,70 -15,210 4,286 50,193 206,357 398,419 84,26 210,30 312,8 z"
       id="path3756" />
    <path
       style="fill:#00a1fb;fill-opacity:1"
       d="m 15396,7685 c 242,-80 406,-303 407,-554 1,-161 -51,-295 -156,-408 -123,-132 -261,-193 -435,-193 -171,0 -305,55 -421,171 -119,119 -175,255 -175,424 0,85 4,112 30,185 55,157 158,275 299,345 144,71 297,81 451,30 z"
       id="path3754" />
    <path
       style="fill:#00a1fb;fill-opacity:1"
       d="m 9544,7705 c 228,-48 413,-236 460,-467 20,-95 20,-143 1,-233 -46,-220 -219,-403 -435,-460 -72,-19 -220,-19 -295,0 -140,36 -276,135 -357,259 -108,167 -120,405 -28,586 120,238 394,370 654,315 z"
       id="path3752" />
    <path
       style="fill:#00a1fb;fill-opacity:1"
       d="m 935,7705 c 173,-36 336,-159 410,-307 49,-100 65,-167 65,-273 0,-173 -51,-296 -175,-421 -122,-123 -246,-174 -420,-174 -165,0 -304,58 -417,172 -235,238 -235,603 2,839 147,147 337,205 535,164 z"
       id="path3748" />
    <path
       style="fill:#752adc;fill-opacity:1"
       d="m 6571,10264 c 322,-95 505,-434 405,-749 -95,-298 -408,-473 -710,-395 -110,28 -190,74 -272,155 -151,150 -208,360 -154,569 23,90 55,152 113,224 95,114 234,193 382,216 51,7 179,-3 236,-20 z"
       id="path3746" />
    <path
       d="m 15167,9322 c -15,-16 -17,-59 -19,-355 l -3,-336 -128,121 c -130,123 -156,138 -192,108 -8,-7 -15,-27 -15,-44 0,-28 23,-54 183,-214 155,-154 188,-182 213,-182 24,0 60,30 212,176 100,97 185,186 188,199 14,54 -33,98 -79,74 -12,-6 -75,-63 -139,-127 l -118,-117 v 338 c 0,324 -1,338 -20,357 -25,25 -62,26 -83,2 z"
       id="path50"
       style="fill:#ffffff;fill-opacity:1" />
    <path
       d="m 21019,3074 c -166,-165 -189,-192 -189,-220 0,-34 11,-47 48,-59 20,-6 41,10 151,119 70,69 130,126 134,126 4,0 7,-152 7,-338 0,-316 1,-340 18,-355 25,-23 58,-21 82,3 19,19 20,33 20,357 v 338 l 118,-117 c 64,-64 127,-121 139,-127 46,-23 96,24 79,76 -10,32 -359,371 -389,379 -26,6 -42,-7 -218,-182 z"
       id="path52"
       style="fill:#ffffff;fill-opacity:1" />
    <path
       style="fill:#ffffff;fill-opacity:1"
       d="m 19280,1753 c -40,-14 -40,-6 -40,-844 0,-721 2,-809 16,-823 14,-14 207,-16 1973,-16 1884,0 1959,1 1974,18 16,17 17,88 17,823 0,442 -4,809 -8,815 -22,34 -28,34 -1984,33 -1063,0 -1940,-3 -1948,-6 z"
       id="path54" />
    <path
       style="fill:#22a576;fill-opacity:1;stroke:none;stroke-opacity:1"
       d="M 23100,910 V 190 h -1870 -1870 v 720 720 h 1870 1870 z"
       id="path861" />
    <path
       d="m 20262,1058 c -17,-17 -15,-36 6,-47 25,-13 44,1 40,30 -3,27 -27,36 -46,17 z"
       id="path56"
       style="fill:#ffffff;fill-opacity:1" />
    <path
       d="m 19954,1047 c -2,-7 -3,-82 -2,-167 l 3,-155 h 82 c 77,0 85,2 110,27 38,38 37,92 -1,124 -15,13 -22,24 -16,24 5,0 18,15 27,34 14,29 14,39 3,66 -7,17 -25,37 -41,45 -36,19 -158,20 -165,2 z m 130,-37 c 15,-5 28,-20 32,-36 9,-37 -24,-64 -77,-64 h -39 v 48 c 0,27 3,52 7,55 9,10 48,9 77,-3 z m 30,-156 c 20,-19 21,-58 2,-73 -7,-6 -34,-14 -60,-17 l -46,-7 v 57 56 h 44 c 27,0 51,-6 60,-16 z"
       id="path58"
       style="fill:#ffffff;fill-opacity:1" />
    <path
       d="m 20847,1054 c -4,-4 -7,-81 -7,-171 V 720 h 25 c 24,0 25,2 25,70 v 70 h 70 c 68,0 70,1 70,25 0,24 -2,25 -70,25 h -70 v 50 50 h 81 c 78,0 80,1 77,23 -3,21 -8,22 -98,25 -53,1 -99,0 -103,-4 z"
       id="path60"
       style="fill:#ffffff;fill-opacity:1" />
    <path
       d="m 21670,1000 c 0,-24 -6,-33 -26,-40 -31,-12 -29,-44 4,-48 21,-3 22,-8 22,-82 0,-70 2,-81 22,-94 12,-9 33,-16 45,-16 30,0 31,32 1,45 -20,9 -23,19 -26,78 -3,66 -3,67 23,67 33,0 36,37 3,42 -19,2 -24,10 -26,41 -3,29 -7,37 -23,37 -15,0 -19,-7 -19,-30 z"
       id="path62"
       style="fill:#ffffff;fill-opacity:1" />
    <path
       d="m 21155,951 c -38,-16 -58,-50 -63,-106 -4,-52 -3,-56 31,-90 45,-45 99,-49 146,-9 35,29 38,42 15,51 -9,3 -21,-3 -30,-16 -19,-27 -74,-29 -97,-3 -31,34 -21,41 66,44 81,3 82,3 79,28 -8,82 -77,129 -147,101 z m 69,-42 c 13,-6 27,-20 29,-30 5,-17 -1,-19 -59,-19 -61,0 -64,1 -54,20 10,18 37,39 52,40 4,0 18,-5 32,-11 z"
       id="path64"
       style="fill:#ffffff;fill-opacity:1" />
    <path
       d="m 21423,946 c -26,-12 -53,-42 -53,-59 0,-3 9,-7 20,-10 13,-3 24,3 35,19 18,27 56,32 75,9 20,-24 4,-45 -32,-45 -18,0 -48,-9 -65,-20 -61,-37 -36,-120 36,-120 18,0 41,5 51,10 13,7 21,7 25,0 3,-5 15,-10 26,-10 17,0 19,8 19,89 0,79 -3,93 -22,115 -29,31 -74,40 -115,22 z m 97,-129 c 0,-30 -31,-57 -66,-57 -33,0 -35,2 -32,28 2,22 9,28 38,33 56,10 60,10 60,-4 z"
       id="path66"
       style="fill:#ffffff;fill-opacity:1" />
    <path
       d="m 22364,941 c -69,-42 -70,-158 -2,-205 36,-25 104,-21 133,9 14,13 25,29 25,34 0,21 -23,22 -44,2 -28,-26 -70,-27 -96,-1 -34,34 -24,40 60,40 91,0 99,6 80,65 -13,40 -60,75 -100,75 -14,0 -39,-9 -56,-19 z m 104,-49 c 21,-27 14,-32 -49,-32 -52,0 -60,2 -57,17 8,40 78,50 106,15 z"
       id="path68"
       style="fill:#ffffff;fill-opacity:1" />
    <path
       d="m 20260,835 c 0,-115 0,-116 23,-113 21,3 22,7 22,113 0,106 -1,110 -22,113 -23,3 -23,2 -23,-113 z"
       id="path70"
       style="fill:#ffffff;fill-opacity:1" />
    <path
       d="m 20437,939 c -25,-15 -47,-63 -47,-103 0,-73 88,-129 145,-92 25,16 25,16 25,-12 0,-61 -80,-85 -119,-36 -13,16 -27,24 -36,20 -22,-8 -19,-22 13,-57 25,-28 35,-32 77,-31 40,0 53,6 79,31 l 31,31 v 128 c 0,124 -1,127 -22,130 -13,2 -23,-2 -23,-8 0,-7 -6,-8 -19,0 -25,13 -81,13 -104,-1 z m 97,-40 c 36,-29 33,-83 -6,-112 -23,-17 -31,-19 -53,-9 -54,25 -57,103 -5,129 33,17 33,17 64,-8 z"
       id="path72"
       style="fill:#ffffff;fill-opacity:1" />
    <path
       d="m 21840,860 c 0,-83 2,-93 25,-115 26,-27 72,-33 106,-15 13,7 19,7 19,0 0,-5 9,-10 20,-10 19,0 20,7 20,115 0,108 -1,115 -20,115 -18,0 -20,-7 -20,-78 0,-94 -11,-115 -60,-110 l -35,3 -5,90 c -5,84 -7,90 -27,93 -22,3 -23,1 -23,-88 z"
       id="path74"
       style="fill:#ffffff;fill-opacity:1" />
    <path
       d="m 22130,834 c 0,-114 0,-115 23,-112 20,3 22,9 25,78 3,84 12,100 53,100 24,0 29,4 29,25 0,20 -5,25 -24,25 -13,0 -29,-7 -37,-16 -11,-14 -13,-14 -21,0 -5,9 -18,16 -28,16 -19,0 -20,-8 -20,-116 z"
       id="path76"
       style="fill:#ffffff;fill-opacity:1" />
    <path
       style="fill:none;stroke:#752adc;stroke-width:112.5;stroke-linecap:butt;stroke-linejoin:miter;stroke-opacity:1;stroke-miterlimit:4;stroke-dasharray:none"
       d="m 7124.1007,9695.8783 c 249.4024,0 498.7971,0 623.4902,-345.3363 124.693,-345.3364 124.693,-1035.9972 185.2817,-1445.9405 60.5887,-409.9434 181.7623,-539.2043 320.554,-612.3576 C 8392.2184,7219.0907 8548.602,7202.0461 8705,7185"
       id="path1033"
       inkscape:path-effect="#path-effect1035"
       inkscape:original-d="m 7124.1007,9695.8783 c 249.4024,-0.01 498.7971,-0.01 748.1832,0 0.011,-690.6727 0.01,-1381.3335 0,-2071.955 121.1777,-129.2649 242.3512,-258.5259 363.5225,-387.785 C 8392.2177,7219.0841 8548.6013,7202.0395 8705,7185"
       sodipodi:nodetypes="ccccc" />
    <g
       aria-label="Merge"
       transform="scale(1,-1)"
       id="text3855"
       style="font-weight:bold;font-size:360px;line-height:1.25;font-family:Raleway;-inkscape-font-specification:'Raleway Bold';stroke-width:7.5">
      <path
         d="m 9651.9902,-10288.724 v -169.2 l -65.88,126 h -27 l -65.88,-126 v 169.2 h -49.68 v -255.6 h 53.28 l 75.6,145.44 76.32,-145.44 h 52.92 v 255.6 z"
         id="path19443" />
      <path
         d="m 9837.7501,-10285.124 q -22.68,0 -41.04,-7.56 -18.36,-7.92 -31.32,-21.24 -12.96,-13.32 -20.16,-30.96 -6.84,-17.64 -6.84,-37.08 0,-20.16 6.84,-37.8 6.84,-18 19.8,-31.32 12.96,-13.68 31.32,-21.6 18.72,-7.92 41.76,-7.92 23.04,0 41.04,7.92 18.36,7.92 30.96,21.24 12.96,13.32 19.44,30.96 6.84,17.64 6.84,36.72 0,4.68 -0.36,9 0,4.32 -0.72,7.2 h -145.8 q 1.08,11.16 5.4,19.8 4.32,8.64 11.16,14.76 6.84,6.12 15.48,9.36 8.64,3.24 18,3.24 14.4,0 27,-6.84 12.96,-7.2 17.64,-18.72 l 41.4,11.52 q -10.44,21.6 -33.48,35.64 -22.68,13.68 -54.36,13.68 z m 48.96,-113.76 q -1.8,-21.24 -15.84,-33.84 -13.68,-12.96 -33.48,-12.96 -9.72,0 -18.36,3.6 -8.28,3.24 -14.76,9.36 -6.48,6.12 -10.8,14.76 -3.96,8.64 -4.68,19.08 z"
         id="path19445" />
      <path
         d="m 10078.23,-10435.604 q -21.96,0.36 -39.24,8.64 -17.28,7.92 -24.84,24.12 v 114.12 h -48.2405 v -188.64 h 44.2805 v 40.32 q 9.72,-19.44 25.2,-31.32 15.84,-11.88 33.12,-11.88 3.96,0 5.76,0.36 2.16,0 3.96,0.36 z"
         id="path19447" />
      <path
         d="m 10179.029,-10287.644 q -18.72,0 -34.56,-7.56 -15.48,-7.56 -26.64,-20.52 -11.16,-13.32 -17.28,-30.6 -6.12,-17.28 -6.12,-36.72 0,-20.52 6.48,-38.16 6.48,-17.64 18,-30.96 11.52,-13.32 27.36,-20.88 16.2,-7.56 35.64,-7.56 22.32,0 38.88,10.08 16.56,9.72 27,26.28 v -33.12 h 42.12 v 179.64 q 0,20.88 -7.92,37.44 -7.56,16.56 -21.6,28.08 -14.04,11.52 -33.12,17.64 -19.08,6.12 -41.76,6.12 -31.32,0 -52.56,-10.44 -20.88,-10.08 -36,-28.8 l 26.28,-25.56 q 10.8,13.32 27,20.88 16.56,7.56 35.28,7.56 11.16,0 21.24,-3.24 10.44,-2.88 18,-9.36 7.92,-6.48 12.24,-16.56 4.68,-10.08 4.68,-23.76 v -23.76 q -9.36,16.2 -26.28,25.2 -16.92,8.64 -36.36,8.64 z m 16.56,-38.52 q 7.92,0 15.12,-2.52 7.2,-2.52 12.96,-6.84 6.12,-4.32 10.8,-10.08 4.68,-5.76 7.2,-12.24 v -45 q -6.48,-16.56 -20.16,-26.64 -13.68,-10.08 -28.8,-10.08 -11.16,0 -20.52,5.04 -9,4.68 -15.48,12.96 -6.48,7.92 -10.08,18.36 -3.24,10.44 -3.24,21.6 0,11.52 3.96,21.6 3.96,10.08 10.8,17.64 7.2,7.56 16.56,11.88 9.72,4.32 20.88,4.32 z"
         id="path19449" />
      <path
         d="m 10420.949,-10285.124 q -22.68,0 -41.04,-7.56 -18.36,-7.92 -31.32,-21.24 -12.96,-13.32 -20.16,-30.96 -6.84,-17.64 -6.84,-37.08 0,-20.16 6.84,-37.8 6.84,-18 19.8,-31.32 12.96,-13.68 31.32,-21.6 18.72,-7.92 41.76,-7.92 23.04,0 41.04,7.92 18.36,7.92 30.96,21.24 12.96,13.32 19.44,30.96 6.84,17.64 6.84,36.72 0,4.68 -0.36,9 0,4.32 -0.72,7.2 h -145.8 q 1.08,11.16 5.4,19.8 4.32,8.64 11.16,14.76 6.84,6.12 15.48,9.36 8.64,3.24 18,3.24 14.4,0 27,-6.84 12.96,-7.2 17.64,-18.72 l 41.4,11.52 q -10.44,21.6 -33.48,35.64 -22.68,13.68 -54.36,13.68 z m 48.96,-113.76 q -1.8,-21.24 -15.84,-33.84 -13.68,-12.96 -33.48,-12.96 -9.72,0 -18.36,3.6 -8.28,3.24 -14.76,9.36 -6.48,6.12 -10.8,14.76 -3.96,8.64 -4.68,19.08 z"
         id="path19451" />
    </g>
  </g>
</svg>
