<?xml version="1.0" encoding="UTF-8" standalone="no"?>
<svg
   version="1.1"
   id="layer"
   x="0px"
   y="0px"
   viewBox="-153 -46 108 94.400002"
   xml:space="preserve"
   sodipodi:docname="logo-SourceForge.svg"
   width="108"
   height="94.400002"
   inkscape:version="1.1.2 (1:1.1+202202050852+0a00cf5339)"
   xmlns:inkscape="http://www.inkscape.org/namespaces/inkscape"
   xmlns:sodipodi="http://sodipodi.sourceforge.net/DTD/sodipodi-0.dtd"
   xmlns="http://www.w3.org/2000/svg"
   xmlns:svg="http://www.w3.org/2000/svg"
   xmlns:rdf="http://www.w3.org/1999/02/22-rdf-syntax-ns#"
   xmlns:cc="http://creativecommons.org/ns#"
   xmlns:dc="http://purl.org/dc/elements/1.1/"><metadata
   id="metadata15"><rdf:RDF><cc:Work
       rdf:about=""><dc:format>image/svg+xml</dc:format><dc:type
         rdf:resource="http://purl.org/dc/dcmitype/StillImage" /></cc:Work></rdf:RDF></metadata><defs
   id="defs13" /><sodipodi:namedview
   pagecolor="#ffffff"
   bordercolor="#666666"
   borderopacity="1"
   objecttolerance="10"
   gridtolerance="10"
   guidetolerance="10"
   inkscape:pageopacity="0"
   inkscape:pageshadow="2"
   inkscape:window-width="1853"
   inkscape:window-height="1057"
   id="namedview11"
   showgrid="false"
   fit-margin-top="0"
   fit-margin-left="0"
   fit-margin-right="0"
   fit-margin-bottom="0"
   inkscape:zoom="0.64"
   inkscape:cx="64.0625"
   inkscape:cy="101.5625"
   inkscape:window-x="67"
   inkscape:window-y="23"
   inkscape:window-maximized="0"
   inkscape:current-layer="layer"
   inkscape:pagecheckerboard="0" />
<style
   type="text/css"
   id="style2">
	.st0{fill:#FF6600;}
</style>
<path
   class="st0"
   d="m -91.45,4.1 c 0,-17.6 -6.2,-25.5 -9.6,-28.6 -0.6,-0.6 -1.7,-0.1 -1.6,0.8 0.6,9.9 -11.9,12.4 -11.9,27.9 v 0 0.1 c 0,9.5 7.2,17.2 16,17.2 8.8,0 16,-7.7 16,-17.2 v -0.1 0 c 0,-4.4 -1.7,-8.6 -3.3,-11.8 -0.4,-0.6 -1.3,-0.4 -1.2,0.2 3.1,13.6 -4.4,21.8 -4.4,11.5 z m -19.1,37.1 c -0.4,0 -0.8,-0.2 -1.1,-0.5 l -40.9,-40.9 c -0.6,-0.6 -0.6,-1.6 0,-2.2 l 43.2,-43.2 c 0.3,-0.2 0.6,-0.4 1,-0.4 h 12.4 c 0.7,0 1.2,0.5 1.4,0.9 0.2,0.5 0.2,1.1 -0.4,1.7 l -40.5,40.6 c -0.8,0.8 -0.8,2.1 0,2.9 l 32.1,32.2 c 0.6,0.6 0.6,1.6 0,2.2 l -6.2,6.2 c -0.2,0.3 -0.6,0.5 -1,0.5 z m 8.2,7.1 c -0.7,0 -1.2,-0.5 -1.4,-0.9 -0.2,-0.5 -0.2,-1.1 0.4,-1.7 l 40.6,-40.6 c 0.4,-0.4 0.6,-0.9 0.6,-1.5 0,-0.6 -0.2,-1.1 -0.6,-1.5 l -32.2,-32.2 c -0.6,-0.6 -0.6,-1.6 0,-2.2 l 6.2,-6.2 c 0.3,-0.3 0.6,-0.5 1.1,-0.5 0.5,0 0.7,0.3 1,0.6 l 40.8,40.9 c 0.3,0.3 0.5,0.6 0.5,1.1 0,0.5 -0.2,0.8 -0.5,1.1 l -43.2,43.2 c -0.3,0.3 -0.6,0.5 -1.1,0.5 z"
   id="path4" />


</svg>
