<?xml version="1.0" encoding="UTF-8" standalone="no"?>
<svg
   version="1.0"
   width="150pt"
   height="150pt"
   viewBox="0 0 150 150"
   preserveAspectRatio="xMidYMid meet"
   id="svg1313"
   sodipodi:docname="logo-assembla.svg"
   inkscape:version="1.1.2 (1:1.1+202202050852+0a00cf5339)"
   xmlns:inkscape="http://www.inkscape.org/namespaces/inkscape"
   xmlns:sodipodi="http://sodipodi.sourceforge.net/DTD/sodipodi-0.dtd"
   xmlns="http://www.w3.org/2000/svg"
   xmlns:svg="http://www.w3.org/2000/svg">
  <defs
     id="defs1317" />
  <sodipodi:namedview
     id="namedview1315"
     pagecolor="#505050"
     bordercolor="#eeeeee"
     borderopacity="1"
     inkscape:pageshadow="0"
     inkscape:pageopacity="0"
     inkscape:pagecheckerboard="0"
     inkscape:document-units="pt"
     showgrid="false"
     inkscape:zoom="1.335"
     inkscape:cx="400"
     inkscape:cy="266.66667"
     inkscape:window-width="1853"
     inkscape:window-height="1057"
     inkscape:window-x="67"
     inkscape:window-y="23"
     inkscape:window-maximized="0"
     inkscape:current-layer="g1311" />
  <g
     transform="matrix(0.1,0,0,-0.1,0,400)"
     fill="#000000"
     stroke="none"
     id="g1311">
    <path
       d="m 689.35858,3995.6907 c -24.48316,-4.5339 -73.44947,-25.39 -108.81403,-46.246 C 142.56806,3691.9182 143.47485,3691.9182 99.94924,3611.2144 80.906784,3574.9431 80,3566.782 80,3252.1281 V 2930.22 l 24.48316,-46.246 c 13.60175,-26.2967 40.80525,-60.7545 60.75449,-77.0766 50.77989,-43.5256 469.71391,-285.6369 513.23953,-297.425 49.87309,-13.6018 96.11906,-12.695 143.27181,3.6271 59.84771,19.9492 476.96811,264.7808 516.86661,302.8657 19.0425,18.1357 45.3392,55.3138 58.9409,82.5173 l 24.4832,49.8731 2.7204,288.3572 c 3.6271,340.0439 0,359.0863 -68.9156,431.629 -31.7374,34.4578 -95.2123,77.0766 -246.6451,165.0346 -112.44118,66.1952 -223.97556,128.7633 -249.3655,139.6447 -54.40702,25.3899 -111.53439,32.6442 -170.47532,22.6696 z m 71.6359,-351.832 c 6.34749,-3.6272 78.89018,-142.3651 161.40749,-308.3065 155.96673,-311.0268 165.03463,-337.3235 117.88183,-337.3235 -19.0425,0 -31.7374,19.9493 -109.72078,176.8228 l -88.8648,176.8228 -87.95801,-176.8228 c -90.67836,-180.4499 -105.18689,-198.5856 -133.29719,-164.1278 -9.06783,9.9746 9.06784,53.5002 88.8648,213.0941 l 100.65298,200.3992 -29.01708,58.941 c -16.3221,32.6442 -31.73742,58.9409 -34.45777,58.9409 -2.72035,0 -63.47486,-118.7887 -136.01754,-263.874 -72.54269,-145.9922 -136.92433,-270.2216 -143.27181,-276.569 -14.50854,-15.4154 -47.15275,-1.8136 -47.15275,19.9492 0,12.695 270.22151,569.4601 295.61145,609.3586 13.60176,20.856 27.20351,24.4831 45.33918,12.695 z"
       id="path1255"
       style="stroke-width:0.906784;fill:#ffffff;fill-opacity:1" />
  </g>
</svg>
