<?xml version="1.0" encoding="UTF-8" standalone="no"?>
<svg
   alt="Tech Elevator"
   viewBox="0 0 429 86"
   fill="none"
   version="1.1"
   id="svg62"
   sodipodi:docname="TechElevator.svg"
   width="429"
   height="86"
   inkscape:version="1.1.2 (1:1.1+202202050852+0a00cf5339)"
   xmlns:inkscape="http://www.inkscape.org/namespaces/inkscape"
   xmlns:sodipodi="http://sodipodi.sourceforge.net/DTD/sodipodi-0.dtd"
   xmlns="http://www.w3.org/2000/svg"
   xmlns:svg="http://www.w3.org/2000/svg">
  <defs
     id="defs66" />
  <sodipodi:namedview
     id="namedview64"
     pagecolor="#505050"
     bordercolor="#eeeeee"
     borderopacity="1"
     inkscape:pageshadow="0"
     inkscape:pageopacity="0"
     inkscape:pagecheckerboard="0"
     showgrid="false"
     inkscape:zoom="1.6102117"
     inkscape:cx="208.3577"
     inkscape:cy="112.40758"
     inkscape:window-width="1474"
     inkscape:window-height="841"
     inkscape:window-x="62"
     inkscape:window-y="23"
     inkscape:window-maximized="0"
     inkscape:current-layer="svg62" />
  <path
     d="m 199.04308,81.179371 -0.79623,-1.58233 h -5.1522 l -0.79623,1.58233 h -2.63666 l 4.3138,-8.37625 h 3.35394 l 4.35057,8.37625 z m -5.02535,-3.40219 h 3.30637 l -1.65588,-3.27026 z"
     fill="#6e6e6f"
     id="path2"
     style="stroke-width:0.337384" />
  <path
     d="m 210.19566,78.431371 c 0,0.70682 0.69602,1.1606 2.90049,1.1606 2.01452,0 2.50474,-0.31646 2.50474,-0.84413 0,-0.60662 -0.37449,-0.71188 -2.85832,-0.87551 -3.39071,-0.23752 -4.88836,-0.91769 -4.88836,-2.76926 0,-1.74596 1.888,-2.53173 4.7831,-2.53173 3.22202,0 5.07831,0.97032 5.1468,2.83774 h -2.53106 c 0,-0.73853 -0.81242,-1.02329 -2.68423,-1.02329 -1.7824,0 -2.18322,0.29522 -2.18322,0.749 0,0.45344 0.40082,0.68556 2.67344,0.87011 3.07458,0.23752 5.07831,0.44839 5.07831,2.63734 0,2.18929 -1.98281,2.76925 -4.96225,2.76925 -3.38565,0 -5.40524,-0.77531 -5.5213,-2.98012 z"
     fill="#6e6e6f"
     id="path4"
     style="stroke-width:0.337384" />
  <path
     d="m 225.75785,75.946871 h -3.0955 v 2.21021 c 0,0.96019 0.2581,1.38193 1.30231,1.38193 0.60324,-0.003 1.20412,-0.0702 1.79319,-0.20041 v 1.84077 c -0.76282,0.16397 -1.54016,0.25068 -2.32053,0.25877 -2.10932,0 -3.03747,-0.74933 -3.03747,-2.63767 v -2.82694 h -1.62957 v -1.73551 h 1.62957 v -1.39778 l 2.2625,-0.63294 v 2.03072 h 3.0955 v 1.73551"
     fill="#6e6e6f"
     id="path6"
     style="stroke-width:0.337384" />
  <path
     d="m 234.25961,74.296051 v 1.97809 c -0.58368,-0.21019 -1.19907,-0.31748 -1.81952,-0.31647 -0.87011,0 -1.86675,0.23718 -3.00036,1.44502 v 3.77668 h -2.2625 v -6.96767 h 2.2625 v 1.41871 c 0.31647,-0.52295 0.76688,-0.9521 1.30433,-1.24327 0.53779,-0.29116 1.14306,-0.43387 1.75406,-0.41295 0.60223,-0.004 1.19974,0.10458 1.76149,0.32186 z"
     fill="#6e6e6f"
     id="path8"
     style="stroke-width:0.337384" />
  <path
     d="m 235.56697,71.795691 h 2.2679 v 1.6407 h -2.2679 z m 0,2.41601 h 2.2679 v 6.96767 h -2.2679 z"
     fill="#6e6e6f"
     id="path10"
     style="stroke-width:0.337384" />
  <path
     d="m 246.62576,71.795691 h 2.26216 v 9.38368 h -2.26216 v -1.23415 c -0.70142,1.00743 -1.94603,1.46627 -3.40151,1.46627 -2.03544,0 -4.03411,-1.00743 -4.03411,-3.69234 0,-2.68456 1.99867,-3.71865 4.03411,-3.71865 1.45548,0 2.70009,0.45918 3.40151,1.46661 v -3.6451 z m 0,5.92346 c 0,-1.17072 -0.88091,-1.81445 -2.54185,-1.81445 -1.66129,0 -2.51014,0.64373 -2.51014,1.81445 0,1.17107 0.833,1.81986 2.51014,1.81986 1.6768,0 2.54185,-0.65925 2.54185,-1.84617 z"
     fill="#6e6e6f"
     id="path12"
     style="stroke-width:0.337384" />
  <path
     d="m 257.71593,78.747841 h 2.26216 c -0.45345,1.67747 -1.95649,2.63733 -4.74599,2.63733 -3.03747,0 -5.00442,-1.22909 -5.00442,-3.69233 0,-2.46325 2.07221,-3.71865 4.88836,-3.71865 2.8951,0 4.91502,1.21323 4.91502,4.14072 h -7.46227 c 0.17409,1.1606 1.13935,1.58233 2.75812,1.58233 1.47673,0 2.10932,-0.3745 2.38902,-0.92815 z m -5.052,-1.8988 h 5.00443 c -0.30568,-0.91802 -1.17073,-1.26587 -2.5314,-1.26587 -1.36034,0 -2.16736,0.32693 -2.47303,1.24461 z"
     fill="#6e6e6f"
     id="path14"
     style="stroke-width:0.337384" />
  <path
     d="m 271.17352,72.571341 c 3.08504,0 4.83573,1.3239 5.07831,3.48113 h -2.57863 c -0.16363,-0.77531 -0.9494,-1.4187 -2.49968,-1.4187 -1.79286,0 -2.63666,0.88058 -2.63666,2.34719 0,1.46627 0.87517,2.3681 2.63666,2.3681 1.55028,0 2.33605,-0.65925 2.49968,-1.44502 h 2.57863 c -0.24258,2.17309 -1.99327,3.50745 -5.07831,3.50745 -3.3644,0 -5.20483,-1.58233 -5.20483,-4.43053 0,-2.84854 1.84043,-4.40962 5.20483,-4.40962 z"
     fill="#6e6e6f"
     id="path16"
     style="stroke-width:0.337384" />
  <path
     d="m 277.35407,77.692841 c 0,-2.3789 1.7824,-3.71865 4.93593,-3.71865 3.15353,0 4.9464,1.33975 4.9464,3.71865 0,2.3789 -1.78241,3.69233 -4.9464,3.69233 -3.16399,0 -4.93593,-1.33435 -4.93593,-3.69233 z m 7.51456,0 c 0,-1.30264 -0.86472,-1.8988 -2.57863,-1.8988 -1.71391,0 -2.56817,0.59616 -2.56817,1.8988 0,1.30298 0.86472,1.89913 2.56817,1.89913 1.70346,0 2.57863,-0.58569 2.57863,-1.89913 z"
     fill="#6e6e6f"
     id="path18"
     style="stroke-width:0.337384" />
  <path
     d="m 303.48956,77.344661 v 3.83471 h -2.25205 v -3.51825 c 0,-1.25507 -0.5641,-1.78274 -1.8772,-1.78274 -1.14981,0 -2.22539,0.55905 -2.22539,1.93592 v 3.36507 h -2.25171 v -3.51825 c 0,-1.25507 -0.56444,-1.78274 -1.87754,-1.78274 -1.15993,0 -2.22539,0.55905 -2.22539,1.93592 v 3.36507 h -2.26216 v -6.96767 h 2.28342 v 1.30804 c 0.3691,-0.48684 0.84818,-0.87922 1.39812,-1.14542 0.54994,-0.26586 1.1552,-0.39744 1.76587,-0.38428 1.34987,0 2.46257,0.52767 2.93187,1.84617 0.36235,-0.5776 0.86775,-1.05129 1.46796,-1.37484 0.59987,-0.32355 1.27329,-0.48583 1.95481,-0.47133 1.79826,0 3.16399,0.9548 3.16399,3.37047"
     fill="#6e6e6f"
     id="path20"
     style="stroke-width:0.337384" />
  <path
     d="m 314.78991,77.692841 c 0,2.71122 -1.99327,3.69233 -4.0341,3.69233 -1.46594,0 -2.71055,-0.45884 -3.41197,-1.46627 v 4.04558 h -2.25171 v -9.75278 h 2.25171 v 1.2291 c 0.70142,-1.00777 1.94603,-1.46661 3.41197,-1.46661 2.04083,0 4.0341,1.01282 4.0341,3.71865 z m -2.38362,0 c 0,-1.17106 -0.87517,-1.81446 -2.54185,-1.81446 -1.66635,0 -2.5206,0.6434 -2.5206,1.81446 0,1.17106 0.88057,1.81985 2.55771,1.81985 1.6768,0 2.5206,-0.63293 2.5206,-1.81985 z"
     fill="#6e6e6f"
     id="path22"
     style="stroke-width:0.337384" />
  <path
     d="m 325.43203,77.629751 v 3.56548 h -2.26216 v -0.92815 c -1.29792,0.69434 -2.74732,1.05669 -4.21899,1.055 -1.9457,0 -3.24834,-0.63293 -3.24834,-2.27869 0,-1.87788 2.04084,-2.40555 4.09213,-2.40555 1.13766,0.0105 2.26993,0.15182 3.3752,0.42206 -0.0688,-1.21829 -1.36067,-1.43995 -2.50508,-1.43995 -1.33773,0.0165 -2.6677,0.20985 -3.95516,0.5749 l -0.43219,-1.58233 c 1.54927,-0.40925 3.14375,-0.6218 4.74599,-0.63294 2.93221,0 4.37183,0.9548 4.39274,3.63937 z m -2.27802,1.46627 v -0.60122 c -1.01688,-0.22436 -2.05433,-0.3411 -3.0955,-0.34818 -1.3239,0 -1.99361,0.22132 -1.99361,0.79656 0,0.57491 0.52734,0.7382 1.62957,0.7382 1.17646,-0.0702 2.34179,-0.26822 3.4754,-0.59076 z"
     fill="#6e6e6f"
     id="path24"
     style="stroke-width:0.337384" />
  <path
     d="m 336.88084,77.540001 v 3.63937 h -2.25171 v -2.87452 c 0,-1.60898 -0.60122,-2.42647 -2.4629,-2.42647 -1.86135,0 -3.05333,0.83334 -3.05333,2.55299 v 2.748 h -2.26217 v -6.96767 h 2.26217 v 1.58234 c 0.47672,-0.60999 1.09413,-1.09549 1.79961,-1.41432 0.70547,-0.31883 1.47774,-0.46154 2.25069,-0.41599 2.22539,0 3.69132,0.95479 3.71764,3.56581"
     fill="#6e6e6f"
     id="path26"
     style="stroke-width:0.337384" />
  <path
     d="m 345.55061,74.211701 h 2.33638 l -3.62283,7.11038 c -0.93894,1.85123 -1.90926,2.93255 -3.90253,2.93255 -0.84852,-0.009 -1.69232,-0.12787 -2.51014,-0.35324 v -1.77228 c 0.70682,0.17409 1.4295,0.27665 2.1569,0.30567 0.95952,0 1.39205,-0.1633 1.96695,-1.22876 h -1.07592 l -3.53848,-6.968 h 2.34144 l 2.93221,5.75983 2.94233,-5.75983"
     fill="#6e6e6f"
     id="path28"
     style="stroke-width:0.337384" />
  <path
     d="m 203.96315,8.646797 v 24.875594 h -6.98217 V 8.646797 H 183.22244 V 3.2560338 h 34.5728 V 8.646797 Z"
     fill="#3d3f42"
     id="path30"
     style="stroke-width:0.337384" />
  <path
     d="M 225.89483,33.522391 V 3.2560338 H 256.5813 V 8.419974 h -23.70936 v 6.746374 h 13.82163 v 5.153413 h -13.82163 v 7.51649 h 24.00457 v 5.68614 z"
     fill="#3d3f42"
     id="path32"
     style="stroke-width:0.337384" />
  <path
     d="M 314.10907,33.522391 V 3.2560338 h 6.97171 V 14.997554 h 21.78458 V 3.2560338 h 7.02435 V 33.522391 h -7.02435 V 20.504378 h -21.78458 v 13.018013 z"
     fill="#3d3f42"
     id="path34"
     style="stroke-width:0.337384" />
  <path
     d="M 275.72349,27.846771 V 8.720651 h 25.65539 V 3.3298768 h -25.18069 c -2.86878,0 -4.80942,0.490551 -5.85869,1.466375 -1.0496,0.975824 -1.58233,2.8641682 -1.58233,5.6755932 v 15.908586 c 0,2.81318 0.52733,4.70854 1.58233,5.68615 1.05467,0.96525 2.98991,1.45581 5.85869,1.45581 h 25.19148 v -5.67562 z"
     fill="#3d3f42"
     id="path36"
     style="stroke-width:0.337384" />
  <path
     d="m 257.06106,62.406621 -7.93123,-13.87224 h 3.63869 l 5.57393,10.03247 5.30503,-10.03247 h 3.18525 l -7.55674,13.87224 z"
     fill="#3d3f42"
     id="path38"
     style="stroke-width:0.337384" />
  <path
     d="m 277.61183,48.534381 7.93663,13.87224 h -3.64949 l -5.56347,-10.03246 -5.30503,10.03246 h -3.19571 l 7.56214,-13.87224 z"
     fill="#3d3f42"
     id="path40"
     style="stroke-width:0.337384" />
  <path
     d="M 189.71979,62.406621 V 48.534381 H 203.784 v 2.36304 h -10.8685 v 3.09618 h 6.34384 v 2.35764 h -6.34384 v 3.44976 h 11.00582 v 2.60562 z"
     fill="#3d3f42"
     id="path42"
     style="stroke-width:0.337384" />
  <path
     d="m 210.84445,62.406621 v -13.87224 h 3.2011 v 11.26662 h 10.3044 v 2.60562 z"
     fill="#3d3f42"
     id="path44"
     style="stroke-width:0.337384" />
  <path
     d="m 230.05546,62.406621 v -13.87224 h 14.06994 v 2.36304 h -10.86884 v 3.09618 h 6.33338 v 2.35764 h -6.33338 v 3.44976 h 11.00582 v 2.60562 z"
     fill="#3d3f42"
     id="path46"
     style="stroke-width:0.337384" />
  <path
     d="m 297.36198,51.002691 v 11.40393 h -3.19571 v -11.40393 h -6.31246 v -2.46831 h 15.84661 v 2.46831 z"
     fill="#3d3f42"
     id="path48"
     style="stroke-width:0.337384" />
  <path
     d="m 324.55146,49.204091 c -0.4747,-0.44838 -1.36607,-0.66971 -2.68423,-0.66971 h -10.12525 c -1.3077,0 -2.20413,0.22301 -2.68929,0.66971 -0.4747,0.45378 -0.71728,1.31884 -0.71728,2.60562 v 7.31618 c 0,1.29219 0.24258,2.16264 0.71728,2.60562 0.4747,0.44333 1.38159,0.67511 2.68929,0.67511 h 10.12525 c 1.31816,0 2.20953,-0.22132 2.68423,-0.67511 0.47436,-0.45344 0.72234,-1.31343 0.72234,-2.60562 v -7.31618 c 0,-1.28678 -0.23212,-2.15184 -0.72234,-2.60562 z m -13.02034,1.7986 h 10.54697 v 8.79831 h -10.54697 z"
     fill="#3d3f42"
     id="path50"
     style="stroke-width:0.337384" />
  <path
     d="m 344.00977,57.174121 h 0.77531 c 2.05636,0 3.07425,-0.89137 3.07425,-2.68456 v -3.2335 c 0,-1.78813 -1.01789,-2.6849 -3.07425,-2.6849 h -11.73896 v 13.84086 h 3.1063 v -5.2325 h 4.40861 l 3.80738,5.2325 h 3.53849 l -3.91299,-5.2325 z m -7.85735,-2.58436 v -3.66062 h 7.18225 c 0.35863,-0.029 0.71896,0.0233 1.05466,0.15283 0.1417,0.0978 0.25405,0.2328 0.3249,0.38968 0.0705,0.15722 0.0968,0.33064 0.0759,0.50169 v 1.58234 c 0.0199,0.17105 -0.007,0.34413 -0.0776,0.50101 -0.0705,0.15689 -0.18218,0.29184 -0.32321,0.39069 -0.33604,0.12686 -0.69636,0.17747 -1.05466,0.14744 z"
     fill="#3d3f42"
     id="path52"
     style="stroke-width:0.337384" />
  <path
     fill-rule="evenodd"
     clip-rule="evenodd"
     d="M 92.232778,16.27641 C 99.23192,9.342889 108.69046,5.4620018 118.54178,5.4817898 c 9.85096,0.01978 19.29401,3.9386302 26.26505,10.9002222 l 1.72235,1.814791 c 2.00609,2.325558 3.74159,4.871628 5.17278,7.589158 2.66399,5.20244 4.07189,10.95683 4.11069,16.80168 v 0.0462 c -0.005,2.90387 -0.32794,5.79829 -0.96323,8.63199 -0.78847,3.50306 -2.1009,6.86678 -3.89308,9.97814 l -1.74833,2.80468 c -1.55399,2.24901 -3.3509,4.32055 -5.35766,6.17684 -0.20412,0.20917 -0.42477,0.40115 -0.65993,0.57422 -0.26383,0.20446 -0.34312,0.33638 -0.58064,0.53442 -2.54725,2.15791 -5.37487,3.96056 -8.40593,5.35868 -4.64309,2.20143 -9.70183,3.38734 -14.83952,3.47776 h -2.00575 c -5.43027,0 -11.56659,-1.78848 -16.29746,-4.25003 -1.44121,-0.79016 -2.83977,-1.65589 -4.189852,-2.59348 -0.46845,-0.32321 -0.87095,-0.65992 -1.31964,-0.98988 l -3.05495,-2.6397 c -2.5013,-2.48652 -4.66832,-5.2885 -6.44641,-8.33475 -0.18475,-0.31039 -0.25732,-0.45547 -0.42888,-0.78543 -0.17153,-0.32996 -0.24413,-0.40925 -0.40247,-0.70614 -0.31012,-0.52126 -0.44868,-0.94367 -0.7192,-1.49799 -2.24339,-4.61947 -3.37167,-9.89886 -3.37167,-16.15498 0.15348,-9.76992 4.14206,-19.08763 11.10473,-25.941801 z"
     fill="#ffffff"
     id="path54"
     style="stroke-width:0.337384" />
  <path
     fill-rule="evenodd"
     clip-rule="evenodd"
     d="m 84.513758,42.448981 c 0,5.81415 1.57697,11.83916 4.03809,16.08919 0.13856,0.24427 0.21113,0.43556 0.36946,0.6994 1.00207,1.72538 2.13825,3.36946 3.39807,4.9167 l 4.20304,4.21022 c 2.395132,2.28342 7.370162,5.00881 10.557062,6.05808 1.04252,0.34987 2.05866,0.65992 3.20671,0.94366 7.37873,1.81243 15.1541,1.0631 22.05125,-2.12484 1.87316,-0.86168 3.66635,-1.88868 5.35766,-3.06885 4.7109,-3.15421 9.09218,-8.64481 11.36851,-13.76597 1.31951,-2.98281 2.90994,-8.32158 2.87688,-11.826 0,-0.76552 0.11201,-1.18759 0.11201,-2.02599 -0.008,-1.30163 -0.0945,-2.60191 -0.25709,-3.89342 -0.67848,-6.00129 -2.97775,-11.70461 -6.6512,-16.498201 -3.70718,-4.854389 -8.64986,-8.624054 -14.31117,-10.915232 -2.72067,-1.099367 -5.57697,-1.827443 -8.49197,-2.164558 L 118.3822,8.779626 c -2.53578,0.05935 -5.06043,0.353174 -7.54176,0.877705 -2.168,0.48796 -4.28127,1.193228 -6.30784,2.105145 -4.6913,2.11179 -7.653872,4.480904 -11.051942,7.919156 -0.17021,0.185325 -0.33097,0.379153 -0.48165,0.58074 -3.64881,4.315919 -6.31445,8.796829 -7.57472,14.584389 -0.58793,2.49186 -0.89336,5.04214 -0.91053,7.60222 z M 99.74232,57.152191 118.3822,20.19638 136.81082,57.152191 c -0.35628,-0.0857 -1.84752,-0.97672 -2.3094,-1.20749 -2.93626,-1.49158 -15.83548,-8.69778 -16.22482,-8.69778 l -13.85618,7.4174 c -0.83135,0.40925 -4.17662,2.35596 -4.6781,2.48787 z"
     fill="#34aae1"
     id="path56"
     style="stroke-width:0.337384" />
  <path
     fill-rule="evenodd"
     clip-rule="evenodd"
     d="m 78.970628,41.914221 c 0,6.55943 1.18767,12.15563 3.54983,17.01295 0.2837,0.58064 0.44207,1.02936 0.74558,1.59685 0.17156,0.3168 0.25733,0.40924 0.42889,0.74561 0.17156,0.33671 0.25732,0.5017 0.44868,0.82491 1.87144,3.20515 4.15152,6.15356 6.78292,8.77065 l 3.21989,2.75171 c 0.48165,0.37618 0.90396,0.70614 1.40541,1.04926 1.42086,0.98449 2.892062,1.89442 4.407592,2.72573 4.97501,2.59348 11.4346,4.47439 17.15523,4.47439 h 2.10494 c 5.40861,-0.0955 10.7349,-1.34177 15.62428,-3.65623 3.193,-1.48382 6.17312,-3.38802 8.8614,-5.66199 0.25068,-0.2112 0.32996,-0.34987 0.60695,-0.56107 0.23651,-0.18387 0.45716,-0.38698 0.65993,-0.60695 2.11338,-1.95312 4.00509,-4.1333 5.6414,-6.50039 l 1.84077,-2.9565 c 1.88767,-3.27229 3.27331,-6.8091 4.1107,-10.493 0.66532,-2.98349 1.00574,-6.03041 1.0162,-9.08711 v -0.0462 c -0.0439,-6.15231 -1.52599,-12.20907 -4.32831,-17.68604 -1.51013,-2.857102 -3.33605,-5.535564 -5.4437,-7.98511 l -1.81445,-1.913814 c -15.24168,-15.2377542 -40.14319,-15.2839422 -55.332172,-0.0924 -1.22272,1.194139 -2.36453,2.468407 -3.41784,3.814368 -5.25297,6.710176 -8.15966,14.958756 -8.27412,23.480376 z M 117.4247,6.225193 c 6.24195,0 10.5571,0.851316 16.07975,3.299647 2.15757,0.989887 6.77637,3.787985 8.65695,5.609389 l 1.76148,1.656423 c 0.36978,0.369537 0.7129,0.659924 1.06243,1.062457 0.2311,0.244199 0.25067,0.343188 0.48178,0.587353 l 2.46088,3.068647 c 2.44132,3.543822 4.66502,7.839972 5.59553,12.089902 1.01586,4.6195 1.07524,5.39819 1.07524,10.11685 0,3.95954 -0.805,6.96193 -1.80771,10.33442 l -0.9305,2.48113 c -1.66702,4.01926 -4.0503,7.70215 -7.03346,10.86918 -0.33738,0.41464 -0.69636,0.81107 -1.07558,1.18793 l -1.74866,1.55736 c -1.83099,1.59212 -3.82088,2.99193 -5.93831,4.17716 -4.90253,2.5341 -7.69338,3.61002 -13.49335,4.40186 l -4.18964,0.28374 -4.2163,-0.25743 c -2.52201,-0.278 -5.00648,-0.82895 -7.4097,-1.64306 -0.60045,-0.20479 -1.05571,-0.37618 -1.64954,-0.58739 -4.77049,-1.70278 -9.362832,-4.98924 -12.952232,-8.57901 -0.19399,-0.2085 -0.3747,-0.42881 -0.54103,-0.65992 l -1.06232,-1.16803 c -0.3695,-0.44231 -0.65982,-0.79218 -1.00952,-1.22774 -1.70295,-2.18254 -3.15283,-4.55132 -4.3218,-7.06112 -0.97662,-2.16702 -1.75615,-4.41771 -2.32913,-6.72475 -0.42909,-1.91398 -0.73325,-3.85394 -0.91056,-5.8074 -0.099,-0.73246 0,-1.5044 -0.0858,-2.25035 l 0.18475,-4.19707 c 0.38446,-3.72688 1.33916,-7.37262 2.8306,-10.80956 2.10481,-4.71812 5.14916,-8.957591 8.94713,-12.45944 l 1.86068,-1.550821 c 1.28408,-1.014246 2.635412,-1.940265 4.044702,-2.771715 0.97652,-0.593932 1.93986,-1.049266 2.99553,-1.583818 1.02339,-0.498992 2.07418,-0.93965 3.14736,-1.319848 3.70091,-1.32329 7.59115,-2.040805 11.52033,-2.124976 z"
     fill="#34aae1"
     id="path58"
     style="stroke-width:0.337384" />
  <path
     fill-rule="evenodd"
     clip-rule="evenodd"
     d="m 105.81115,50.863351 3.09453,-1.59718 c 0.28374,-0.14508 0.4553,-0.27733 0.73901,-0.42882 l 3.12748,-1.6633 c 1.08199,-0.54758 5.10058,-2.91669 5.50308,-2.91669 0.20446,0 5.61475,2.96966 6.18223,3.29962 0.25743,0.15182 0.48179,0.24427 0.77869,0.39609 l 5.39714,2.91028 c -0.0459,-0.50844 -2.5928,-5.39174 -3.02196,-6.24971 -0.65958,-1.38598 -9.09217,-17.96981 -9.23725,-18.57032 l -12.53656,24.82003"
     fill="#34aae1"
     id="path60"
     style="stroke-width:0.337384" />
</svg>
