<?xml version="1.0" encoding="UTF-8"?><svg id="b" xmlns="http://www.w3.org/2000/svg" viewBox="0 0 597.3 596.8"><defs><style>.d{fill:#fff;}.e{fill:#cf4827;}.f{fill:#405a70;}.g{fill:#1899b5;}.h{stroke:#e2907d;stroke-width:20px;}.h,.i{fill:none;}.i{stroke:#cf4827;stroke-width:50px;}</style></defs><g id="c"><circle class="d" cx="306" cy="299.8" r="237.9"/><g><ellipse class="i" cx="298.7" cy="298.4" rx="273.7" ry="273.4"/><circle class="h" cx="297.5" cy="299.4" r="240"/></g><path class="d" d="M33,386.4l-1.2-3.7,17.4-15.2,1.6,5-3.7,3.1,2.5,7.8,4.8,.3,1.6,4.9-22.9-2.3Zm5.3-3.6l7,.5-1.6-4.9-5.5,4.5Z"/><path class="d" d="M28.2,370.4l-1.8-7.6c-.3-1.1-.4-2.1-.4-3.1,0-1,.1-1.9,.4-2.7,.3-.8,.8-1.5,1.5-2.1,.7-.6,1.7-1.1,2.9-1.3,1.2-.3,2.3-.3,3.2-.1,.9,.2,1.7,.6,2.3,1.1,.6,.6,1.2,1.3,1.6,2.2,.4,.9,.8,1.9,1,3l.8,3.3,8-1.9,1.1,4.5-20.6,4.9Zm7.6-6.6l-.7-3c0-.4-.2-.8-.4-1.1-.2-.4-.4-.7-.6-.9-.3-.3-.6-.4-.9-.5-.4-.1-.8-.1-1.3,0-.5,.1-.9,.3-1.2,.7-.3,.3-.4,.7-.5,1.1s0,.9,0,1.3,.1,.9,.2,1.4l.6,2.3,4.9-1.2Z"/><path class="d" d="M23.7,350.5l-1.2-7.8c-.2-1.1-.2-2.1-.2-3.1,0-1,.2-1.9,.6-2.7,.4-.8,.9-1.5,1.7-2,.7-.6,1.7-.9,3-1.1,1.2-.2,2.3-.2,3.2,.1,.9,.3,1.6,.7,2.2,1.3,.6,.6,1.1,1.4,1.4,2.3,.4,.9,.6,1.9,.8,3l.5,3.4,8.1-1.3,.7,4.6-20.9,3.3Zm8.1-6l-.5-3.1c0-.4-.2-.8-.3-1.2-.1-.4-.3-.7-.6-1-.2-.3-.5-.5-.9-.6s-.8-.2-1.3,0c-.5,0-.9,.3-1.2,.6-.3,.3-.5,.7-.6,1.1-.1,.4-.2,.9-.1,1.3,0,.5,0,.9,.1,1.4l.4,2.4,5-.8Z"/><path class="d" d="M20.7,330.4l-.4-4.6,16.8-1.6-.8-8.6,4.3-.4,1.3,13.2-21.1,2Z"/><path class="d" d="M31.3,311l-11.9,8.3-.2-5.8,7.8-4.7-8.1-4.5-.2-5.5,12.4,7.6,9-.3v4.7l-8.9,.3Z"/><path class="d" d="M18.9,296.1v-4.7l21.2,.4v4.7l-21.2-.4Z"/><path class="d" d="M19,285.9l.5-6.3,15.4-7.8h0l-14.7-1.3,.4-4.6,21.1,1.7-.5,6.1-15.8,8h0l15,1.3-.4,4.6-21.1-1.7Z"/><path class="d" d="M44,244.3c.5,1.5,.7,3,.8,4.5,0,1.5,0,3.1-.3,4.6-.3,1.6-.8,3.1-1.5,4.4-.7,1.3-1.7,2.3-2.8,3.2-1.1,.8-2.4,1.4-3.9,1.7-1.5,.3-3,.3-4.7,0-1.7-.3-3.1-.8-4.4-1.6-1.3-.8-2.3-1.8-3.1-2.9-.8-1.2-1.3-2.5-1.6-3.9-.3-1.5-.3-3,0-4.6,.3-1.7,.8-3.2,1.4-4.5,.6-1.3,1.5-2.4,2.7-3.3l3,3.8c-.8,.5-1.4,1.1-1.8,1.9-.5,.7-.8,1.7-1,2.9-.2,1-.2,1.9,0,2.8,.2,.9,.5,1.6,1,2.3,.5,.7,1.1,1.2,1.9,1.7,.8,.4,1.6,.8,2.6,.9,1,.2,1.9,.2,2.8,0,.9-.2,1.6-.5,2.3-.9,.7-.5,1.3-1.1,1.7-1.8,.5-.7,.8-1.6,1-2.6,.2-1,.2-1.9,.1-2.7-.1-.8-.2-1.4-.4-1.9l-3.4-.6-.6,3.7-4.2-.7,1.4-8.2,10.9,1.9Z"/><path class="d" d="M28.3,226l2.2-7.5c.3-1.1,.7-2,1.2-2.9,.5-.9,1-1.6,1.7-2.2,.7-.6,1.5-.9,2.4-1.1,.9-.2,2,0,3.2,.3,1.2,.3,2.1,.8,2.8,1.4s1.2,1.3,1.5,2.1c.3,.8,.4,1.7,.3,2.7,0,1-.3,2-.6,3.1l-1,3.3,7.9,2.3-1.3,4.5-20.3-5.9Zm9.9-2l.9-3c.1-.4,.2-.8,.2-1.2,0-.4,0-.8,0-1.1,0-.3-.3-.7-.5-.9s-.6-.5-1.1-.6c-.5-.2-1-.2-1.4,0-.4,.1-.7,.4-1,.7-.3,.3-.5,.7-.7,1.2-.2,.4-.3,.9-.5,1.3l-.7,2.3,4.8,1.4Z"/><path class="d" d="M34.3,206.5l2.9-7.7c.4-1,.8-1.9,1.4-2.8,.5-.8,1.2-1.5,1.9-2,.7-.5,1.5-.8,2.5-.9,.9-.1,2,0,3.1,.5,1.4,.5,2.5,1.3,3.2,2.4,.7,1.1,.9,2.4,.7,3.9l10.3-1.9-2,5.2-9.5,1.2-.8,2.2,7.9,3-1.6,4.4-19.8-7.4Zm9.8-1.3l1-2.6c.1-.4,.3-.8,.4-1.3,.1-.4,.2-.9,.2-1.3,0-.4-.1-.8-.3-1.1-.2-.3-.6-.6-1.1-.8-.5-.2-.9-.2-1.3-.1-.4,0-.7,.3-1,.5-.3,.3-.5,.6-.7,1-.2,.4-.4,.8-.5,1.2l-1.1,2.9,4.5,1.7Z"/><path class="d" d="M51,192.3c-1.5-.7-2.8-1.6-3.8-2.7s-1.7-2.3-2.2-3.7c-.4-1.3-.6-2.7-.5-4.2,.1-1.5,.5-3,1.3-4.5,.7-1.5,1.6-2.8,2.7-3.8,1.1-1,2.3-1.8,3.6-2.3,1.3-.5,2.7-.7,4.2-.6,1.5,0,3,.5,4.5,1.2,1.5,.7,2.8,1.6,3.8,2.7,1,1.1,1.7,2.3,2.2,3.7,.4,1.3,.6,2.7,.5,4.2-.1,1.5-.5,3-1.3,4.5-.7,1.5-1.6,2.8-2.7,3.8-1.1,1-2.3,1.8-3.6,2.3-1.3,.5-2.7,.7-4.2,.6-1.5,0-3-.5-4.5-1.2Zm2.1-4.4c.9,.4,1.8,.7,2.7,.8,.9,0,1.7,0,2.5-.3,.8-.3,1.5-.7,2.2-1.3,.7-.6,1.2-1.3,1.6-2.2,.4-.9,.7-1.8,.7-2.7,0-.9,0-1.7-.4-2.5-.3-.8-.8-1.5-1.4-2.1-.6-.6-1.4-1.2-2.3-1.6-.9-.4-1.8-.7-2.7-.7-.9,0-1.7,0-2.5,.3s-1.5,.7-2.2,1.3c-.7,.6-1.2,1.3-1.6,2.2-.4,.9-.7,1.8-.7,2.7,0,.9,0,1.7,.4,2.5,.3,.8,.8,1.5,1.4,2.1,.6,.6,1.4,1.2,2.3,1.6Z"/><path class="d" d="M53.9,162.8l7.1-12.3,3.7,2.2-4.8,8.2,3.7,2.2,4.4-7.6,3.7,2.2-4.4,7.6,7.1,4.2-2.3,4-18.3-10.7Z"/><path class="d" d="M63.8,146.2l8.1-11.9,3.6,2.4-5.5,8,3.3,2.2,5.2-7.6,3.6,2.4-5.2,7.6,3.6,2.4,5.8-8.5,3.6,2.4-8.4,12.3-17.5-11.9Z"/><path class="d" d="M86,124.8c-.6,0-1.2,.2-1.8,.5-.6,.4-1.1,.8-1.4,1.2-.2,.3-.4,.6-.6,.9-.2,.3-.3,.7-.3,1,0,.4,0,.7,0,1,0,.3,.3,.6,.6,.9,.5,.4,1,.5,1.6,.4,.6-.2,1.2-.5,1.8-.9,.6-.4,1.3-.9,2-1.4,.7-.5,1.5-.9,2.3-1.2,.8-.3,1.6-.4,2.5-.3,.9,0,1.8,.5,2.8,1.3,.9,.7,1.6,1.5,2,2.4,.4,.9,.6,1.8,.6,2.7s-.2,1.9-.6,2.8c-.4,.9-.9,1.8-1.6,2.7-.9,1.1-1.8,1.9-2.9,2.6-1.1,.7-2.3,1.1-3.6,1.3l-.8-4.9c.8,0,1.6-.1,2.3-.5,.7-.4,1.3-.8,1.8-1.4,.2-.3,.4-.6,.6-1,.2-.4,.3-.7,.3-1.1,0-.4,0-.7,0-1-.1-.3-.3-.6-.6-.8-.5-.4-1-.5-1.6-.4-.6,.2-1.2,.4-1.9,.9-.7,.4-1.4,.9-2.1,1.4-.7,.5-1.5,.9-2.3,1.2-.8,.3-1.6,.4-2.5,.4-.9,0-1.8-.5-2.7-1.2-.9-.7-1.5-1.5-1.9-2.4s-.6-1.8-.6-2.7c0-.9,.2-1.9,.6-2.8,.4-.9,.9-1.8,1.5-2.6,.7-.9,1.6-1.7,2.6-2.4,1-.7,2-1.1,3.2-1.3l.7,4.7Z"/><path class="d" d="M97.9,111.2c-.6,0-1.2,.1-1.8,.4-.6,.3-1.1,.7-1.5,1.1-.2,.3-.4,.5-.6,.9s-.3,.7-.4,1c0,.4,0,.7,0,1,0,.3,.3,.6,.6,.9,.5,.4,1,.6,1.6,.4,.6-.1,1.2-.4,1.9-.8,.7-.4,1.4-.8,2.1-1.3s1.5-.8,2.3-1.1c.8-.2,1.7-.3,2.5-.2,.9,.1,1.8,.6,2.7,1.4,.9,.8,1.5,1.6,1.9,2.5,.4,.9,.5,1.8,.4,2.8,0,.9-.3,1.9-.8,2.8-.5,.9-1,1.8-1.8,2.6-.9,1-1.9,1.8-3,2.4-1.1,.6-2.3,1-3.7,1.1l-.5-4.9c.8,0,1.6,0,2.3-.4s1.4-.8,1.9-1.3c.3-.3,.5-.6,.7-.9,.2-.3,.3-.7,.4-1,0-.3,0-.7,0-1,0-.3-.3-.6-.5-.9-.5-.4-1-.6-1.6-.5-.6,.1-1.2,.4-1.9,.7-.7,.4-1.4,.8-2.2,1.3-.8,.5-1.6,.8-2.4,1.1-.8,.3-1.7,.3-2.5,.2-.9-.1-1.7-.6-2.6-1.4-.8-.8-1.4-1.6-1.8-2.5-.3-.9-.5-1.8-.4-2.8,0-.9,.3-1.9,.8-2.8,.4-.9,1-1.8,1.7-2.5,.8-.9,1.7-1.6,2.7-2.2,1-.6,2.1-1,3.3-1.1l.5,4.7Z"/><path class="d" d="M99.5,102l3.3-3.3,14.9,15-3.3,3.3-14.9-15Z"/><path class="d" d="M112.7,103.5c-1.1-1.3-1.9-2.6-2.4-4-.5-1.4-.7-2.8-.5-4.2,.1-1.4,.5-2.7,1.3-4.1,.7-1.3,1.7-2.5,2.9-3.6,1.2-1.1,2.6-1.9,4-2.4,1.4-.5,2.8-.8,4.2-.7,1.4,0,2.8,.4,4.1,1.1,1.3,.7,2.6,1.6,3.7,2.9,1.1,1.3,1.9,2.6,2.4,4,.5,1.4,.7,2.8,.5,4.2s-.5,2.7-1.3,4.1c-.7,1.3-1.7,2.5-2.9,3.6-1.2,1.1-2.6,1.9-3.9,2.4-1.4,.5-2.8,.8-4.2,.7-1.4,0-2.8-.4-4.1-1.1-1.3-.7-2.6-1.6-3.7-2.9Zm3.6-3.2c.7,.7,1.4,1.3,2.2,1.8,.8,.4,1.6,.7,2.4,.7,.8,0,1.7,0,2.5-.3,.8-.3,1.6-.7,2.4-1.4,.7-.7,1.3-1.4,1.7-2.2,.4-.8,.6-1.6,.6-2.4,0-.8-.1-1.7-.4-2.5-.3-.8-.8-1.6-1.5-2.4-.6-.7-1.4-1.3-2.1-1.7-.8-.4-1.6-.7-2.4-.8-.8,0-1.7,0-2.5,.3-.8,.3-1.6,.7-2.4,1.4-.8,.7-1.3,1.4-1.7,2.2-.4,.8-.6,1.6-.6,2.4,0,.8,.1,1.7,.4,2.5,.3,.8,.8,1.6,1.4,2.4Z"/><path class="d" d="M127.1,77.3l5.1-3.7,15.9,6.7h0l-8.6-12,3.8-2.7,12.4,17.2-4.9,3.6-16.3-6.8h0l8.8,12.3-3.8,2.7-12.4-17.2Z"/><path class="d" d="M154.5,58.7l3.3-2,18.8,13.4-4.5,2.7-3.9-2.9-7,4.2,.8,4.8-4.4,2.6-3-22.8Zm4.7,4.4l1.2,7,4.4-2.7-5.6-4.3Z"/><path class="d" d="M169.3,50.3l4.2-2,7.4,15.1,7.8-3.8,1.9,3.9-11.9,5.8-9.3-19Z"/><path class="d" d="M205.3,40.2c-.5-.3-1.1-.5-1.8-.5-.7,0-1.3,.1-1.8,.3-.3,.1-.6,.3-.9,.5-.3,.2-.6,.4-.8,.7s-.4,.6-.5,.9,0,.7,0,1.1c.2,.6,.6,1,1.2,1.1,.6,.2,1.2,.2,2,.2,.8,0,1.6,0,2.4-.1s1.7,0,2.6,.1c.8,.2,1.6,.5,2.3,1,.7,.5,1.3,1.4,1.7,2.5,.4,1.1,.6,2.1,.5,3.1-.1,1-.4,1.9-.9,2.7-.5,.8-1.2,1.5-2,2.1s-1.8,1.1-2.8,1.5c-1.3,.5-2.6,.7-3.8,.7s-2.5-.2-3.8-.8l1.8-4.6c.7,.4,1.4,.7,2.2,.8,.8,0,1.6,0,2.3-.3,.4-.1,.7-.3,1-.5s.6-.5,.8-.7c.2-.3,.4-.6,.5-.9,0-.3,0-.7,0-1-.2-.6-.6-1-1.2-1.2-.6-.2-1.3-.3-2.1-.2-.8,0-1.6,0-2.5,.1-.9,0-1.8,0-2.6-.1-.8-.2-1.6-.5-2.3-1-.7-.5-1.3-1.3-1.7-2.4-.4-1.1-.5-2.1-.4-3s.4-1.8,.9-2.6c.5-.8,1.2-1.5,2-2.1s1.7-1.1,2.7-1.5c1.1-.4,2.3-.7,3.4-.7,1.2,0,2.3,.1,3.4,.5l-1.8,4.4Z"/><path class="d" d="M226,34c-.6-.4-1.3-.7-2-.8-.7-.1-1.5,0-2.3,.2-.8,.2-1.6,.6-2.2,1.2-.6,.5-1.1,1.2-1.5,1.9-.4,.7-.6,1.5-.6,2.4,0,.9,0,1.8,.3,2.7,.3,1,.7,1.8,1.2,2.5,.5,.7,1.1,1.3,1.8,1.7,.7,.4,1.4,.7,2.2,.8,.8,.1,1.6,0,2.4-.2,.9-.3,1.7-.7,2.3-1.3s1-1.3,1.3-2.1l4.5,1.7c-.5,1.5-1.3,2.7-2.5,3.6-1.2,1-2.4,1.6-3.8,2-1.6,.5-3.1,.6-4.6,.5-1.5-.1-2.8-.5-4.1-1.1-1.2-.6-2.3-1.5-3.3-2.7-.9-1.2-1.6-2.6-2.1-4.2-.5-1.6-.6-3.2-.5-4.7s.6-2.8,1.3-4c.7-1.2,1.7-2.3,2.8-3.1,1.2-.9,2.6-1.6,4.2-2,.6-.2,1.2-.3,1.8-.4,.7,0,1.3,0,2,0,.7,0,1.3,.2,2,.4,.7,.2,1.3,.5,1.9,1l-2.6,3.8Z"/><path class="d" d="M232.4,26.5l8-1.7c1.1-.2,2.1-.3,3.1-.3,1,0,1.9,.2,2.7,.5,.8,.3,1.5,.9,2.1,1.6,.6,.7,1,1.7,1.3,2.9,.3,1.5,.2,2.8-.4,4-.5,1.2-1.5,2.1-2.9,2.6l7.1,7.6-5.5,1.2-6.1-7.4-2.3,.5,1.7,8.3-4.6,1-4.4-20.7Zm6.4,7.6l2.7-.6c.4,0,.8-.2,1.3-.3,.5-.1,.8-.3,1.2-.5,.3-.2,.6-.5,.8-.9,.2-.4,.2-.8,0-1.4-.1-.5-.3-.9-.6-1.2-.3-.3-.6-.4-1-.5-.4,0-.8-.1-1.2,0-.4,0-.9,0-1.3,.2l-3,.6,1,4.7Z"/><path class="d" d="M272.4,32.8c.2,1.2,.1,2.4-.1,3.5-.2,1.1-.7,2.1-1.3,2.9-.6,.9-1.5,1.6-2.5,2.2-1,.6-2.3,1-3.7,1.2-1.5,.2-2.8,.1-3.9-.1-1.2-.3-2.2-.8-3-1.4-.8-.7-1.5-1.5-2-2.5-.5-1-.9-2.1-1-3.4l-1.7-12.9,4.6-.6,1.7,12.7c0,.7,.3,1.2,.6,1.8,.3,.5,.6,1,1.1,1.3,.4,.4,.9,.6,1.5,.8,.6,.2,1.1,.2,1.7,.1,.6,0,1.2-.3,1.6-.6,.5-.3,.9-.7,1.2-1.1,.3-.5,.5-1,.7-1.6,.1-.6,.2-1.2,0-1.8l-1.7-12.7,4.6-.6,1.7,12.9Z"/><path class="d" d="M277.1,19.4l7-.2,5.3,13.6h0l4.5-14,7-.2,.7,21.1h-4.7l-.5-16.1h0l-5,16.4h-3.6l-5.9-15.9h0l.5,16.2h-4.7l-.7-21Z"/><path class="d" d="M316.7,19.4l14.1,1.2-.4,4.3-9.5-.8-.4,4.3,8.8,.7-.4,4.3-8.8-.7-.7,8.2-4.6-.4,1.7-21.1Z"/><path class="d" d="M333.2,31.3c.3-1.7,.8-3.1,1.6-4.4,.8-1.3,1.8-2.3,2.9-3.1,1.2-.8,2.5-1.3,3.9-1.6,1.5-.3,3-.3,4.6,0,1.6,.3,3.1,.8,4.4,1.5,1.3,.7,2.3,1.7,3.2,2.8,.8,1.1,1.4,2.4,1.7,3.9,.3,1.5,.3,3,0,4.7-.3,1.7-.8,3.1-1.6,4.4-.8,1.3-1.8,2.3-2.9,3.1-1.2,.8-2.5,1.3-3.9,1.6-1.5,.3-3,.3-4.6,0-1.6-.3-3.1-.8-4.4-1.5-1.3-.7-2.3-1.7-3.2-2.8-.8-1.1-1.4-2.4-1.7-3.9-.3-1.5-.3-3,0-4.7Zm4.8,.8c-.2,1-.2,1.9,0,2.8,.2,.9,.5,1.6,.9,2.3,.5,.7,1.1,1.3,1.8,1.8s1.6,.8,2.6,1c1,.2,1.9,.2,2.8,0,.9-.2,1.6-.5,2.3-1s1.2-1.1,1.7-1.9,.8-1.6,.9-2.6c.2-1,.2-1.9,0-2.8-.2-.9-.5-1.7-.9-2.4-.5-.7-1.1-1.3-1.8-1.8-.7-.5-1.6-.8-2.6-1-1-.2-1.9-.2-2.8,0-.9,.2-1.6,.5-2.3,1-.7,.5-1.2,1.1-1.7,1.9-.4,.8-.8,1.6-.9,2.6Z"/><path class="d" d="M362.4,26l7.9,2.1c1,.3,2,.6,2.9,1.1,.9,.4,1.6,1,2.2,1.7,.6,.7,1,1.4,1.2,2.3s.1,2-.2,3.2c-.4,1.4-1.1,2.6-2.1,3.4-1,.8-2.3,1.2-3.8,1.1l2.9,10-5.4-1.4-2.1-9.3-2.2-.6-2.2,8.2-4.5-1.2,5.4-20.5Zm2.3,9.7l2.7,.7c.4,.1,.8,.2,1.3,.3,.5,0,.9,.1,1.3,0,.4,0,.8-.2,1.1-.4s.6-.6,.7-1.2c.1-.5,.1-1,0-1.3-.1-.4-.3-.7-.6-.9-.3-.2-.6-.5-1-.6-.4-.2-.8-.3-1.2-.4l-2.9-.8-1.2,4.7Z"/><path class="d" d="M399.4,43c-.2-.6-.5-1.1-1.1-1.5-.5-.4-1.1-.8-1.6-1-.3-.1-.7-.2-1-.3-.4,0-.7,0-1.1,0s-.7,.2-1,.4c-.3,.2-.5,.5-.6,.8-.2,.6-.2,1.1,.2,1.6,.3,.5,.8,1,1.4,1.4,.6,.5,1.2,1,1.9,1.5,.7,.5,1.3,1.1,1.8,1.8,.5,.7,.9,1.4,1.1,2.3,.2,.9,0,1.9-.4,3-.4,1.1-1,2-1.7,2.7s-1.5,1.1-2.4,1.4-1.9,.4-2.9,.3-2-.3-3.1-.7c-1.3-.5-2.4-1.1-3.4-1.9-1-.8-1.7-1.8-2.4-3.1l4.4-2.3c.2,.8,.6,1.4,1.2,2,.6,.6,1.2,1,1.9,1.3,.4,.1,.7,.2,1.1,.3,.4,0,.8,0,1.1,0,.4,0,.7-.2,.9-.4,.3-.2,.5-.5,.6-.8,.2-.6,.2-1.2-.2-1.7-.3-.5-.8-1-1.4-1.5s-1.3-1-2-1.6c-.7-.5-1.3-1.1-1.9-1.8-.5-.7-.9-1.4-1.1-2.3s-.1-1.8,.3-2.9c.4-1.1,1-1.9,1.7-2.6,.7-.6,1.5-1.1,2.4-1.4,.9-.3,1.9-.4,2.9-.3,1,0,2,.3,3,.6,1.1,.4,2.1,1,3.1,1.7,.9,.7,1.7,1.6,2.2,2.7l-4.2,2.2Z"/><path class="d" d="M403.6,50.3c.7-1.5,1.6-2.8,2.7-3.8,1.1-1,2.3-1.7,3.7-2.2,1.3-.4,2.7-.6,4.2-.5,1.5,.1,3,.5,4.5,1.3,1.5,.7,2.8,1.6,3.8,2.7,1,1.1,1.8,2.3,2.3,3.6,.5,1.3,.7,2.7,.6,4.2,0,1.5-.5,3-1.2,4.5-.7,1.5-1.6,2.8-2.7,3.8-1.1,1-2.3,1.7-3.7,2.2-1.3,.4-2.7,.6-4.2,.5-1.5-.1-3-.5-4.5-1.3-1.5-.7-2.8-1.6-3.8-2.7-1-1.1-1.8-2.3-2.3-3.6-.5-1.3-.7-2.7-.6-4.2,0-1.5,.5-3,1.2-4.5Zm4.4,2.1c-.4,.9-.7,1.8-.8,2.7,0,.9,0,1.7,.3,2.5,.3,.8,.7,1.5,1.3,2.2s1.3,1.2,2.2,1.6,1.8,.7,2.7,.7c.9,0,1.7,0,2.5-.4,.8-.3,1.5-.8,2.1-1.4,.6-.6,1.2-1.4,1.6-2.3,.4-.9,.7-1.8,.7-2.7,0-.9,0-1.7-.3-2.5-.3-.8-.7-1.5-1.3-2.2s-1.3-1.2-2.2-1.6c-.9-.4-1.8-.7-2.7-.7-.9,0-1.7,0-2.5,.4-.8,.3-1.5,.8-2.1,1.4-.6,.6-1.2,1.4-1.6,2.3Z"/><path class="d" d="M433.2,53.2l12.3,7.1-2.2,3.7-8.2-4.8-2.2,3.7,7.6,4.4-2.2,3.7-7.6-4.4-4.2,7.1-4-2.3,10.7-18.3Z"/><path class="d" d="M450.4,68.6l-5-3.3,2.3-3.4,13.9,9.3-2.3,3.4-5-3.3-9.4,14.2-3.9-2.6,9.4-14.2Z"/><path class="d" d="M463.6,72.2l3.9,3.2-6,12.6h0l12-7.7,3.4,2.7-5.4,13.6h0l11.6-8.5,3.7,3-18.2,12.5-3.2-2.6,5.6-14.3h0l-12.9,8.4-3.1-2.5,8.5-20.4Z"/><path class="d" d="M494.1,98.5l2.7,2.7-8.3,21.5-3.7-3.7,1.9-4.5-5.8-5.8-4.4,1.9-3.7-3.6,21.4-8.6Zm-3.1,5.6l-6.4,2.9,3.7,3.6,2.8-6.5Z"/><path class="d" d="M505.9,110.7l5.3,6.2c.7,.8,1.3,1.7,1.8,2.5,.5,.9,.8,1.7,.9,2.6,.1,.9,0,1.7-.4,2.6-.4,.9-1,1.7-1.9,2.5-1.1,1-2.4,1.5-3.7,1.6-1.3,0-2.5-.3-3.7-1.3l-3.3,9.9-3.6-4.2,3.5-8.9-1.5-1.7-6.4,5.5-3-3.5,16.1-13.8Zm-3.6,9.2l1.8,2.1c.3,.3,.6,.6,.9,1,.3,.3,.7,.6,1,.8s.7,.3,1.1,.3c.4,0,.8-.2,1.3-.6,.4-.3,.7-.7,.8-1.1,0-.4,.1-.7,0-1.1,0-.4-.3-.7-.5-1.1s-.5-.7-.8-1l-2-2.3-3.7,3.1Z"/><path class="d" d="M519.4,126.8l8.5,11.6-3.5,2.6-5.8-7.8-3.2,2.3,5.4,7.4-3.5,2.6-5.4-7.4-3.5,2.6,6.1,8.2-3.5,2.6-8.9-12,17-12.6Z"/><path class="d" d="M536.7,151.4l3.4,6.1c.8,1.5,1.5,3,1.9,4.5,.4,1.5,.5,3,.4,4.4-.2,1.4-.7,2.7-1.5,4-.8,1.2-2.1,2.3-3.8,3.3-1.5,.8-3,1.3-4.4,1.4-1.5,0-2.8-.1-4.1-.7-1.3-.5-2.5-1.3-3.6-2.3s-2-2.2-2.8-3.6l-3.8-6.6,18.4-10.4Zm-12.4,12.4l1.2,2.1c.5,.9,1.1,1.8,1.8,2.5,.6,.7,1.4,1.2,2.1,1.6,.8,.3,1.6,.5,2.5,.4s1.9-.4,2.9-1c.9-.5,1.6-1.1,2.1-1.8,.5-.7,.8-1.5,.9-2.3s0-1.7-.2-2.6c-.2-.9-.6-1.8-1.1-2.6l-1.4-2.4-10.9,6.2Z"/><path class="d" d="M548.5,172.7l6.2,13-3.9,1.8-4.2-8.8-3.6,1.7,3.9,8.3-3.9,1.8-3.9-8.3-3.9,1.8,4.4,9.3-3.9,1.8-6.4-13.5,19.1-9.1Z"/><path class="d" d="M556.2,189.1l1.9,5-11,9.9h14.9l1.8,4.7-22.9-.5-1.3-3.5,16.7-15.5Z"/><path class="d" d="M564.9,212.7l4,13.8-4.1,1.2-2.7-9.3-3.8,1.1,2.6,8.8-4.1,1.2-2.6-8.8-4.1,1.2,2.9,9.8-4.1,1.2-4.2-14.3,20.3-5.9Z"/><path class="d" d="M570.3,232.1l1,4.5-16.4,3.7,1.9,8.4-4.2,.9-2.9-13,20.6-4.6Z"/><path class="d" d="M563.6,249.7c1.7-.2,3.2-.1,4.7,.2,1.4,.4,2.7,1,3.8,1.9,1.1,.9,2,2,2.7,3.3,.7,1.3,1.2,2.8,1.4,4.4,.2,1.6,.2,3.2-.2,4.6-.3,1.5-.9,2.7-1.7,3.9-.8,1.1-1.9,2.1-3.2,2.8-1.3,.7-2.8,1.2-4.4,1.5-1.7,.2-3.2,.1-4.7-.2s-2.7-1-3.8-1.9c-1.1-.9-2-2-2.7-3.3-.7-1.3-1.2-2.8-1.4-4.4-.2-1.6-.2-3.2,.2-4.6,.3-1.5,.9-2.7,1.7-3.9,.8-1.1,1.9-2.1,3.2-2.8,1.3-.7,2.8-1.2,4.4-1.5Zm.6,4.8c-1,.1-1.9,.4-2.6,.8s-1.4,.9-2,1.6c-.5,.7-.9,1.4-1.1,2.2-.2,.8-.3,1.8-.1,2.7,.1,1,.4,1.9,.9,2.6,.4,.8,1,1.4,1.7,1.9,.7,.5,1.4,.8,2.3,1,.9,.2,1.8,.2,2.8,0,1-.1,1.8-.4,2.6-.8,.8-.4,1.4-1,2-1.6,.5-.7,.9-1.4,1.1-2.2,.2-.8,.3-1.8,.1-2.7-.1-1-.4-1.9-.9-2.6-.4-.8-1-1.4-1.7-1.9-.7-.5-1.5-.8-2.3-1-.9-.2-1.8-.2-2.8,0Z"/><path class="d" d="M577.3,275.7l.4,7.8c0,1.1,0,2.1-.1,3.1-.1,1-.4,1.9-.9,2.6s-1.1,1.4-1.9,1.8c-.8,.5-1.8,.7-3.1,.8-1.2,0-2.3,0-3.1-.4s-1.6-.9-2.1-1.5c-.5-.7-.9-1.5-1.2-2.4-.3-.9-.4-2-.5-3.1l-.2-3.4-8.2,.5-.3-4.7,21.1-1.2Zm-8.7,5.2l.2,3.1c0,.4,0,.8,.2,1.2,.1,.4,.3,.7,.5,1,.2,.3,.5,.5,.8,.7,.3,.2,.8,.2,1.3,.2,.5,0,1-.2,1.3-.4,.3-.3,.5-.6,.7-1,.2-.4,.2-.8,.3-1.3,0-.5,0-.9,0-1.4v-2.4l-5.1,.3Z"/><path class="d" d="M578.4,296.4l-.2,7-14,4.4h0l13.6,5.4-.2,7-21.1-.7v-4.7l16.4,.5h0l-16-6.1v-3.6l16.5-4.8h0l-16.2-.6v-4.7l21.3,.7Z"/><path class="d" d="M576.9,326.6l-1.7,14.3-4.3-.5,1.2-9.6-3.9-.5-1.1,9.1-4.3-.5,1.1-9.1-4.3-.5-1.2,10.2-4.3-.5,1.8-14.8,21,2.5Z"/><path class="d" d="M574.2,346.9l-1.3,6.2-16.2,5.8h0l14.4,3.1-1,4.6-20.7-4.4,1.3-6,16.6-5.9h0l-14.7-3.2,1-4.6,20.7,4.4Z"/><path class="d" d="M563.2,375.2l1.8-5.8,3.9,1.2-4.9,16-3.9-1.2,1.8-5.8-16.3-5,1.4-4.5,16.3,5Z"/><path class="d" d="M565.1,394.9l-.6,1.6h-4.3v.2l3.2,2.8-.6,1.6-4.9-1.7,.4-1,4.1,1.5h0l-3.5-3.1,.3-.8h4.6l-4.1-1.6,.4-1,4.9,1.7Zm.5-4l.6-1.6,.8,.3-1.5,4.3-.8-.3,.6-1.6-4.1-1.5,.4-1,4.1,1.5Z"/><g><path class="e" d="M142.3,395c-.8-1.4-2-2.3-3.3-3-1.4-.6-2.8-.9-4.4-.9s-2.2,.1-3.3,.4c-1.1,.3-2,.7-2.9,1.3-.9,.6-1.5,1.3-2.1,2.2-.5,.9-.8,2-.8,3.2s.1,1.8,.4,2.5c.3,.7,.8,1.4,1.5,2,.7,.6,1.6,1.2,2.7,1.7,1.2,.5,2.6,1,4.2,1.6,1.6,.5,3.2,1.1,4.8,1.7,1.5,.6,2.9,1.4,4.1,2.3,1.2,.9,2.1,2.1,2.8,3.4,.7,1.4,1,3.1,1,5.2s-.4,3.9-1.3,5.5c-.8,1.6-1.9,2.8-3.3,3.9-1.4,1-3,1.8-4.8,2.3s-3.6,.7-5.6,.7-2.5-.1-3.7-.3c-1.2-.2-2.4-.6-3.6-1-1.1-.5-2.2-1.1-3.2-1.8-1-.7-1.9-1.6-2.6-2.7l4.3-3.5c.9,1.6,2.2,2.7,3.8,3.5,1.6,.8,3.4,1.2,5.2,1.2s2.2-.2,3.3-.5c1.1-.3,2.1-.8,3-1.4,.9-.6,1.6-1.4,2.2-2.3,.6-.9,.8-2,.8-3.2s-.2-2.4-.7-3.2c-.4-.8-1.1-1.5-2-2.1-.9-.6-2.1-1.1-3.5-1.6-1.4-.5-3-1-4.9-1.7-1.5-.5-2.9-1-4.2-1.6-1.3-.6-2.4-1.4-3.3-2.3-.9-.9-1.7-2-2.2-3.2-.5-1.3-.8-2.8-.8-4.5s.4-3.8,1.2-5.3c.8-1.5,1.9-2.8,3.2-3.8,1.4-1,2.9-1.8,4.6-2.3,1.7-.5,3.5-.8,5.4-.8s4.6,.4,6.5,1.1c2,.7,3.7,2,5.3,3.9l-4.1,3.6Z"/><path class="e" d="M181,431c-3.2,0-6.2-.6-8.9-1.7-2.7-1.1-5-2.7-7-4.6-2-2-3.5-4.3-4.6-7.1-1.1-2.7-1.6-5.7-1.6-8.9s.5-6.1,1.6-8.9c1.1-2.7,2.6-5.1,4.6-7.1,2-2,4.3-3.5,7-4.6,2.7-1.1,5.6-1.7,8.9-1.7s6.2,.6,8.9,1.7c2.7,1.1,5,2.7,7,4.6,2,2,3.5,4.3,4.6,7.1,1.1,2.7,1.6,5.7,1.6,8.9s-.5,6.1-1.6,8.9c-1.1,2.7-2.6,5.1-4.6,7.1-2,2-4.3,3.5-7,4.6-2.7,1.1-5.6,1.7-8.9,1.7Zm0-4.7c2.5,0,4.7-.5,6.8-1.4,2.1-.9,3.8-2.2,5.3-3.8,1.5-1.6,2.6-3.5,3.4-5.6,.8-2.1,1.2-4.4,1.2-6.8s-.4-4.7-1.2-6.8c-.8-2.1-2-4-3.4-5.6-1.5-1.6-3.2-2.8-5.3-3.8-2.1-.9-4.3-1.4-6.8-1.4s-4.7,.5-6.8,1.4c-2.1,.9-3.8,2.2-5.3,3.8-1.5,1.6-2.6,3.5-3.4,5.6-.8,2.1-1.2,4.4-1.2,6.8s.4,4.7,1.2,6.8c.8,2.1,2,4,3.4,5.6s3.2,2.8,5.3,3.8c2.1,.9,4.3,1.4,6.8,1.4Z"/><path class="e" d="M217.2,387.6h26.2v4.7h-21.2v14h19.7v4.7h-19.7v19h-5v-42.3Z"/><path class="e" d="M284.7,392.2h-14v37.7h-5v-37.7h-14v-4.7h33v4.7Z"/><path class="e" d="M291.7,387.6h5.6l9.6,35.1h.1l10.4-35.1h5.6l10.3,35.1h.1l9.8-35.1h5.3l-12.4,42.3h-5.4l-10.5-35.9h-.1l-10.5,35.9h-5.5l-12.4-42.3Z"/><path class="e" d="M372.4,387.6h4.7l18,42.3h-5.9l-4.3-10.4h-21.2l-4.4,10.4h-5.7l18.6-42.3Zm2.3,6.5h-.1l-8.8,20.8h17.3l-8.4-20.8Z"/><path class="e" d="M406.7,387.6h10.8c2,0,4.1,.1,6.1,.4,2,.2,3.8,.8,5.4,1.6,1.6,.8,2.9,2,3.9,3.5,1,1.5,1.5,3.6,1.5,6.2s-.9,5.6-2.8,7.5c-1.9,1.9-4.5,3.1-7.8,3.6l12,19.5h-6.2l-11.5-19h-6.5v19h-5v-42.3Zm5,18.6h4.5c1.4,0,2.8,0,4.3-.1,1.5,0,2.9-.3,4.1-.8,1.3-.4,2.3-1.1,3.1-2.1,.8-.9,1.2-2.3,1.2-4s-.3-2.7-.9-3.6c-.6-.9-1.4-1.6-2.4-2.1-1-.5-2.1-.8-3.3-1-1.2-.2-2.4-.2-3.7-.2h-7.1v14Z"/><path class="e" d="M449.2,387.6h26.6v4.7h-21.6v13.3h20.1v4.7h-20.1v15.1h22.7v4.7h-27.7v-42.3Z"/></g><g><path class="e" d="M201.8,255.4h18.6l44.5,102.3h-25.4l-8.8-21.7h-39.7l-8.5,21.7h-24.8l44.2-102.3Zm8.7,29.8l-12.4,31.8h25l-12.6-31.8Z"/><path class="e" d="M275.2,255.4h38c5.3,0,10.3,.5,15,1.4,4.7,1,8.8,2.6,12.3,5,3.5,2.4,6.3,5.5,8.4,9.5,2.1,4,3.1,9,3.1,15.1s-1,11-2.9,15c-1.9,4-4.6,7.3-7.9,9.7-3.4,2.4-7.4,4.1-12,5.1-4.6,1-9.6,1.5-15,1.5h-16.5v39.9h-22.5v-102.3Zm22.5,43.3h15c2,0,4-.2,5.8-.6,1.9-.4,3.6-1,5.1-1.9,1.5-.9,2.7-2.2,3.6-3.8,.9-1.6,1.4-3.6,1.4-6s-.6-4.7-1.8-6.3c-1.2-1.6-2.7-2.8-4.6-3.7-1.9-.9-4-1.4-6.3-1.7-2.3-.2-4.5-.4-6.6-.4h-11.6v24.3Z"/><path class="e" d="M416.7,280.3c-1.8-2.3-4.3-4-7.4-5.1-3.1-1.1-6.1-1.7-8.9-1.7s-3.3,.2-5.1,.6c-1.7,.4-3.4,1-4.9,1.8-1.5,.8-2.8,1.9-3.8,3.2-1,1.3-1.4,3-1.4,4.9,0,3.1,1.2,5.4,3.5,7.1,2.3,1.6,5.2,3,8.7,4.2,3.5,1.2,7.3,2.3,11.3,3.5,4,1.2,7.8,2.8,11.3,4.9,3.5,2.1,6.4,5,8.7,8.5,2.3,3.6,3.5,8.3,3.5,14.3s-1.1,10.6-3.2,14.9c-2.1,4.2-5,7.8-8.6,10.5-3.6,2.8-7.8,4.9-12.6,6.2-4.8,1.3-9.8,2-15.1,2s-12.8-1-18.5-3c-5.7-2-11-5.3-15.9-9.8l16-17.6c2.3,3.1,5.2,5.5,8.7,7.1,3.5,1.7,7.1,2.5,10.9,2.5s3.7-.2,5.6-.6,3.6-1.1,5.1-1.9c1.5-.9,2.7-2,3.6-3.3,.9-1.3,1.4-2.9,1.4-4.8,0-3.1-1.2-5.5-3.5-7.3-2.4-1.8-5.3-3.3-8.9-4.5-3.6-1.2-7.4-2.5-11.6-3.8-4.1-1.2-8-2.9-11.6-5.1-3.6-2.1-6.5-4.9-8.9-8.4-2.4-3.5-3.5-8-3.5-13.7s1.1-10.3,3.3-14.4c2.2-4.1,5.1-7.6,8.7-10.4,3.6-2.8,7.8-4.9,12.5-6.3,4.7-1.4,9.6-2.1,14.6-2.1s11.4,.8,16.8,2.5c5.4,1.6,10.3,4.4,14.6,8.2l-15.5,16.9Z"/></g><g><g><path class="f" d="M149.7,181.4c.7-3,1.9-5.9,3.5-8.5,1.6-2.6,3.6-4.8,5.7-6.7-1.7,1.5-3.2,3.2-4.6,5,1-1.4,2-2.5,3.2-3.6,1.2-1.1,2.4-2,3.9-2.9-.4,.4-1,.9-1.6,1.4-.6,.5-1.1,1-1.1,1.3-3,2.7-5.5,6-7.3,9.7-1.8,3.6-2.8,7.7-3,11.7-.4-1.6-.2-3,.1-4.1,.3-1.2,.8-2.1,1.1-3.2"/><path class="f" d="M169.8,161.2c-.8,.2-1.5,.5-2.2,.8,.8-.3,1.5-.6,2.2-.8"/><path class="f" d="M179.2,214.4c.8,0,1.7-.2,2.5-.3-.8,.2-1.6,.3-2.5,.3"/><path class="f" d="M151,191.9l.4,1.4c.5,3.5,1.7,6.9,3.6,10.1-1-1.7-2-3.5-2.7-5.5-.7-1.9-1.2-4-1.2-6"/><path class="f" d="M151.6,188.1c0-3.5,1-7,2.6-9.9-1.6,2.9-2.5,6.3-2.6,9.9"/><path class="f" d="M196.5,199.5c0,0,0,0,0-.2,0,0,0-.2,0-.2,.6-.9,1.2-1.9,1.7-3,0,.3,0,.6-.1,.8-.3,.6-.6,.9-.8,1.2-.2,.3-.5,.7-.7,1.4"/><path class="f" d="M178.3,214.4h0c-.3,0-.6,0-.9,0h-.1c.3,0,.7,0,1,0"/><path class="f" d="M195.7,200.7c-.1,0-.2-.1-.4,0,.4-.5,.8-1,1.1-1.5,0,0,0,.2,0,.2-.1,.4-.6,.9-.7,1.4"/><path class="f" d="M183.7,208.2c-.4,.1-.6,.5-.8,.6-1.1,0-2.1,0-3.3,0-.2,0-.6,.1-.9,.3-.2-.1-.5-.2-.7-.3,2.6,0,5.3-.4,7.9-1.4-.7,.3-1.4,.6-2.2,.8"/><path class="f" d="M171.6,165.3c2-.6,4.3-.8,6.5-.8,2.2,0,4.4,.4,6.5,.6-2.3-.9-5.1-1.4-7.6-1.5-2.4-.2-4.4,0-4.9-.5-.5-.5,1.2-1,3.7-1.1,1.2,0,2.6,0,3.9,.2,1.3,.2,2.5,.4,3.5,.6q-.5-.2-1-.4c.5,.2,1,.4,1.5,.4-.5-.2-1.3-.5-2-.8-.7-.2-1.4-.5-1.7-.7,.3,0,.7-.1,1-.2-1.4-.6-3.5-1-5.7-1-2.2,0-4.3,.1-5.9,.2,3.8-.4,7.8-.4,11.9,.4,4.1,.8,8.2,2.4,11.8,4.8,3.7,2.4,6.9,5.7,9.1,9.6,2.3,3.9,3.6,8.3,3.7,12.7,.7,9.7-3.1,19.2-9.9,25.6-.7,.6-1.9,1.5-3.3,2.2-1.4,.8-3.1,1.5-4.6,1.9-4.9,2-10.4,2.7-15.8,2.2-5.7-.7-11.1-3.3-15.4-7.2-4.3-3.8-7.6-9-9.4-14.8-.4-1.2-.4-2.6-.2-3.1,.1-.2,.3-.2,.6,.3,.3,.4,.6,1.3,1.1,2.6,1.8,4.4,4.4,8.5,7.8,11.9-.3,0-.8-.5-1.4-1.1-.5-.6-1.1-1.2-1.5-1.6,1,1.5,2,2.7,3.2,3.9,1.2,1.1,2.4,2.2,3.9,3.1-2-1.3-3.8-2.8-5.4-4.5,2,2.1,4.5,4.1,7.2,5.6,2.7,1.5,5.8,2.7,9,3.2,1.1,.2,2.2,.7,3.4,1,1.2,.3,2.6,.4,4.3,0-4.2,0-8.4-.9-12.3-2.5-3.9-1.7-7.4-4.1-10.3-7.1,0,0,0,0,0,0-2.7-2.6-4.6-5.5-6-8.8,.5,1,1.1,2,1.5,2.9-2.4-4.7-3.6-9.8-3.6-14.9,.3,3.6,1.2,7.2,2.6,10.5,1.5,3.4,3.5,6.5,6.1,9.2,2.6,2.7,5.7,4.8,9.1,6.3,3.4,1.5,7,2.2,10.6,2.2-2-.3-4.2-.6-6.4-1.1-2.2-.5-4.2-1.3-5.6-2.5,5.6,2.9,12.3,4,18.8,2.7l-1.4,.4c2.1-.1,4.2-.7,6.1-1.5,2-.8,3.8-1.9,5.5-3.1,.3-.2,.6-.4,.9-.6l-.9,.6c-3.2,2.1-6.7,3.5-10.3,4.2,1.6-.5,3.3-1,5.2-1.8-1.1,.2-2.7,.7-4.3,1-2.1,.5-4.2,.8-6.3,.8,3.3-.1,6.4-1,9-2.3-4.1,1.3-8.6,1.9-12.9,1.2,2.3,.2,4.7,.2,7-.2,3.9-.5,7.8-1.8,11.2-4l-.4,.3c.3-.2,.5-.4,.8-.5,1.3-.9,2.5-1.9,3.7-3,1-1,1.8-2.2,2.4-3.5l.4-.6c-.2,.4-.2,.7,.4,0,1.2-1.5,2-3.2,2.7-5.1,.7-1.9,1.2-3.9,1.7-6,.3-1.1,.3-2.6,.2-4.3,0-.4,0-.7,0-.9,0-.3,0-.7-.1-1.1,0-.9-.2-1.7-.5-2.5,.2,.8,.3,1.7,.5,2.5v1c0-.2-.1-.4-.2-.9,.2,2.9,0,6-.8,8.9-.8,2.9-2,5.7-3.7,8.3,.1-.4,.3-.8,.4-1.1-.2,.6-.5,1.1-.8,1.6-1.1,1.6-2.4,3.1-3.9,4.5,.4-.4,.7-.9,1-1.3-2,2-4.3,3.6-6.8,4.9-2.5,1.3-5.2,2.2-8,2.7-5.3,.6-10.6-.4-15.2-2.8,2.3,1.5,5.2,2.6,8.2,3-4-.4-7.9-1.8-11.3-4-3.4-2.2-6.2-5.2-8.2-8.8,1.1,1,2.5,2.4,3.5,2.7,.1-.2-1.3-2.2-.3-1.2,1.9,1.8,3.5,3.2,5,4.2,1.5,1,2.8,1.5,4,1.3,.3,0-.7-1.1-1.3-2-.6-.9-1-1.8-.3-1.4,1.1,.7,3.2,1.8,5.7,2.4,.7,.3,1.4,.5,2.2,.6,0,0,.3,0,.5,0,2.7,.5,5.2,.3,6.6,.2,.5,0,1-.1,1.6-.2,.3,0,.5,0,.8,.1,.3-.2,.6-.3,.9-.5,1.4-.3,2.7-.8,3.9-1.5,.7-.3,1.5-.6,2.2-.9,0,0-.2,0-.2-.3,1.5-1,2.8-2.1,3.9-3.5,.6-.5,1.1-.9,1.6-1.2,.2-1,1-2.4,1.7-4,.7-1.6,1.3-3.3,1.5-4.9h0c.3-1.5,.4-3.1,.3-4.6,0-.3,.1-.5,.2-.8-.2-.4-.2-.8-.3-1,0-1.3-.1-2.3-.2-3.4-.1-.2-.5-.4-.6-.8-.2-.8-.6-1.5-.9-2.2-.4-.8-.8-1.7-1.3-2.5-1.6-2.7-3.8-5.1-6.3-7,0-.1,0-.3,0-.4-.5-.1-1.1-.6-1.5-.7,0,0,.2,0,.2,0-.7-.2-1.1-.5-1.5-.7-.4-.2-.7-.5-1.3-.8-.3,0-.6,0-.9-.1-.1,0-.3-.1-.4-.2-1.3-1-2.9-1.1-4.6-1.3-1.7-.3-3.4-.4-5.2-.3-1.4,.1-2-.1-3-.1"/><path class="f" d="M198.3,195.7c.6-1.4,1.1-2.8,1.4-4.3-.2,1.6-.4,3.1-1.4,4.3"/><path class="f" d="M165.3,204.9c-.3-.5-.7-1.1-1.1-1.6,2.6,2.5,5.8,4.2,9.4,5h0c-1.4-.2-3.1-.9-4.6-1.6-1.5-.7-2.7-1.5-3.7-1.8"/><path class="f" d="M196.4,199.3c0,0,0-.1,0-.2,0,0,0,0,0,0,0,0,0,.2,0,.2"/><path class="f" d="M156.3,202.5l-.2-.4c.6,.9,1.3,1.8,2.1,2.6-.6-.6-1.3-1.4-1.8-2.3"/><path class="f" d="M152.7,191.2c-.3-2.2-.3-4.5,0-6.8,.6-2.9,1.7-5.5,3.3-7.7-2.5,4.3-3.7,9.4-3.4,14.5"/><path class="f" d="M160.9,199.5c-.3-.7-.5-1.4-.8-2.1,.3,.7,.6,1.3,1,2-.2,0-.2,0-.3,.2"/><path class="f" d="M162.9,209.1l-.5-.4c.5,.3,1,.6,1.5,.8-.2,0-.7-.3-1-.4"/><path class="f" d="M158.6,192c0,.5,.1,1.1,.3,1.6-.1-.3-.3-.6-.4-.9,0-.2,.2-.4,.2-.7"/><path class="f" d="M158.9,183.7c.2-.7,.4-1.4,.7-2-.3,.8-.5,1.6-.7,2.5,0-.2,0-.4,0-.5"/><path class="g" d="M165.4,150c2.2,.9,4.2,2.3,6,3.9,1.7,1.6,3.2,3.5,4.3,5.4-.9-1.5-1.9-2.9-3.1-4.2,.9,1,1.6,1.9,2.3,3,.6,1,1.2,2.1,1.6,3.4-.3-.3-.5-.9-.8-1.4-.3-.5-.6-.9-.8-1-1.6-2.7-3.8-5.1-6.3-7-2.5-1.9-5.4-3.3-8.5-4,1.3,0,2.3,.3,3.1,.7,.8,.4,1.5,.9,2.3,1.3"/><path class="g" d="M177.8,168.2c0-.6-.2-1.2-.3-1.8,.1,.6,.3,1.3,.3,1.8"/><path class="g" d="M135.9,167.6c0,.6,0,1.3,0,1.9,0-.6,0-1.3,0-1.9"/><path class="g" d="M157.2,149.4h-1.1c-2.7,0-5.5,.3-8.2,1.3,1.4-.5,3-1,4.6-1.3,1.6-.3,3.2-.3,4.7,0"/><path class="g" d="M160,150.4c2.7,.5,5.2,1.8,7.1,3.5-2-1.6-4.4-2.9-7.1-3.5"/><path class="g" d="M144.7,182.9s0,0,.2,0c0,0,.1,0,.2,0,.6,.6,1.3,1.2,2,1.7-.2,0-.4-.1-.6-.2-.4-.3-.6-.6-.8-.8-.2-.2-.5-.4-.9-.7"/><path class="g" d="M136,166.9h0c0-.3,0-.5,0-.7h0c0,.2,0,.5-.1,.7"/><path class="g" d="M143.9,182.1c0,0,.1-.2,.1-.3,.3,.4,.7,.7,1,1.1,0,0-.1,0-.2,0-.3-.2-.6-.6-1-.8"/><path class="g" d="M140,171.9c0-.3-.3-.6-.3-.7,.1-.8,.3-1.6,.4-2.5,0-.2,0-.5,0-.8,.1-.2,.2-.3,.3-.5-.4,2-.5,4.1,0,6.2-.1-.6-.2-1.2-.3-1.8"/><path class="g" d="M174.4,169.1c.2,1.6,0,3.4-.4,5.1-.4,1.7-1,3.3-1.4,4.8,1-1.6,1.8-3.7,2.3-5.5,.5-1.8,.7-3.3,1.1-3.6,.4-.3,.6,1.1,.3,3-.1,.9-.4,2-.7,2.9-.3,1-.7,1.9-1,2.6,.2-.4,.2-.4,.5-.7-.2,.4-.5,.7-.5,1.1,.3-.3,.6-.9,.9-1.4,.3-.5,.6-1,.8-1.2,0,.3,0,.5,0,.8,.7-1,1.3-2.5,1.6-4.2,.4-1.6,.5-3.3,.8-4.5-.3,2.9-.9,6-2.1,9-1.2,3-3,5.9-5.4,8.3-2.4,2.4-5.4,4.4-8.7,5.5-3.3,1.1-6.9,1.5-10.2,1-7.5-.9-14.2-5.2-18-11.4-.3-.6-.8-1.6-1.2-2.9-.4-1.2-.7-2.6-.8-3.8-.8-4-.5-8.3,.7-12.3,1.4-4.3,4.2-8,7.7-10.7,3.6-2.7,8-4.5,12.7-5,.9-.1,2.1,0,2.4,.3,.1,.1,0,.3-.3,.4-.4,.1-1.1,.2-2.2,.4-3.6,.7-7.1,2.1-10.2,4.1,0-.2,.5-.6,1.1-.9,.5-.3,1.1-.6,1.4-.9-1.3,.5-2.4,1.1-3.4,1.9-1,.7-2,1.5-3,2.5,1.3-1.3,2.7-2.5,4.2-3.4-1.9,1.2-3.8,2.8-5.4,4.7-1.6,1.9-2.9,4-3.8,6.3-.3,.8-.8,1.6-1.2,2.4-.4,.9-.7,1.9-.6,3.3,.6-3.2,1.9-6.3,3.8-9,1.8-2.7,4.2-5,6.9-6.8,0,0,0,0,0,0,2.4-1.6,4.9-2.6,7.6-3.3-.8,.2-1.7,.5-2.4,.7,3.9-1.1,8-1.3,11.9-.5-2.8-.3-5.6-.2-8.4,.5-2.8,.6-5.5,1.7-7.9,3.3-2.4,1.6-4.5,3.6-6.1,6-1.6,2.4-2.7,5-3.2,7.7,.6-1.5,1.1-3.1,1.8-4.7,.7-1.6,1.6-3,2.7-3.9-3.1,3.9-4.8,8.8-4.8,13.9v-1.1c-.3,1.6-.2,3.3,.1,4.9,.3,1.6,.9,3.2,1.5,4.7,.1,.3,.2,.5,.3,.8l-.3-.8c-1.1-2.7-1.7-5.6-1.7-8.4,.1,1.3,.3,2.6,.6,4.3,0-.9-.1-2.2-.1-3.4,0-1.6,0-3.3,.3-4.9-.4,2.5-.2,5,.4,7.2-.4-3.3-.2-6.8,1-10-.5,1.8-.8,3.6-.9,5.4-.2,3,.2,6.2,1.4,9.1l-.2-.3c0,.2,.2,.4,.3,.7,.5,1.1,1.1,2.2,1.8,3.3,.6,.9,1.4,1.7,2.3,2.4l.4,.4c-.3-.2-.5-.2,0,.3,.9,1.1,2.1,2,3.5,2.8,1.3,.8,2.8,1.5,4.3,2.2,.8,.4,2,.6,3.2,.8,.3,.1,.5,.1,.7,0,.3,0,.5,0,.8,0,.7,0,1.3,0,2,0-.6,0-1.3,0-2,0h-.7c.2-.1,.4-.2,.7-.2-2.3-.3-4.5-.9-6.7-1.9-2.1-1-4.1-2.4-5.8-4.1,.3,.1,.6,.4,.8,.4-.4-.3-.8-.5-1.1-.8-1.1-1.1-2-2.3-2.9-3.6,.3,.4,.6,.7,.9,.9-1.2-1.8-2.1-3.8-2.8-5.9-.6-2.1-.9-4.3-.9-6.5,.3-4.1,1.9-8,4.4-11.2-1.5,1.6-2.7,3.6-3.5,5.8,.9-3,2.5-5.8,4.7-8,2.2-2.3,4.9-4,7.9-4.9-.9,.7-2.2,1.5-2.6,2.2,.1,.1,1.8-.6,.9,0-1.6,1.1-2.9,2.2-3.9,3.2-1,1-1.6,1.9-1.6,2.9,0,.2,.9-.3,1.7-.7,.8-.3,1.5-.5,1.1,0-.7,.8-1.8,2.2-2.7,3.9-.3,.5-.6,1-.8,1.5,0,0,0,.2,0,.4-.7,2-1,3.9-1.1,5,0,.4,0,.8,0,1.2,0,.2-.1,.4-.2,.6,0,.3,.2,.5,.2,.8,0,1.1,.2,2.2,.5,3.2,0,.6,.2,1.2,.4,1.8,0,0,.1-.2,.2,0,.5,1.3,1.2,2.4,2,3.5,.3,.5,.5,1,.7,1.4,.8,.3,1.7,1.1,2.8,1.9,1.1,.8,2.3,1.5,3.5,1.9h0c1.1,.4,2.3,.7,3.5,.9,.2,0,.4,.2,.5,.3,.3,0,.6,0,.8,0,1,.1,1.8,.3,2.7,.3,.1,0,.4-.3,.7-.4,.6,0,1.3-.2,1.8-.4,.7-.2,1.4-.4,2.1-.6,2.3-.8,4.5-2.1,6.3-3.8,.1,0,.2,0,.3,.1,.2-.4,.6-.7,.8-1,0,0,0,.1,0,.2,.3-.5,.5-.8,.7-1,.2-.2,.5-.5,.8-.9,.1-.2,.1-.4,.2-.7,0,0,.1-.2,.2-.3,1-.8,1.3-2,1.7-3.3,.5-1.2,.8-2.6,1-3.9,.1-1.1,.4-1.5,.5-2.3"/><path class="g" d="M147.3,184.9c1,.7,2,1.3,3.1,1.7-1.2-.4-2.3-.8-3.1-1.7"/><path class="g" d="M145.2,158.4c.5-.1,.9-.3,1.4-.6-2.3,1.6-4.1,3.8-5.2,6.4h0c.4-1.1,1.2-2.2,1.9-3.2,.8-1,1.6-1.9,1.9-2.6"/><path class="g" d="M144.8,182.9c0,0,.1,0,.2,0h0c0,0-.1,0-.2,0"/><path class="g" d="M148.4,151.9h.3c-.8,.2-1.6,.6-2.3,1.1,.6-.4,1.3-.8,2-1.1"/><path class="g" d="M157.5,150.8c1.7,.1,3.5,.5,5.1,1.1,2.1,.9,4,2.1,5.4,3.6-2.9-2.5-6.6-4.2-10.5-4.7"/><path class="g" d="M149.9,155.8c.6-.1,1.2-.2,1.7-.3-.6,.1-1.1,.3-1.6,.5,0-.1,0-.2,0-.2"/><path class="g" d="M142.4,155.9l.4-.4c-.3,.3-.6,.7-.8,1.1,0-.1,.3-.5,.5-.7"/><path class="g" d="M156,155.2c-.4,0-.8,0-1.3,0,.2,0,.5-.1,.7-.2,.1,.1,.3,.2,.5,.2"/><path class="g" d="M162.2,156.6c.5,.3,1,.5,1.4,.8-.6-.3-1.2-.6-1.8-.9,.2,0,.3,0,.4,0"/></g><g><path class="f" d="M241.7,181c-.6-.8-1.4-1.3-2.5-1.7-1-.4-2-.6-3-.6s-1.1,0-1.7,.2c-.6,.1-1.1,.3-1.6,.6-.5,.3-.9,.6-1.2,1.1-.3,.4-.5,1-.5,1.6,0,1,.4,1.8,1.2,2.4,.8,.5,1.7,1,2.9,1.4,1.2,.4,2.4,.8,3.8,1.2,1.3,.4,2.6,.9,3.8,1.6,1.2,.7,2.1,1.7,2.9,2.8,.8,1.2,1.2,2.8,1.2,4.8s-.4,3.5-1.1,5c-.7,1.4-1.7,2.6-2.9,3.5-1.2,.9-2.6,1.6-4.2,2.1-1.6,.4-3.3,.7-5,.7s-4.3-.3-6.2-1c-1.9-.7-3.7-1.8-5.3-3.3l5.3-5.9c.8,1,1.7,1.8,2.9,2.4,1.2,.6,2.4,.8,3.6,.8s1.2,0,1.9-.2c.6-.1,1.2-.4,1.7-.6s.9-.7,1.2-1.1c.3-.4,.5-1,.5-1.6,0-1-.4-1.8-1.2-2.4-.8-.6-1.8-1.1-3-1.5-1.2-.4-2.5-.8-3.8-1.2-1.4-.4-2.7-1-3.8-1.7-1.2-.7-2.2-1.6-3-2.8-.8-1.2-1.2-2.7-1.2-4.6s.4-3.4,1.1-4.8c.7-1.4,1.7-2.5,2.9-3.5,1.2-.9,2.6-1.6,4.2-2.1,1.6-.5,3.2-.7,4.9-.7s3.8,.3,5.6,.8c1.8,.5,3.4,1.5,4.9,2.7l-5.1,5.6Z"/><path class="f" d="M267.4,190.9c-.4-.5-.8-.9-1.5-1.3-.6-.3-1.3-.5-2.1-.5-1.8,0-3.2,.5-4.3,1.6-1,1.1-1.5,2.5-1.5,4.3s.5,3.2,1.5,4.3c1,1.1,2.4,1.6,4.3,1.6s1.5-.2,2.1-.5c.6-.4,1.1-.8,1.5-1.2l4.8,5c-1.1,1.2-2.4,2-4,2.4-1.5,.5-3,.7-4.3,.7s-3.5-.3-5.1-.9c-1.6-.6-3-1.4-4.1-2.5-1.2-1.1-2.1-2.4-2.8-3.9-.7-1.5-1-3.2-1-5s.3-3.5,1-5c.7-1.5,1.6-2.8,2.8-3.9,1.2-1.1,2.5-1.9,4.1-2.5,1.6-.6,3.3-.9,5.1-.9s2.8,.2,4.3,.7c1.5,.5,2.8,1.3,4,2.4l-4.8,5Z"/><path class="f" d="M274.7,183.4h7.2v3.7h0c.8-1.4,1.7-2.5,2.7-3.2s2.4-1.1,4-1.1,.8,0,1.2,0c.4,0,.8,0,1.2,.2v6.6c-.5-.2-1-.3-1.5-.4-.5,0-1-.1-1.6-.1-1.4,0-2.5,.2-3.3,.6-.8,.4-1.4,.9-1.9,1.6-.4,.7-.7,1.5-.8,2.5-.1,1-.2,2-.2,3.2v9.8h-7.2v-23.4Z"/><path class="f" d="M316.8,206.7h-6.9v-3.2h0c-.3,.4-.6,.9-1,1.3-.4,.4-.9,.8-1.5,1.2-.6,.4-1.2,.6-2,.9-.7,.2-1.5,.3-2.4,.3-1.8,0-3.3-.3-4.4-.8-1.1-.6-2-1.3-2.6-2.3-.6-1-1-2.2-1.2-3.5-.2-1.3-.3-2.8-.3-4.4v-12.9h7.2v11.4c0,.7,0,1.4,0,2.1,0,.7,.2,1.4,.4,2,.2,.6,.6,1.1,1.1,1.5s1.2,.6,2.1,.6,1.7-.2,2.3-.5c.6-.3,1-.8,1.3-1.3,.3-.6,.5-1.2,.6-1.9,0-.7,.1-1.4,.1-2.2v-11.6h7.2v23.4Z"/><path class="f" d="M321.9,183.4h6.9v3.2h0c.2-.4,.5-.9,1-1.3,.4-.4,.9-.8,1.5-1.2,.6-.4,1.2-.6,2-.9,.7-.2,1.5-.3,2.4-.3,1.6,0,3.1,.3,4.3,1,1.3,.7,2.2,1.7,2.9,3.2,.8-1.5,1.8-2.6,3-3.2,1.2-.6,2.6-1,4.4-1s2.9,.3,4,.8c1.1,.5,1.9,1.2,2.5,2.2,.6,.9,1.1,2,1.3,3.2,.3,1.2,.4,2.6,.4,4v13.8h-7.2v-13.6c0-1.1-.2-2-.7-2.8-.5-.8-1.3-1.2-2.5-1.2s-1.5,.1-2.1,.4c-.6,.3-1,.6-1.3,1.1s-.6,1-.7,1.7c-.1,.6-.2,1.3-.2,2v12.4h-7.2v-12.4c0-.4,0-.9,0-1.5,0-.6-.1-1.2-.3-1.7-.2-.5-.5-1-.9-1.4-.4-.4-1.1-.6-1.9-.6s-1.7,.2-2.3,.5-1,.8-1.3,1.3c-.3,.6-.5,1.2-.6,1.9,0,.7-.1,1.4-.1,2.2v11.6h-7.2v-23.4Z"/></g><g><path class="f" d="M367.8,207c-.9,0-1.6-.3-2.2-.9-.6-.6-.9-1.4-.9-2.2s.3-1.6,.9-2.2c.6-.6,1.4-.9,2.2-.9s1.6,.3,2.2,.9c.6,.6,.9,1.4,.9,2.2s-.3,1.6-.9,2.2c-.6,.6-1.4,.9-2.2,.9Z"/><path class="f" d="M376.7,195.3c0-1.7,.3-3.2,.9-4.7,.6-1.4,1.5-2.7,2.6-3.8,1.1-1.1,2.4-1.9,3.8-2.6,1.5-.6,3.1-.9,4.8-.9s3.3,.3,4.8,.9c1.5,.6,2.8,1.5,3.8,2.6,1.1,1.1,1.9,2.4,2.6,3.8,.6,1.4,.9,3,.9,4.7s-.3,3.2-.9,4.7c-.6,1.5-1.5,2.7-2.6,3.8-1.1,1.1-2.4,1.9-3.8,2.5-1.5,.6-3.1,.9-4.8,.9s-3.3-.3-4.8-.9c-1.5-.6-2.8-1.5-3.8-2.5-1.1-1.1-1.9-2.3-2.6-3.8-.6-1.5-.9-3-.9-4.7Zm4.6,0c0,1.2,.2,2.2,.5,3.2,.4,1,.8,1.8,1.5,2.5,.6,.7,1.4,1.2,2.4,1.6,.9,.4,2,.6,3.1,.6s2.2-.2,3.1-.6c.9-.4,1.7-.9,2.4-1.6,.6-.7,1.1-1.5,1.5-2.5,.4-1,.5-2,.5-3.2s-.2-2.2-.5-3.2c-.4-1-.8-1.8-1.5-2.5-.6-.7-1.4-1.2-2.4-1.6-.9-.4-2-.6-3.1-.6s-2.2,.2-3.1,.6c-.9,.4-1.7,.9-2.4,1.6-.6,.7-1.1,1.5-1.5,2.5-.4,1-.5,2-.5,3.2Z"/><path class="f" d="M406.3,183.9h4.3v3.5h0c.3-.6,.7-1.2,1.2-1.7,.5-.5,1-.9,1.6-1.3,.6-.4,1.2-.6,1.9-.8,.7-.2,1.4-.3,2.1-.3s1.3,0,1.9,.3l-.2,4.7c-.4,0-.7-.2-1.1-.2-.4,0-.7,0-1.1,0-2.1,0-3.7,.6-4.9,1.8-1.1,1.2-1.7,3-1.7,5.5v11.4h-4.3v-22.8Z"/></g><path class="f" d="M446.1,206.5c0,1.7-.3,3.3-.9,4.7-.6,1.4-1.4,2.7-2.5,3.7-1.1,1-2.4,1.9-3.9,2.4-1.5,.6-3.2,.9-5.1,.9s-4.2-.3-6-.9c-1.8-.6-3.5-1.7-5.2-3.2l2.9-3.7c1.1,1.2,2.3,2.1,3.7,2.8,1.3,.6,2.8,.9,4.5,.9s2.9-.2,4-.7c1.1-.5,1.9-1.1,2.5-1.8,.6-.7,1.1-1.6,1.3-2.5,.3-.9,.4-1.9,.4-2.9v-3.4h-.1c-.8,1.4-2,2.4-3.4,3.1-1.4,.7-2.9,1-4.5,1s-3.2-.3-4.6-.9c-1.4-.6-2.7-1.4-3.7-2.5-1-1-1.8-2.3-2.4-3.7-.6-1.4-.9-3-.9-4.6s.3-3.2,.8-4.7c.5-1.5,1.3-2.7,2.3-3.8,1-1.1,2.2-1.9,3.7-2.5,1.4-.6,3-.9,4.8-.9s3,.3,4.5,1c1.5,.7,2.6,1.6,3.4,2.8h0v-3.3h4.3v22.6Zm-11.8-19.1c-1.2,0-2.2,.2-3.1,.6-.9,.4-1.7,.9-2.4,1.6-.6,.7-1.1,1.5-1.5,2.5-.4,1-.5,2-.5,3.2,0,2.3,.7,4.2,2,5.6,1.3,1.4,3.2,2.1,5.5,2.1s4.1-.7,5.5-2.1c1.3-1.4,2-3.2,2-5.6s-.2-2.2-.5-3.2c-.4-1-.8-1.8-1.5-2.5-.6-.7-1.4-1.2-2.4-1.6-.9-.4-2-.6-3.1-.6Z"/><path class="f" d="M453.6,179.1h1.7l1.1,3.1,1.1-3.1h1.7v4.8h-1.3v-3.1h0l-1.1,3.1h-.8l-1.1-3.1h0v3.1h-1.3v-4.8Zm-3.7,1.1h-1.4v-1.1h4.1v1.1h-1.4v3.7h-1.3v-3.7Z"/></g></g></svg>