<?xml version="1.0" encoding="UTF-8" standalone="no"?>
<svg
   xmlns:dc="http://purl.org/dc/elements/1.1/"
   xmlns:cc="http://creativecommons.org/ns#"
   xmlns:rdf="http://www.w3.org/1999/02/22-rdf-syntax-ns#"
   xmlns:svg="http://www.w3.org/2000/svg"
   xmlns="http://www.w3.org/2000/svg"
   xmlns:sodipodi="http://sodipodi.sourceforge.net/DTD/sodipodi-0.dtd"
   xmlns:inkscape="http://www.inkscape.org/namespaces/inkscape"
   version="1.0"
   width="700"
   height="408"
   viewBox="0 0 525.00001 305.99999"
   preserveAspectRatio="xMidYMid meet"
   id="svg132"
   sodipodi:docname="fishbowl.svg"
   inkscape:version="1.0.1 (3bc2e813f5, 2020-09-07)">
  <defs
     id="defs136">
    <marker
       style="overflow:visible"
       id="Arrow1Mstart"
       refX="0"
       refY="0"
       orient="auto"
       inkscape:stockid="Arrow1Mstart"
       inkscape:isstock="true">
      <path
         transform="matrix(0.4,0,0,0.4,4,0)"
         style="fill:#000000;fill-opacity:1;fill-rule:evenodd;stroke:#000000;stroke-width:1pt;stroke-opacity:1"
         d="M 0,0 5,-5 -12.5,0 5,5 Z"
         id="path1048" />
    </marker>
    <marker
       style="overflow:visible"
       id="marker1581"
       refX="0"
       refY="0"
       orient="auto"
       inkscape:stockid="Arrow1Mend"
       inkscape:isstock="true">
      <path
         transform="matrix(-0.4,0,0,-0.4,-4,0)"
         style="fill:#000000;fill-opacity:1;fill-rule:evenodd;stroke:#000000;stroke-width:1pt;stroke-opacity:1"
         d="M 0,0 5,-5 -12.5,0 5,5 Z"
         id="path1579" />
    </marker>
    <marker
       style="overflow:visible"
       id="marker1493"
       refX="0"
       refY="0"
       orient="auto"
       inkscape:stockid="Arrow1Mend"
       inkscape:isstock="true"
       inkscape:collect="always">
      <path
         transform="matrix(-0.4,0,0,-0.4,-4,0)"
         style="fill:#000000;fill-opacity:1;fill-rule:evenodd;stroke:#000000;stroke-width:1pt;stroke-opacity:1"
         d="M 0,0 5,-5 -12.5,0 5,5 Z"
         id="path1491" />
    </marker>
    <marker
       style="overflow:visible"
       id="marker1457"
       refX="0"
       refY="0"
       orient="auto"
       inkscape:stockid="Arrow1Mend"
       inkscape:isstock="true"
       inkscape:collect="always">
      <path
         transform="matrix(-0.4,0,0,-0.4,-4,0)"
         style="fill:#000000;fill-opacity:1;fill-rule:evenodd;stroke:#000000;stroke-width:1pt;stroke-opacity:1"
         d="M 0,0 5,-5 -12.5,0 5,5 Z"
         id="path1455" />
    </marker>
    <marker
       style="overflow:visible"
       id="Arrow1Mend"
       refX="0"
       refY="0"
       orient="auto"
       inkscape:stockid="Arrow1Mend"
       inkscape:isstock="true"
       inkscape:collect="always">
      <path
         transform="matrix(-0.4,0,0,-0.4,-4,0)"
         style="fill:#000000;fill-opacity:1;fill-rule:evenodd;stroke:#000000;stroke-width:1pt;stroke-opacity:1"
         d="M 0,0 5,-5 -12.5,0 5,5 Z"
         id="path1051" />
    </marker>
    <marker
       style="overflow:visible"
       id="Arrow1Lend"
       refX="0"
       refY="0"
       orient="auto"
       inkscape:stockid="Arrow1Lend"
       inkscape:isstock="true">
      <path
         transform="matrix(-0.8,0,0,-0.8,-10,0)"
         style="fill:#000000;fill-opacity:1;fill-rule:evenodd;stroke:#000000;stroke-width:1pt;stroke-opacity:1"
         d="M 0,0 5,-5 -12.5,0 5,5 Z"
         id="path1045" />
    </marker>
  </defs>
  <sodipodi:namedview
     pagecolor="#ffffff"
     bordercolor="#666666"
     borderopacity="1"
     objecttolerance="10"
     gridtolerance="10"
     guidetolerance="10"
     inkscape:pageopacity="0"
     inkscape:pageshadow="2"
     inkscape:window-width="1858"
     inkscape:window-height="1057"
     id="namedview134"
     showgrid="false"
     inkscape:zoom="0.34625"
     inkscape:cx="-94.864697"
     inkscape:cy="575.81683"
     inkscape:window-x="54"
     inkscape:window-y="-8"
     inkscape:window-maximized="1"
     inkscape:current-layer="layer3"
     units="px" />
  <metadata
     id="metadata2">
Created by potrace 1.10, written by Peter Selinger 2001-2011
<rdf:RDF>
  <cc:Work
     rdf:about="">
    <dc:format>image/svg+xml</dc:format>
    <dc:type
       rdf:resource="http://purl.org/dc/dcmitype/StillImage" />
    <dc:title></dc:title>
  </cc:Work>
</rdf:RDF>
</metadata>
  <g
     inkscape:groupmode="layer"
     id="layer1"
     inkscape:label="chair colors"
     style="display:inline">
    <path
       style="fill:#d0cdbc;fill-opacity:1;stroke:#640087;stroke-width:0.275633"
       d="m 199.0282,44.60373 c -0.15248,-0.556422 -0.42638,-1.681802 -0.60864,-2.500845 -0.27245,-1.224243 -0.62351,-1.48917 -1.97328,-1.48917 -2.4116,0 -3.32853,-2.549705 -3.60269,-10.01805 -0.19218,-5.235459 -0.0888,-6.162443 0.85397,-7.656111 1.40289,-2.222691 6.37318,-4.574276 10.32532,-4.885197 3.95625,-0.311246 6.25823,1.010851 10.44987,6.001687 5.15249,6.134858 5.33496,9.286734 0.75245,12.996993 -3.31992,2.687999 -5.56923,3.685242 -7.40349,3.282372 -1.51637,-0.333049 -1.56687,-0.28204 -1.25663,1.269195 0.26717,1.335821 0.0771,1.777512 -1.096,2.546115 -0.78059,0.511458 -2.48673,1.050246 -3.79145,1.197305 -1.98817,0.224097 -2.41707,0.103605 -2.64943,-0.744294 z"
       id="path962" />
    <path
       style="fill:#d0cdbc;fill-opacity:1;stroke:#640087;stroke-width:0.275633"
       d="m 244.41653,29.059498 c -1.15126,-1.757053 -2.08522,-11.665782 -1.4301,-15.172495 0.25509,-1.365416 0.85842,-3.084834 1.34073,-3.820931 1.25261,-1.91172 5.2433,-4.514952 8.08743,-5.275641 2.07284,-0.5544 2.79792,-0.512061 4.88576,0.285296 3.81118,1.455504 7.15206,4.725687 8.52472,8.344353 1.42221,3.749301 1.82762,12.834477 0.60665,13.595277 -0.3962,0.246882 -2.71119,0.607746 -5.1444,0.801921 -2.43321,0.194175 -6.1298,0.731871 -8.21463,1.194879 -7.20062,1.599139 -7.63781,1.60153 -8.65616,0.04734 z"
       id="path964" />
    <path
       style="fill:#d0cdbc;fill-opacity:1;stroke:#640087;stroke-width:0.275633"
       d="m 302.56612,34.409304 c -3.24009,-2.343365 -4.83224,-3.060405 -7.90638,-3.560733 -1.65345,-0.269108 -3.61269,-0.886625 -4.35387,-1.372262 -1.21596,-0.796723 -1.3223,-1.155463 -1.0886,-3.672424 0.29808,-3.210371 1.85744,-7.504445 4.20848,-11.589087 1.38384,-2.404254 1.87972,-2.842961 3.21345,-2.842961 1.07151,0 1.68135,-0.328456 1.90228,-1.024564 0.78024,-2.458314 9.63191,-2.276481 10.58006,0.217338 0.25228,0.663583 1.14703,1.744378 1.98832,2.401765 2.69943,2.109366 3.96057,4.801299 3.96366,8.460606 0.003,3.482336 -1.14594,8.162714 -2.62533,10.695255 -2.09295,3.582873 -6.63648,4.634408 -9.88207,2.287067 z"
       id="path966" />
    <path
       style="fill:#d0cdbc;fill-opacity:1;stroke:#640087;stroke-width:0.275633"
       d="m 337.8308,50.37192 c -3.57922,-3.608208 -4.65457,-4.380072 -6.51714,-4.677909 -1.22685,-0.196181 -2.60481,-0.730865 -3.06213,-1.188186 -1.90761,-1.90761 0.99012,-8.148219 6.35628,-13.68906 3.45299,-3.56537 5.64797,-4.317909 9.35646,-3.207804 3.22935,0.966684 7.80804,4.171672 9.40311,6.582003 2.86224,4.325136 0.81539,10.815336 -5.54943,17.596216 -3.85402,4.105956 -4.61763,3.997748 -9.98715,-1.41526 z"
       id="path1001" />
    <path
       style="fill:#d0cdbc;fill-opacity:1;stroke:#640087;stroke-width:0.275633"
       d="m 370.82311,84.030165 c -2.49878,-1.587405 -5.31734,-4.947111 -9.10344,-10.85124 -1.9931,-3.108057 -2.14238,-3.573854 -1.52376,-4.754513 0.94071,-1.795407 5.87112,-5.753179 9.82186,-7.884276 2.81472,-1.518304 3.81339,-1.766167 7.15239,-1.775167 3.36545,-0.009 4.06595,0.163212 5.27426,1.297146 3.28393,3.081807 4.56226,11.075914 2.49829,15.623173 -1.97301,4.346841 -8.12416,9.874275 -10.98849,9.874275 -0.39801,0 -1.80702,-0.68823 -3.13111,-1.529398 z"
       id="path1003" />
    <path
       style="fill:#d0cdbc;fill-opacity:1;stroke:#640087;stroke-width:0.275633"
       d="m 387.17612,130.74215 c -2.26854,-1.63576 -2.90148,-4.21759 -3.1777,-12.96237 -0.31103,-9.84669 -0.31065,-9.84747 5.20756,-10.89089 2.15703,-0.40787 4.43285,-1.09949 5.05739,-1.53693 1.045,-0.73195 1.56138,-0.5766 6.47802,1.9489 3.79443,1.94907 5.5731,3.19019 6.13833,4.28325 1.53877,2.97565 0.69139,10.31984 -1.38479,12.00183 -0.78787,0.63829 -1.04227,1.27525 -0.80629,2.01876 0.43375,1.36661 -1.81556,2.84935 -6.57761,4.33596 -5.15082,1.60797 -9.38593,1.91839 -10.93491,0.80149 z"
       id="path1005" />
    <path
       style="fill:#d0cdbc;fill-opacity:1;stroke:#640087;stroke-width:0.275633"
       d="m 390.25825,172.70667 c -0.79343,-0.31004 -1.60134,-0.97683 -1.79538,-1.48176 -0.65384,-1.7015 -0.31122,-18.57902 0.40773,-20.08526 0.58515,-1.22592 1.05855,-1.4323 3.61902,-1.57782 6.39519,-0.36342 15.10438,3.14679 16.58205,6.68333 0.95494,2.2855 1.00476,9.77553 0.0772,11.60862 -0.82461,1.62963 -3.64022,3.59187 -6.28325,4.37887 -2.8029,0.83463 -10.90498,1.13925 -12.60738,0.47402 z"
       id="path1007" />
    <path
       style="fill:#d0cdbc;fill-opacity:1;stroke:#640087;stroke-width:0.275633"
       d="m 385.4375,222.08191 c -3.86304,-1.23613 -6.20545,-2.62989 -7.03968,-4.18864 -2.46333,-4.60278 5.18132,-21.32288 9.7491,-21.32288 1.61463,0 2.80952,0.76662 8.57985,5.50466 2.75165,2.25937 4.02918,3.75775 4.8479,5.68591 2.44837,5.76617 2.05849,8.76306 -1.53318,11.78526 -4.35771,3.66677 -8.70851,4.4222 -14.60399,2.53569 z"
       id="path1009" />
    <path
       style="fill:#d0cdbc;fill-opacity:1;stroke:#640087;stroke-width:0.275633"
       d="m 356.64208,263.29083 c -4.15055,-1.66863 -8.04326,-4.27781 -9.34403,-6.26303 -0.82081,-1.25271 -0.81747,-1.47894 0.0466,-3.15079 1.77779,-3.4395 12.738,-17.23442 13.69293,-17.23442 0.24743,0 2.65856,2.28311 5.35808,5.07357 7.65013,7.90787 8.9511,11.53284 6.11652,17.04291 -3.05954,5.94737 -8.49107,7.49835 -15.87018,4.53176 z"
       id="path1011" />
    <path
       style="fill:#d0cdbc;fill-opacity:1;stroke:#640087;stroke-width:0.275633"
       d="m 310.38029,292.25892 c -3.56029,-1.88157 -6.81234,-5.05518 -6.42634,-6.27134 0.2103,-0.66262 -0.16521,-1.61032 -1.0589,-2.67241 -2.14825,-2.55305 -2.64757,-4.51308 -1.71706,-6.7401 1.45317,-3.47793 7.69429,-7.02107 12.53631,-7.11696 2.40655,-0.0477 2.73598,-0.19628 2.89317,-1.3053 0.37486,-2.64492 3.3375,-1.76646 6.73851,1.99804 2.46789,2.73167 3.30607,5.72325 2.80738,10.01997 -0.69283,5.96952 -2.86128,10.1333 -6.40153,12.29204 -2.33466,1.4236 -6.46185,1.33378 -9.37154,-0.20394 z"
       id="path1013" />
    <path
       style="fill:#d0cdbc;fill-opacity:1;stroke:#640087;stroke-width:0.275633"
       d="m 253.24232,300.04 c -1.39587,-0.54579 -3.35743,-1.49883 -4.35901,-2.11785 -1.73325,-1.07119 -1.85616,-1.36221 -2.54831,-6.03366 -0.7441,-5.0221 -0.52201,-11.07885 0.47454,-12.94092 0.85784,-1.60287 1.9794,-1.84381 9.7967,-2.10463 8.86872,-0.29589 10.89624,0.28362 12.27195,3.5076 1.10164,2.58169 1.242,9.95266 0.24357,12.79158 -2.27892,6.47983 -9.22826,9.49857 -15.87944,6.89788 z"
       id="path1015" />
    <path
       style="fill:#d0cdbc;fill-opacity:1;stroke:#640087;stroke-width:0.275633"
       d="m 196.48997,285.4293 c -7.48179,-2.65439 -9.58566,-10.42754 -5.32446,-19.67231 1.9074,-4.13818 4.1183,-6.37093 6.30792,-6.37029 3.31766,9.9e-4 13.32026,5.93499 16.25921,9.64572 2.87481,3.62973 3.39066,6.59934 1.1464,6.59934 -1.03855,0 -2.1753,1.28003 -5.01597,5.64821 -2.95945,4.55085 -7.91097,6.08718 -13.3731,4.14933 z"
       id="path1017" />
    <path
       style="fill:#d0cdbc;fill-opacity:1;stroke:#640087;stroke-width:0.275633"
       d="m 159.86647,250.4565 c -4.01204,-0.87267 -5.35305,-1.64342 -6.74462,-3.87648 -1.30237,-2.08994 -3.20802,-7.51245 -3.20802,-9.12843 0,-1.77404 2.42114,-5.04336 7.81239,-10.54932 l 4.83404,-4.93691 4.56613,4.49567 c 5.68586,5.59807 7.69719,8.27983 7.69719,10.26282 0,1.14874 0.25994,1.5433 1.01673,1.5433 0.5592,0 1.30467,0.34695 1.6566,0.771 1.50135,1.80902 -4.46805,8.96031 -9.31669,11.16132 -2.65695,1.20611 -3.78941,1.24112 -8.31375,0.25703 z"
       id="path1019" />
    <path
       style="fill:#d0cdbc;fill-opacity:1;stroke:#640087;stroke-width:0.275633"
       d="m 131.68654,204.7161 c -2.75928,-0.65747 -5.19956,-2.34936 -6.92076,-4.79834 -3.25439,-4.63042 -2.29919,-11.93556 2.04043,-15.6048 2.20203,-1.86187 8.81583,-5.01684 11.39387,-5.43519 1.50684,-0.24453 2.27035,-0.075 3.13993,0.6974 1.29005,1.14579 3.29018,5.3388 4.25385,8.9176 0.35153,1.30547 1.22364,3.52704 1.93803,4.93683 0.71441,1.40981 1.29891,3.14772 1.29891,3.86204 0,3.04459 -3.99001,5.8431 -10.21084,7.16163 -3.95994,0.83934 -4.43787,0.85744 -6.93342,0.26283 z"
       id="path1021" />
    <path
       style="fill:#d0cdbc;fill-opacity:1;stroke:#640087;stroke-width:0.275633"
       d="m 122.93692,160.35975 c -4.62908,-1.62732 -8.14817,-5.7186 -9.04896,-10.52031 -1.2624,-6.72915 4.36101,-11.9898 13.56028,-12.68555 5.85906,-0.44311 7.76163,0.0603 8.69804,2.30139 0.80286,1.92153 1.09435,12.584 0.43426,15.88449 -0.65292,3.26459 -3.01392,4.78953 -8.86887,5.72832 -1.18411,0.18987 -2.97579,-0.0759 -4.77475,-0.70834 z"
       id="path1023" />
    <path
       style="fill:#d0cdbc;fill-opacity:1;stroke:#640087;stroke-width:0.275633"
       d="m 135.2929,114.63255 c -1.63809,-0.67441 -4.73142,-2.36068 -6.87407,-3.74726 -3.35485,-2.17102 -3.94656,-2.79191 -4.26174,-4.47195 -0.66609,-3.55057 0.003,-7.62157 1.70183,-10.352784 4.31245,-6.933643 10.13305,-8.050174 17.84091,-3.422314 3.87433,2.326183 5.72793,4.687707 6.07141,7.735138 0.23381,2.07424 0.0692,2.55257 -1.39467,4.04996 -1.00831,1.03149 -1.78486,2.49809 -1.9785,3.73657 -0.70726,4.52388 -1.37893,6.08309 -2.97633,6.90914 -2.18871,1.13182 -4.63918,1.00023 -8.12884,-0.4365 z"
       id="path1025" />
    <path
       style="fill:#d0cdbc;fill-opacity:1;stroke:#640087;stroke-width:0.275633"
       d="m 161.55644,76.435006 c -2.24898,-1.381275 -5.92746,-5.49304 -7.272,-8.128555 -0.7312,-1.433271 -1.1215,-3.232983 -1.1215,-5.171331 0,-2.224667 -0.22967,-3.101532 -0.91244,-3.483624 -0.85222,-0.476928 -0.85296,-0.601383 -0.0105,-1.886159 2.11086,-3.221569 9.11583,-6.953065 13.05267,-6.953065 2.95368,0 5.75877,1.396813 11.81979,5.885754 l 4.72505,3.499492 -4.4543,5.444864 c -2.44986,2.994675 -6.01254,6.873517 -7.91709,8.619651 -3.79872,3.482781 -5.16516,3.858205 -7.90903,2.172973 z"
       id="path1027" />
    <path
       style="fill:#ae7d80;fill-opacity:1;stroke:#640087;stroke-width:0.275633"
       d="m 291.52033,115.00004 c -2.97833,-2.21621 -6.69318,-5.25345 -8.25522,-6.74941 l -2.84007,-2.71994 0.88932,-1.72744 c 2.50902,-4.873645 7.17486,-8.44524 12.19099,-9.331936 4.90226,-0.866564 10.76969,2.697739 11.58371,7.036766 0.72037,3.83996 -2.06966,10.60076 -6.41414,15.54277 l -1.73943,1.97866 z"
       id="path1029" />
    <path
       style="fill:#ae7d80;fill-opacity:1;stroke:#640087;stroke-width:0.275633"
       d="m 230.05825,110.86746 c -1.77884,-0.87892 -6.4982,-10.07592 -6.4982,-12.663522 0,-5.097284 5.70371,-10.460657 11.13999,-10.475289 4.21218,-0.0114 9.51383,4.035883 11.54457,8.813028 1.77117,4.166523 1.81175,5.028063 0.32025,6.800603 -2.02608,2.40786 -12.28414,8.22708 -14.45854,8.20208 -0.38186,-0.004 -1.30349,-0.30899 -2.04807,-0.6769 z"
       id="path1031" />
    <path
       style="fill:#ae7d80;fill-opacity:1;stroke:#640087;stroke-width:0.275633"
       d="m 206.78384,159.88183 c -4.41562,-2.21848 -6.80049,-9.7999 -4.56478,-14.51128 0.47364,-0.99815 1.70515,-2.45855 2.7367,-3.24533 2.25836,-1.72254 7.41011,-3.88101 10.40673,-4.36018 2.04536,-0.32708 2.24672,-0.23676 3.29084,1.47577 0.6117,1.00329 1.96596,4.38329 3.00945,7.5111 1.8289,5.48205 2.31906,8.81292 1.48284,10.07687 -1.06241,1.60581 -8.53589,3.97741 -12.58196,3.9927 -1.04242,0.004 -2.74335,-0.41891 -3.77982,-0.93965 z"
       id="path1033" />
    <path
       style="fill:#ae7d80;fill-opacity:1;stroke:#640087;stroke-width:0.275633"
       d="m 288.27124,207.81918 c -3.80937,-1.35786 -9.60324,-6.42675 -10.94267,-9.57342 -0.71869,-1.68842 -0.69666,-1.96334 0.26055,-3.24909 0.57513,-0.77255 2.60021,-2.28521 4.50017,-3.36149 1.9741,-1.11826 3.82375,-2.62666 4.31617,-3.51985 1.17651,-2.13399 4.1036,-2.86872 7.18493,-1.80348 2.03824,0.70464 2.4688,1.19257 4.3513,4.93128 3.66851,7.28572 3.21677,12.95503 -1.27668,16.02222 -1.9635,1.34026 -5.52774,1.57543 -8.39377,0.55383 z"
       id="path1035" />
    <path
       style="fill:#77a9a5;fill-opacity:1;stroke:#640087;stroke-width:0.275633"
       d="m 233.17957,203.07091 c -4.14843,-1.24911 -8.53649,-5.99332 -8.53649,-9.22935 0,-3.03624 4.52567,-13.27944 6.64383,-15.03736 0.56334,-0.46754 2.54526,0.62263 8.81939,4.85116 4.45101,2.99982 8.43829,5.78138 8.86063,6.18125 0.6591,0.62403 0.564,1.02124 -0.67122,2.80366 -2.97325,4.29041 -6.92205,8.1935 -9.67978,9.56774 -3.02835,1.50909 -3.19989,1.53631 -5.43636,0.8629 z"
       id="path1037" />
  </g>
  <g
     inkscape:groupmode="layer"
     id="layer3"
     inkscape:label="text and arrows">
    <path
       style="fill:none;stroke:#000000;stroke-width:1.5px;stroke-linecap:butt;stroke-linejoin:miter;stroke-opacity:1;marker-end:url(#Arrow1Mend)"
       d="m 46.754993,63.227435 55.776177,33.03249"
       id="path1040" />
    <path
       style="fill:none;stroke:#000000;stroke-width:1.5px;stroke-linecap:butt;stroke-linejoin:miter;stroke-opacity:1;marker-end:url(#marker1457)"
       d="M 97.116005,232.1805 C 208.66836,199.68952 208.66836,199.68952 208.66836,199.68952"
       id="path1453" />
    <path
       style="fill:none;stroke:#000000;stroke-width:1.5px;stroke-linecap:butt;stroke-linejoin:miter;stroke-opacity:1;marker-end:url(#marker1493)"
       d="M 461.55644,125.5018 339.71528,147.70396"
       id="path1489" />
    <path
       style="fill:none;stroke:#000000;stroke-width:1.5px;stroke-linecap:butt;stroke-linejoin:miter;stroke-opacity:1;marker-start:url(#Arrow1Mstart);marker-end:url(#marker1581)"
       d="m 408.48784,180.19494 27.61734,26.5343 -48.19496,41.69676"
       id="path1531" />
    <text
       xml:space="preserve"
       style="font-size:20px;line-height:1.25;font-family:sans-serif;stroke-width:1.5"
       x="-5.2305679"
       y="124.41876"
       id="text1657"><tspan
         sodipodi:role="line"
         id="tspan1655"
         x="-5.2305679"
         y="124.41876"
         style="font-size:20px;stroke-width:1.5" /></text>
    <text
       xml:space="preserve"
       style="font-size:26px;line-height:1.25;font-family:sans-serif;stroke-width:1.5"
       x="444.22791"
       y="206.18771"
       id="text1661"><tspan
         sodipodi:role="line"
         id="tspan1659"
         x="444.22791"
         y="206.18771"
         style="stroke-width:1.5"></tspan></text>
    <text
       xml:space="preserve"
       style="font-size:16px;line-height:1.25;font-family:sans-serif;stroke-width:1.5"
       x="461.5564"
       y="120.08665"
       id="text1669"><tspan
         sodipodi:role="line"
         id="tspan1667"
         x="461.5564"
         y="120.08665"
         style="stroke-width:1.5">Empty</tspan><tspan
         sodipodi:role="line"
         x="461.5564"
         y="140.08664"
         style="stroke-width:1.5"
         id="tspan1671">Chair</tspan></text>
    <text
       xml:space="preserve"
       style="font-size:16px;line-height:1.25;font-family:sans-serif;stroke-width:1.5"
       x="438.27124"
       y="213.22745"
       id="text1675"><tspan
         sodipodi:role="line"
         id="tspan1673"
         x="438.27124"
         y="213.22745"
         style="stroke-width:1.5">Chairs</tspan></text>
    <text
       xml:space="preserve"
       style="font-size:16px;line-height:1.25;font-family:sans-serif;stroke-width:1.5"
       x="44.588928"
       y="246.25992"
       id="text1679"><tspan
         sodipodi:role="line"
         id="tspan1677"
         x="44.588928"
         y="246.25992"
         style="stroke-width:1.5">Moderator</tspan></text>
    <text
       xml:space="preserve"
       style="font-size:16px;line-height:1.25;font-family:sans-serif;stroke-width:1.5"
       x="-0.8984375"
       y="57.812267"
       id="text1683"><tspan
         sodipodi:role="line"
         id="tspan1681"
         x="-0.8984375"
         y="57.812267"
         style="stroke-width:1.5">Outer</tspan><tspan
         sodipodi:role="line"
         x="-0.8984375"
         y="77.812271"
         style="stroke-width:1.5"
         id="tspan1685">Circle</tspan></text>
    <text
       xml:space="preserve"
       style="font-style:italic;font-variant:normal;font-weight:normal;font-stretch:normal;font-size:16px;line-height:1.25;font-family:sans-serif;-inkscape-font-specification:'sans-serif Italic';stroke-width:1.5"
       x="228.16296"
       y="234.34656"
       id="text1689"><tspan
         sodipodi:role="line"
         id="tspan1687"
         x="228.16296"
         y="234.34656"
         style="font-style:italic;font-variant:normal;font-weight:normal;font-stretch:normal;font-family:sans-serif;-inkscape-font-specification:'sans-serif Italic';stroke-width:1.5">Fishbowl</tspan></text>
  </g>
  <g
     inkscape:groupmode="layer"
     id="layer2"
     inkscape:label="Chair outlines"
     style="display:inline">
    <g
       transform="matrix(0.2,0,0,-0.2,-37.721537,318)"
       fill="#000000"
       stroke="none"
       id="g130">
      <path
         d="m 1408,1560 c -29,-29 -30,-34 -24,-83 4,-28 9,-53 11,-55 4,-4 145,15 151,21 2,2 0,26 -5,53 -10,53 -46,94 -82,94 -11,0 -34,-14 -51,-30 z m 92,-8 c 16,-13 23,-31 26,-60 2,-40 1,-42 -24,-42 -15,0 -41,-4 -59,-9 -36,-10 -39,-7 -42,56 -1,33 3,45 21,57 29,21 51,20 78,-2 z"
         id="path4" />
      <path
         d="m 1674,1555 c -22,-9 -36,-26 -52,-64 l -21,-52 27,-10 c 61,-24 105,-39 116,-39 15,0 36,56 36,94 0,61 -50,95 -106,71 z m 61,-14 c -3,-2 3,-9 12,-16 21,-16 25,-42 12,-82 -11,-35 -43,-45 -68,-20 -6,6 -22,12 -34,12 -12,0 -23,7 -25,15 -4,23 27,92 38,85 6,-3 10,-1 10,5 0,5 13,9 30,8 16,-1 27,-4 25,-7 z"
         id="path6" />
      <path
         d="m 1156,1499 c -35,-27 -35,-76 0,-129 l 27,-40 26,17 c 15,10 43,29 64,43 20,14 37,30 37,36 0,6 -16,29 -36,52 -41,48 -75,55 -118,21 z m 105,-26 c 29,-33 30,-51 2,-72 -14,-12 -30,-18 -36,-14 -5,3 -7,1 -4,-4 4,-6 0,-14 -9,-17 -25,-10 -34,-7 -34,10 0,8 -4,13 -9,10 -12,-8 -21,18 -21,60 0,30 5,37 32,49 35,14 53,9 79,-22 z"
         id="path8" />
      <path
         d="m 1862,1463 c -7,-2 -25,-24 -41,-47 l -29,-42 61,-42 c 34,-23 65,-42 68,-42 14,0 59,82 59,108 0,52 -64,87 -118,65 z m 81,-28 c 31,-24 28,-57 -9,-100 -21,-24 -26,-26 -41,-14 -10,8 -22,20 -26,27 -4,6 -14,12 -22,12 -26,0 -27,21 -3,55 32,48 57,53 101,20 z"
         id="path10" />
      <path
         d="m 955,1335 c -39,-39 -34,-79 17,-126 24,-22 45,-39 48,-39 7,1 95,112 95,121 0,4 -17,21 -39,38 -48,38 -88,40 -121,6 z m 112,-21 33,-25 -37,-45 c -21,-24 -43,-44 -51,-44 -23,0 -64,49 -59,71 3,10 0,19 -5,19 -15,0 13,31 37,40 33,14 46,11 82,-16 z"
         id="path12" />
      <path
         d="m 2003,1288 c -21,-18 -39,-37 -40,-43 0,-5 21,-35 48,-65 l 48,-55 41,40 c 49,48 54,92 15,130 -33,34 -66,31 -112,-7 z m 106,-5 c 18,-36 16,-68 -9,-95 -37,-43 -58,-36 -104,34 -15,22 -14,25 7,43 43,38 90,46 106,18 z"
         id="path32" />
      <path
         d="m 1309,1151 c -16,-16 -29,-40 -29,-53 0,-18 27,-70 56,-106 1,-2 31,16 67,40 l 64,43 -23,37 c -27,42 -60,68 -87,68 -10,0 -32,-13 -48,-29 z m 110,-38 c 16,-35 15,-39 -25,-62 -48,-29 -59,-27 -78,14 -13,27 -14,39 -6,55 24,46 87,42 109,-7 z"
         id="path36" />
      <path
         d="m 815,1135 c -28,-27 -32,-70 -11,-101 13,-19 103,-62 110,-53 1,2 12,29 23,59 12,30 24,62 28,71 4,12 -5,20 -37,32 -60,23 -85,21 -113,-8 z m 103,-13 c 23,-15 30,-46 12,-57 -5,-3 -10,-15 -10,-25 0,-34 -31,-41 -72,-17 -21,11 -39,24 -39,29 -1,4 -2,14 -3,21 -3,22 16,55 38,65 23,10 38,7 74,-16 z"
         id="path38" />
      <path
         d="m 1594,1106 -44,-47 27,-23 c 16,-12 44,-35 64,-49 l 37,-28 31,43 c 50,68 34,131 -37,144 -30,6 -37,2 -78,-40 z m 111,-2 c 19,-19 14,-54 -13,-89 l -17,-23 -42,31 c -24,17 -43,35 -43,41 0,5 10,20 22,33 25,27 69,30 93,7 z"
         id="path40" />
      <path
         d="m 2101,1073 c -19,-4 -22,-9 -18,-32 3,-16 9,-51 13,-80 5,-41 10,-51 23,-47 9,2 33,7 53,10 71,12 100,85 53,131 -24,25 -60,30 -124,18 z m 102,-23 c 23,-11 27,-19 25,-47 -1,-18 -6,-33 -11,-33 -4,0 -6,-4 -2,-10 7,-12 -68,-35 -89,-27 -15,6 -19,23 -20,92 0,24 4,30 22,31 13,1 26,4 29,8 4,3 9,5 12,3 3,-1 18,-9 34,-17 z"
         id="path56" />
      <path
         d="m 1246,921 c -55,-19 -76,-42 -76,-83 0,-32 39,-78 65,-78 21,0 105,21 105,27 0,13 -34,139 -39,144 -3,4 -28,-1 -55,-10 z m 51,-59 c 18,-51 16,-60 -9,-68 -55,-19 -82,-9 -92,31 -9,35 6,57 46,71 39,13 38,14 55,-34 z"
         id="path62" />
      <path
         d="m 780,917 c -38,-19 -55,-61 -40,-98 16,-39 37,-49 99,-49 h 51 v 80 80 h -42 c -24,0 -54,-6 -68,-13 z m 95,-61 c 0,-58 -3,-64 -41,-72 -36,-7 -71,19 -78,58 -7,41 34,69 94,64 22,-2 24,-7 25,-50 z"
         id="path64" />
      <path
         d="m 1694,883 c -3,-21 -10,-56 -15,-78 -4,-22 -4,-44 0,-48 5,-5 33,-11 64,-14 50,-5 58,-3 81,20 50,50 21,130 -52,143 -20,3 -45,8 -54,10 -13,4 -18,-4 -24,-33 z m 87,7 c 64,-18 78,-91 24,-126 -18,-12 -37,-14 -73,-9 l -49,6 9,47 c 5,26 11,57 14,70 5,24 21,27 75,12 z"
         id="path66" />
      <path
         d="m 2100,780 v -80 h 45 c 51,0 99,20 109,45 13,34 6,72 -17,93 -18,17 -36,22 -80,22 h -57 z m 113,50 c 22,-11 27,-20 27,-50 0,-32 -4,-39 -29,-50 -16,-6 -42,-10 -57,-8 -26,3 -28,6 -27,48 1,77 1,76 31,75 15,-1 39,-7 55,-15 z"
         id="path68" />
      <path
         d="m 861,710 c -77,-30 -101,-82 -60,-134 14,-18 30,-26 51,-26 36,0 108,20 108,30 0,11 -38,118 -47,133 -7,11 -16,10 -52,-3 z m 46,-32 c 6,-13 10,-25 10,-28 0,-3 5,-15 12,-28 15,-29 -2,-48 -52,-57 -77,-15 -108,82 -37,117 46,23 55,22 67,-4 z"
         id="path70" />
      <path
         d="m 1313,690 c -28,-48 -29,-94 -3,-120 24,-24 82,-27 103,-5 19,19 60,85 56,89 -11,8 -127,76 -130,76 -2,0 -14,-18 -26,-40 z m 83,-21 45,-31 -24,-31 c -13,-18 -34,-33 -47,-35 -26,-4 -60,24 -60,51 0,17 29,77 38,77 2,0 24,-14 48,-31 z"
         id="path72" />
      <path
         d="m 1593,663 -63,-45 28,-38 c 43,-61 91,-76 130,-40 35,33 37,64 8,114 -14,25 -30,47 -34,49 -4,3 -35,-15 -69,-40 z m 96,-50 c 18,-61 -37,-90 -88,-47 -38,31 -39,51 -6,66 14,6 25,15 25,19 0,13 34,16 48,4 7,-6 16,-25 21,-42 z"
         id="path74" />
      <path
         d="m 2074,569 c -40,-80 -41,-77 35,-106 39,-15 46,-15 70,-2 69,39 59,114 -20,154 l -49,25 z m 82,26 c 8,-8 21,-18 28,-22 8,-5 16,-21 20,-38 5,-25 1,-33 -20,-49 -22,-15 -33,-17 -62,-10 -51,13 -57,30 -32,87 22,49 40,58 66,32 z"
         id="path78" />
      <path
         d="m 962,463 c -51,-48 -56,-90 -17,-128 37,-38 91,-28 142,27 l 22,24 -52,58 -53,59 z m 102,-55 c -3,-4 0,-8 5,-8 19,0 12,-22 -15,-47 -19,-17 -34,-23 -54,-19 -39,6 -46,11 -58,46 -10,27 -8,33 24,67 l 35,36 34,-33 c 19,-18 32,-37 29,-42 z"
         id="path82" />
      <path
         d="m 1937,373 c -25,-31 -43,-61 -40,-66 11,-19 87,-67 105,-67 11,0 33,13 49,29 41,42 38,75 -11,123 -23,21 -44,38 -49,38 -4,0 -28,-26 -54,-57 z m 123,-48 c 0,-37 -28,-65 -60,-61 -35,4 -80,31 -80,49 0,6 17,31 37,55 l 36,43 34,-33 c 18,-17 33,-41 33,-53 z"
         id="path102" />
      <path
         d="m 1152,308 c -64,-82 -42,-168 43,-168 34,0 62,24 89,77 l 16,31 -66,36 c -74,41 -69,40 -82,24 z m 82,-40 c 32,-20 50,-58 28,-58 -5,0 -14,-11 -20,-24 -12,-27 -46,-37 -79,-22 -36,15 -42,66 -12,114 15,24 34,22 83,-10 z"
         id="path124" />
      <path
         d="m 1725,253 c -33,-14 -61,-26 -63,-28 -1,-1 6,-23 17,-47 33,-77 90,-100 136,-53 15,14 25,36 25,53 0,39 -27,102 -43,101 -6,0 -39,-12 -72,-26 z m 79,-9 c 9,-8 17,-23 17,-32 6,-80 -48,-118 -101,-72 -13,11 -19,20 -15,20 5,0 4,5 -3,12 -21,21 -13,46 19,62 17,9 35,13 40,10 5,-3 9,0 9,5 0,16 16,13 34,-5 z"
         id="path126" />
      <path
         d="m 1400,171 c 0,-67 17,-95 65,-107 52,-13 95,39 95,117 v 39 h -42 c -24,0 -60,3 -80,6 l -38,7 z m 136,14 c 18,-71 -25,-120 -84,-96 -17,7 -31,16 -30,20 0,3 -1,11 -2,16 -7,27 -4,71 5,77 6,4 31,7 58,6 40,0 48,-4 53,-23 z"
         id="path128" />
    </g>
  </g>
</svg>
