<?xml version="1.0" encoding="UTF-8" standalone="no"?>
<svg
   xmlns:dc="http://purl.org/dc/elements/1.1/"
   xmlns:cc="http://creativecommons.org/ns#"
   xmlns:rdf="http://www.w3.org/1999/02/22-rdf-syntax-ns#"
   xmlns:svg="http://www.w3.org/2000/svg"
   xmlns="http://www.w3.org/2000/svg"
   xmlns:sodipodi="http://sodipodi.sourceforge.net/DTD/sodipodi-0.dtd"
   xmlns:inkscape="http://www.inkscape.org/namespaces/inkscape"
   version="1.0"
   width="288.000000pt"
   height="288.000000pt"
   viewBox="0 0 288.000000 288.000000"
   preserveAspectRatio="xMidYMid meet"
   id="svg34"
   sodipodi:docname="1-2-4-all.svg"
   inkscape:version="1.0.1 (3bc2e813f5, 2020-09-07)">
  <defs
     id="defs38" />
  <sodipodi:namedview
     pagecolor="#ffffff"
     bordercolor="#666666"
     borderopacity="1"
     objecttolerance="10"
     gridtolerance="10"
     guidetolerance="10"
     inkscape:pageopacity="0"
     inkscape:pageshadow="2"
     inkscape:window-width="1858"
     inkscape:window-height="1057"
     id="namedview36"
     showgrid="false"
     inkscape:zoom="1.1588542"
     inkscape:cx="217.12882"
     inkscape:cy="307.77786"
     inkscape:window-x="54"
     inkscape:window-y="-8"
     inkscape:window-maximized="1"
     inkscape:current-layer="g32" />
  <metadata
     id="metadata2">
Created by potrace 1.16, written by Peter Selinger 2001-2019
<rdf:RDF>
  <cc:Work
     rdf:about="">
    <dc:format>image/svg+xml</dc:format>
    <dc:type
       rdf:resource="http://purl.org/dc/dcmitype/StillImage" />
    <dc:title></dc:title>
  </cc:Work>
</rdf:RDF>
</metadata>
  <g
     transform="matrix(0.1,0,0,-0.1,0,288)"
     fill="#000000"
     stroke="none"
     id="g32">
    <path
       d="m 1349,1922 c -59,-53 -48,-161 21,-197 35,-18 96,-19 130,-2 32,16 70,73 70,104 0,39 -30,93 -61,108 -15,8 -51,15 -78,15 -41,0 -57,-5 -82,-28 z"
       id="path12" />
    <path
       d="m 1820,1840 c 0,-60 -2,-110 -4,-110 -16,0 -203,-53 -209,-60 -5,-4 33,-15 85,-24 51,-9 140,-25 198,-35 58,-10 107,-17 109,-15 6,6 -162,354 -171,354 -4,0 -8,-49 -8,-110 z"
       id="path14" />
    <path
       d="m 922,1745 c -106,-12 -195,-25 -198,-28 -3,-3 45,-22 107,-42 l 111,-37 -7,-112 c -8,-136 -10,-137 109,71 82,145 95,174 79,172 -5,-1 -95,-11 -201,-24 z"
       id="path16" />
    <path
       d="m 2072,1453 c -84,-41 -83,-176 2,-217 60,-28 117,-17 161,30 31,33 35,110 8,151 -33,50 -110,66 -171,36 z"
       id="path18" />
    <path
       d="m 695,1413 c -39,-10 -75,-44 -86,-83 -14,-48 -6,-81 29,-121 35,-39 101,-50 154,-25 99,47 85,196 -21,226 -38,10 -44,11 -76,3 z"
       id="path20" />
    <path
       d="m 2084,1026 c -94,-41 -101,-177 -10,-220 42,-20 76,-20 121,-2 44,19 67,55 67,110 0,53 -22,89 -67,110 -40,19 -70,20 -111,2 z"
       id="path22" />
    <path
       d="m 704,990 c -40,-16 -64,-59 -64,-112 0,-43 4,-54 34,-84 30,-30 40,-34 89,-34 45,0 61,5 86,26 89,74 38,215 -77,213 -26,0 -57,-4 -68,-9 z"
       id="path24" />
    <path
       d="m 1828,668 -115,-163 200,-3 c 110,-1 204,1 209,6 4,4 -39,28 -97,52 -58,24 -105,47 -105,52 0,4 7,54 15,110 9,55 14,103 11,105 -2,2 -55,-69 -118,-159 z"
       id="path26" />
    <path
       d="m 974,671 c -40,-18 -74,-67 -74,-105 0,-65 65,-126 135,-126 74,0 124,51 125,127 0,52 -36,98 -88,113 -48,13 -50,13 -98,-9 z"
       id="path28" />
    <path
       d="m 1384,560 c -12,-4 -31,-20 -42,-35 -61,-77 -17,-187 78,-195 62,-5 83,1 116,34 28,28 34,42 34,75 0,53 -22,97 -60,116 -31,16 -92,19 -126,5 z"
       id="path30" />
    <text
       xml:space="preserve"
       style="font-style:normal;font-weight:normal;font-size:300px;line-height:1.25;font-family:sans-serif;fill:#000000;fill-opacity:1;stroke:none;stroke-width:7.5"
       x="832.21344"
       y="-2184.2698"
       id="text865"
       transform="scale(1,-1)"><tspan
         sodipodi:role="line"
         id="tspan863"
         x="832.21344"
         y="-2184.2698"
         style="stroke-width:7.5">1-2-4-All</tspan></text>
  </g>
</svg>
