<?xml version="1.0" encoding="utf-8"?>
<!-- Svg Vector Icons : http://www.onlinewebfonts.com/icon -->
<!DOCTYPE svg PUBLIC "-//W3C//DTD SVG 1.1//EN" "http://www.w3.org/Graphics/SVG/1.1/DTD/svg11.dtd">
<svg version="1.1" xmlns="http://www.w3.org/2000/svg" xmlns:xlink="http://www.w3.org/1999/xlink" x="0px" y="0px" viewBox="0 0 1000 1000" enable-background="new 0 0 1000 1000" xml:space="preserve">
<metadata> Svg Vector Icons : http://www.onlinewebfonts.com/icon </metadata>
<g><g><g><polygon points="939.7,883.9 904.8,883.9 904.8,851.8 103.7,851.8 103.7,883.9 65.9,883.9 65.9,916 32.3,916 32.3,980.2 976.1,980.2 976.1,916 939.7,916 "/><polygon points="856,835 856,382.7 939.7,382.7 939.7,326.9 54.7,326.9 54.7,382.7 141.2,382.7 141.2,835 227.8,835 227.8,382.7 339.5,382.7 339.5,835 426,835 426,382.7 571.2,382.7 571.2,835 657.8,835 657.8,382.7 769.4,382.7 769.4,835 "/><polygon points="504.2,19.8 10,301.1 990,301.1 "/></g></g><g></g><g></g><g></g><g></g><g></g><g></g><g></g><g></g><g></g><g></g><g></g><g></g><g></g><g></g><g></g></g>
</svg>