<?xml version="1.0" encoding="utf-8"?>
<!-- Svg Vector Icons : http://www.onlinewebfonts.com/icon -->
<!DOCTYPE svg PUBLIC "-//W3C//DTD SVG 1.1//EN" "http://www.w3.org/Graphics/SVG/1.1/DTD/svg11.dtd">
<svg version="1.1" xmlns="http://www.w3.org/2000/svg" xmlns:xlink="http://www.w3.org/1999/xlink" x="0px" y="0px" viewBox="0 0 256 256" enable-background="new 0 0 256 256" xml:space="preserve">
<metadata> Svg Vector Icons : http://www.onlinewebfonts.com/icon </metadata>
<g><g><g><path fill="#000000" d="M29.9,10.8c-5.3,1.1-11,4-14.1,7.2c-3.8,3.7-5.5,7.7-5.8,13c-0.4,7.7,2.6,14.5,9.7,22c2.1,2.2,19.2,18.4,38.1,36l34.4,32l0.3,59.1c0.3,66,0,60.9,4.2,64.2c2.9,2.2,8.4,2.5,11.7,0.6c3.3-1.8,53.4-49.6,54.3-51.8c0.6-1.4,0.7-8.8,0.7-36.9l0.1-35.1L200.2,87c20.1-18.7,37.6-35.5,38.9-37.1c5.4-6.9,7.2-12,6.9-18.8c-0.4-10-8.1-17.7-20.1-20.3C220.2,9.6,35.4,9.6,29.9,10.8z M220.9,33.9c0.2,0.2-0.2,1.1-0.9,2c-0.7,0.9-18.3,17.7-39,37.4c-24.6,23.3-38.1,36.5-38.7,37.7c-0.9,1.9-0.9,5-0.9,36.3v34.3l-5.7,5.5c-3.2,3-9.1,8.7-13.2,12.6l-7.5,7l-0.3-47.3c-0.2-39.7-0.4-47.6-1.1-48.9c-0.4-0.9-17.3-17.2-37.4-36.3C37.6,37.6,34.9,35,34.9,34.3c0-0.3,0.8-0.6,1.8-0.7C39.8,33.2,220.5,33.5,220.9,33.9z"/></g></g></g>
</svg>