<?xml version="1.0" encoding="UTF-8" standalone="no"?>
<svg
   xmlns:dc="http://purl.org/dc/elements/1.1/"
   xmlns:cc="http://creativecommons.org/ns#"
   xmlns:rdf="http://www.w3.org/1999/02/22-rdf-syntax-ns#"
   xmlns:svg="http://www.w3.org/2000/svg"
   xmlns="http://www.w3.org/2000/svg"
   xmlns:xlink="http://www.w3.org/1999/xlink"
   xmlns:sodipodi="http://sodipodi.sourceforge.net/DTD/sodipodi-0.dtd"
   xmlns:inkscape="http://www.inkscape.org/namespaces/inkscape"
   width="433.18341"
   height="651.87085"
   version="1.1"
   id="svg52"
   sodipodi:docname="green tree.svg"
   inkscape:version="0.92.2 (5c3e80d, 2017-08-06)">
  <sodipodi:namedview
     pagecolor="#ffffff"
     bordercolor="#666666"
     borderopacity="1"
     objecttolerance="10"
     gridtolerance="10"
     guidetolerance="10"
     inkscape:pageopacity="0"
     inkscape:pageshadow="2"
     inkscape:window-width="1304"
     inkscape:window-height="745"
     id="namedview54"
     showgrid="false"
     inkscape:zoom="1.0239893"
     inkscape:cx="303.29361"
     inkscape:cy="244.58463"
     inkscape:window-x="54"
     inkscape:window-y="-8"
     inkscape:window-maximized="1"
     inkscape:current-layer="g3195" />
  <defs
     id="defs7">
    <linearGradient
       id="linearGradient3941">
      <stop
         stop-color="#000000"
         id="stop3943"
         offset="0" />
      <stop
         stop-color="#986601"
         offset="0.5"
         id="stop3989" />
      <stop
         stop-color="#000400"
         id="stop3945"
         offset="1" />
    </linearGradient>
    <linearGradient
       y2="-0.170613"
       x2="0.45141"
       y1="1.03664"
       x1="0.501581"
       id="linearGradient3233"
       xlink:href="#linearGradient3941" />
  </defs>
  <metadata
     id="metadata3270">image/svg+xml<rdf:RDF>
  <cc:Work
     rdf:about="">
    <dc:format>image/svg+xml</dc:format>
    <dc:type
       rdf:resource="http://purl.org/dc/dcmitype/StillImage" />
    <dc:title></dc:title>
  </cc:Work>
</rdf:RDF>
</metadata>
  <g
     id="g50">
    <title
       id="title10">Layer 1</title>
    <g
       id="layer1">
      <g
         id="g3195">
        <path
           id="path4001"
           d="m 414.6647,267.09821 a 74.143982,74.143929 0 1 1 -148.28796,0 74.143982,74.143929 0 1 1 148.28796,0 z"
           inkscape:connector-curvature="0"
           style="fill:#008000" />
        <path
           id="path3999"
           d="m 166.8557,256.8352 a 74.143982,74.143929 0 1 1 -148.287962,0 74.143982,74.143929 0 1 1 148.287962,0 z"
           inkscape:connector-curvature="0"
           style="fill:#008000" />
        <path
           d=""
           id="path3995"
           inkscape:connector-curvature="0"
           style="fill:#008000" />
        <path
           id="path3991"
           d=""
           inkscape:connector-curvature="0"
           style="fill:#008000" />
        <path
           d="m 427.7897,197.86839 a 74.143982,74.143929 0 1 1 -148.28793,0 74.143982,74.143929 0 1 1 148.28793,0 z"
           id="path2999"
           inkscape:connector-curvature="0"
           style="fill:#008000" />
        <path
           id="path2989"
           d="m 327.18369,322.9382 a 74.143982,74.143929 0 1 1 -148.28795,0 74.143982,74.143929 0 1 1 148.28795,0 z"
           inkscape:connector-curvature="0"
           style="fill:#008000" />
        <path
           d="m 352.8967,90.022491 a 74.143982,74.143929 0 1 1 -148.28795,0 74.143982,74.143929 0 1 1 148.28795,0 z"
           id="path2991"
           inkscape:connector-curvature="0"
           style="fill:#008000" />
        <path
           d="m 279.50171,75.043892 a 74.143982,74.143929 0 1 1 -148.28796,0 74.143982,74.143929 0 1 1 148.28796,0 z"
           id="path2987"
           inkscape:connector-curvature="0"
           style="fill:#008000" />
        <path
           id="path2993"
           d="m 409.8157,124.47319 a 74.143982,74.143929 0 1 1 -148.28796,0 74.143982,74.143929 0 1 1 148.28796,0 z"
           inkscape:connector-curvature="0"
           style="fill:#008000" />
        <path
           id="path2997"
           d="m 391.8417,278.75317 a 74.143982,74.143929 0 1 1 -148.28796,0 74.143982,74.143929 0 1 1 148.28796,0 z"
           inkscape:connector-curvature="0"
           style="fill:#008000" />
        <path
           id="path3967"
           d="m 387.09869,153.01379 a 74.143982,74.143929 0 1 1 -148.28794,0 74.143982,74.143929 0 1 1 148.28794,0 z"
           inkscape:connector-curvature="0"
           style="opacity:0.68999999;fill:#008000" />
        <path
           d="m 389.00671,241.4402 a 74.14399,74.143937 0 1 1 -148.28798,0 74.14399,74.143936 0 1 1 148.28798,0 z"
           id="path3971"
           inkscape:connector-curvature="0"
           style="fill:#008000" />
        <path
           id="path3020"
           d=""
           inkscape:connector-curvature="0"
           style="fill:#008000" />
        <path
           id="path3001"
           d="m 328.70969,122.12909 a 74.143985,74.143932 0 1 1 -148.28797,0 74.143985,74.143932 0 1 1 148.28797,0 z"
           inkscape:connector-curvature="0"
           style="fill:#008000" />
        <path
           id="path2985"
           d="m 354.39471,178.39619 a 74.143982,74.143929 0 1 1 -148.28794,0 74.143982,74.143929 0 1 1 148.28794,0 z"
           inkscape:connector-curvature="0"
           style="fill:#008000" />
        <path
           d="m 335.78268,155.57959 a 74.14399,74.143937 0 1 1 -148.28798,0 74.14399,74.143936 0 1 1 148.28798,0 z"
           id="path3979"
           inkscape:connector-curvature="0"
           style="opacity:0.72000002;fill:#008000" />
        <path
           d="m 355.42871,246.26419 a 74.143982,74.143929 0 1 1 -148.28796,0 74.143982,74.143929 0 1 1 148.28796,0 z"
           id="path2995"
           inkscape:connector-curvature="0"
           style="fill:#008000" />
        <path
           d=""
           id="path3016"
           inkscape:connector-curvature="0"
           style="fill:#008000" />
        <path
           id="path3026"
           d=""
           inkscape:connector-curvature="0"
           style="opacity:0.83999999;fill:#008000" />
        <path
           id="path3018"
           d=""
           inkscape:connector-curvature="0"
           style="opacity:0.76999996;fill:#008000" />
        <path
           d=""
           id="path3973"
           inkscape:connector-curvature="0"
           style="fill:#008000" />
        <path
           d=""
           id="path3022"
           inkscape:connector-curvature="0"
           style="fill:#008000" />
        <path
           d=""
           id="path3024"
           inkscape:connector-curvature="0"
           style="fill:#008000" />
        <path
           d="m 204.92569,278.7392 a 74.143988,74.143934 0 1 1 -148.287975,0 74.143987,74.143934 0 1 1 148.287975,0 z"
           id="path3969"
           inkscape:connector-curvature="0"
           style="fill:#008000" />
        <path
           d=""
           id="path3981"
           inkscape:connector-curvature="0"
           style="fill:#008000" />
        <path
           d="m 185.30669,143.71689 a 74.143982,74.143929 0 1 1 -148.287964,0 74.143982,74.143929 0 1 1 148.287964,0 z"
           id="path3975"
           inkscape:connector-curvature="0"
           style="fill:#008000" />
        <path
           d=""
           id="path3030"
           inkscape:connector-curvature="0"
           style="fill:#008000" />
        <path
           d=""
           id="path3028"
           inkscape:connector-curvature="0"
           style="opacity:0.86000001;fill:#008000" />
        <path
           id="path4375"
           d=""
           inkscape:connector-curvature="0"
           style="fill:#008000" />
        <path
           d=""
           id="path4373"
           inkscape:connector-curvature="0"
           style="fill:#008000" />
        <path
           d=""
           id="path4377"
           inkscape:connector-curvature="0"
           style="fill:#008000" />
        <path
           id="path3957"
           d=""
           inkscape:connector-curvature="0"
           style="opacity:0.87000002;fill:#008000" />
        <path
           d="m 265.87366,191.2253 a 74.143982,74.143929 0 1 1 -148.28795,0 74.143982,74.143929 0 1 1 148.28795,0 z"
           id="path3977"
           inkscape:connector-curvature="0"
           style="display:inline;fill:#008000" />
        <path
           d=""
           id="path3985"
           inkscape:connector-curvature="0"
           style="fill:#008000" />
        <path
           id="path3032"
           d=""
           inkscape:connector-curvature="0"
           style="opacity:0.61000001;fill:#008000" />
        <path
           d="M 74.294998,565.59241 C 113.198,546.9154 157.70902,533.73645 159.58902,505.82138 c 1.879,-27.91602 27.02298,-41.19098 44.30099,-54.982 25.20701,-20.117 22.49799,-56.264 12.58899,-86.62298 -0.63299,-1.93802 -9.57,-5.33701 -22.03698,-9.354 -2.56702,-0.827 -12.98102,6.01699 -15.80503,5.14498 -2.76898,-0.85501 11.03702,-8.14199 8.10102,-9.026 -29.73301,-8.95199 -75.056,-20.33398 -77.276,-24.39099 l 50.768,7.02701 -2.98401,-19.612 -19.466,-7.93701 16.24301,0.098 -5.922,-26.186 11.14099,25.09802 30.20301,-11.57001 -25.64902,17.672 9.11902,24.703 46.879,6.86499 2.36999,-27.51599 -52.24499,-60.963 22.30499,19.29601 10.142,-13.97202 -5.16699,20.56702 26.94799,21.021 3.22602,-34.05701 -9.78601,-9.04001 9.64599,1.23801 1.52402,-20.67098 4.694,17.50197 15.88898,-8.76897 -12.97599,14.15099 6.44199,29.5 20.436,-14.651 5.82001,-20.84999 1.099,16.42198 24.5,-18.09798 -47.978,48.37197 9.073,37.09301 37.39499,-25.46301 -2.021,-29.98898 10.76502,25.15198 52.00897,-36.534 c -0.81799,3.76102 -32.517,33.496 -54.99298,54.422 -2.452,2.28201 16.92398,8.401 14.54001,10.63201 -2.61603,2.44901 -19.28501,-6.694 -21.73801,-4.36999 -13.535,12.819 -23.935,23.215 -24.06799,25.59198 -1.93601,34.58401 -1.55002,83.13699 32.66897,93.49301 22.01401,6.66199 27.60102,6.37097 33.82401,34.841 6.22299,28.47 57.16501,54.96604 98.14603,72.50205 -35.909,-22.443 -88.77503,-15.74305 -106.44403,-58.34904 -17.66901,-42.60602 -21.39499,-30.56403 -37.35099,-31.52301 16.26398,18.75897 17.616,31.349 13.97199,49.31302 -3.64301,17.96399 -2.496,25.76599 13.16202,46.45398 15.65899,20.68805 17.37899,55.98401 23.79397,83.97705 -9.74499,-28.51001 -14.134,-66.62201 -34.815,-84.13501 C 283.922,547.8244 285.08002,535.99341 289.772,518.16742 c 4.693,-17.82602 -6.862,-27.69004 -22.25299,-42.44602 -1.68899,15.96997 -13.38901,36.49002 2.92099,53.043 16.31,16.552 16.13901,21.099 0.29599,41.04303 -15.84299,19.94397 -1.52298,53.62702 2.77503,81.16297 C 267.97,624.95642 244.284,595.67944 258.62701,572.49243 272.97,549.30542 262.547,544.64441 250.565,529.98242 c -11.983,-14.66303 -9.811,-34.39102 -10.00699,-52.76303 -11.074,13.37903 -22.02301,25.11401 -17.95102,42.68204 4.073,17.56799 1.54901,27.73498 -19.03399,45.26001 -20.58301,17.52496 -22.25501,48.21899 -30.41901,72.32897 3.651,-25.42401 1.80402,-56.35699 20.79602,-74.86499 18.992,-18.50799 21.94699,-31.591 13.509,-48.63299 -8.43701,-17.04202 3.67899,-26.08206 10.63098,-38.27103 -17.77298,-8.974 -33.64398,-3.83099 -48.18698,35.89002 -14.54202,39.72 -65.449,35.13199 -95.608013,53.98098 v 0 z"
           id="path3052"
           inkscape:connector-curvature="0"
           style="display:inline;fill:url(#linearGradient3233)" />
      </g>
    </g>
  </g>
</svg>
