<?xml version="1.0" encoding="UTF-8" standalone="no"?>
<svg
   xmlns:dc="http://purl.org/dc/elements/1.1/"
   xmlns:cc="http://creativecommons.org/ns#"
   xmlns:rdf="http://www.w3.org/1999/02/22-rdf-syntax-ns#"
   xmlns:svg="http://www.w3.org/2000/svg"
   xmlns="http://www.w3.org/2000/svg"
   xmlns:xlink="http://www.w3.org/1999/xlink"
   xmlns:sodipodi="http://sodipodi.sourceforge.net/DTD/sodipodi-0.dtd"
   xmlns:inkscape="http://www.inkscape.org/namespaces/inkscape"
   width="630"
   height="651.87085"
   version="1.1"
   id="svg52"
   sodipodi:docname="how_to_use_tree.svg"
   inkscape:version="1.0.1 (3bc2e813f5, 2020-09-07)">
  <sodipodi:namedview
     pagecolor="#ffffff"
     bordercolor="#666666"
     borderopacity="1"
     objecttolerance="10"
     gridtolerance="10"
     guidetolerance="10"
     inkscape:pageopacity="0"
     inkscape:pageshadow="2"
     inkscape:window-width="1842"
     inkscape:window-height="1051"
     id="namedview54"
     showgrid="false"
     inkscape:zoom="1.0239893"
     inkscape:cx="78.0524"
     inkscape:cy="121.49345"
     inkscape:window-x="69"
     inkscape:window-y="-9"
     inkscape:window-maximized="1"
     inkscape:current-layer="g3195"
     inkscape:document-rotation="0" />
  <defs
     id="defs7">
    <marker
       style="overflow:visible"
       id="marker1317"
       refX="0"
       refY="0"
       orient="auto"
       inkscape:stockid="Arrow1Lend"
       inkscape:isstock="true">
      <path
         transform="matrix(-0.8,0,0,-0.8,-10,0)"
         style="fill:#000000;fill-opacity:1;fill-rule:evenodd;stroke:#000000;stroke-width:1pt;stroke-opacity:1"
         d="M 0,0 5,-5 -12.5,0 5,5 Z"
         id="path1315" />
    </marker>
    <marker
       style="overflow:visible"
       id="marker1289"
       refX="0"
       refY="0"
       orient="auto"
       inkscape:stockid="Arrow1Lend"
       inkscape:isstock="true"
       inkscape:collect="always">
      <path
         transform="matrix(-0.8,0,0,-0.8,-10,0)"
         style="fill:#000000;fill-opacity:1;fill-rule:evenodd;stroke:#000000;stroke-width:1pt;stroke-opacity:1"
         d="M 0,0 5,-5 -12.5,0 5,5 Z"
         id="path1287" />
    </marker>
    <marker
       style="overflow:visible"
       id="Arrow1Lend"
       refX="0"
       refY="0"
       orient="auto"
       inkscape:stockid="Arrow1Lend"
       inkscape:isstock="true"
       inkscape:collect="always">
      <path
         transform="matrix(-0.8,0,0,-0.8,-10,0)"
         style="fill:#000000;fill-opacity:1;fill-rule:evenodd;stroke:#000000;stroke-width:1pt;stroke-opacity:1"
         d="M 0,0 5,-5 -12.5,0 5,5 Z"
         id="path1014" />
    </marker>
    <linearGradient
       id="linearGradient3941">
      <stop
         stop-color="#000000"
         id="stop3943"
         offset="0" />
      <stop
         stop-color="#986601"
         offset="0.5"
         id="stop3989" />
      <stop
         stop-color="#000400"
         id="stop3945"
         offset="1" />
    </linearGradient>
    <linearGradient
       y2="156.82445"
       x2="253.16299"
       y1="620.64484"
       x1="272.43845"
       id="linearGradient3233"
       xlink:href="#linearGradient3941"
       gradientTransform="matrix(0.93179033,0,0,1.0732028,195.31454,-0.88274163)"
       gradientUnits="userSpaceOnUse" />
  </defs>
  <metadata
     id="metadata3270">image/svg+xml<rdf:RDF>
  <cc:Work
     rdf:about="">
    <dc:format>image/svg+xml</dc:format>
    <dc:type
       rdf:resource="http://purl.org/dc/dcmitype/StillImage" />
    <dc:title></dc:title>
  </cc:Work>
</rdf:RDF>
</metadata>
  <g
     id="g50">
    <title
       id="title10">Layer 1</title>
    <g
       id="layer1">
      <g
         id="g3195">
        <path
           id="path4001"
           d="m 609.97924,266.21547 a 74.143982,74.143929 0 1 1 -148.28796,0 74.143982,74.143929 0 1 1 148.28796,0 z"
           inkscape:connector-curvature="0"
           style="fill:#008000" />
        <path
           id="path3999"
           d="m 362.17024,255.95246 a 74.143982,74.143929 0 1 1 -148.28796,0 74.143982,74.143929 0 1 1 148.28796,0 z"
           inkscape:connector-curvature="0"
           style="fill:#008000" />
        <path
           d=""
           id="path3995"
           inkscape:connector-curvature="0"
           style="fill:#008000" />
        <path
           id="path3991"
           d=""
           inkscape:connector-curvature="0"
           style="fill:#008000" />
        <path
           d="m 623.10424,196.98565 a 74.143982,74.143929 0 1 1 -148.28793,0 74.143982,74.143929 0 1 1 148.28793,0 z"
           id="path2999"
           inkscape:connector-curvature="0"
           style="fill:#008000" />
        <path
           id="path2989"
           d="m 522.49823,322.05546 a 74.143982,74.143929 0 1 1 -148.28795,0 74.143982,74.143929 0 1 1 148.28795,0 z"
           inkscape:connector-curvature="0"
           style="fill:#008000" />
        <path
           d="m 548.21124,89.139749 a 74.143982,74.143929 0 1 1 -148.28795,0 74.143982,74.143929 0 1 1 148.28795,0 z"
           id="path2991"
           inkscape:connector-curvature="0"
           style="fill:#008000" />
        <path
           d="m 474.81625,74.16115 a 74.143982,74.143929 0 1 1 -148.28796,0 74.143982,74.143929 0 1 1 148.28796,0 z"
           id="path2987"
           inkscape:connector-curvature="0"
           style="fill:#008000" />
        <path
           id="path2993"
           d="m 605.13024,123.59045 a 74.143982,74.143929 0 1 1 -148.28796,0 74.143982,74.143929 0 1 1 148.28796,0 z"
           inkscape:connector-curvature="0"
           style="fill:#008000" />
        <path
           id="path2997"
           d="m 587.15624,277.87043 a 74.143982,74.143929 0 1 1 -148.28796,0 74.143982,74.143929 0 1 1 148.28796,0 z"
           inkscape:connector-curvature="0"
           style="fill:#008000" />
        <path
           id="path3967"
           d="m 582.41323,152.13105 a 74.143982,74.143929 0 1 1 -148.28794,0 74.143982,74.143929 0 1 1 148.28794,0 z"
           inkscape:connector-curvature="0"
           style="opacity:0.69;fill:#008000" />
        <path
           d="m 584.32125,240.55746 a 74.14399,74.143937 0 1 1 -148.28798,0 74.14399,74.143936 0 1 1 148.28798,0 z"
           id="path3971"
           inkscape:connector-curvature="0"
           style="fill:#008000" />
        <path
           id="path3020"
           d=""
           inkscape:connector-curvature="0"
           style="fill:#008000" />
        <path
           id="path3001"
           d="m 524.02423,121.24635 a 74.143985,74.143932 0 1 1 -148.28797,0 74.143985,74.143932 0 1 1 148.28797,0 z"
           inkscape:connector-curvature="0"
           style="fill:#008000" />
        <path
           id="path2985"
           d="m 549.70925,177.51345 a 74.143982,74.143929 0 1 1 -148.28794,0 74.143982,74.143929 0 1 1 148.28794,0 z"
           inkscape:connector-curvature="0"
           style="fill:#008000" />
        <path
           d="m 531.09722,154.69685 a 74.14399,74.143937 0 1 1 -148.28798,0 74.14399,74.143936 0 1 1 148.28798,0 z"
           id="path3979"
           inkscape:connector-curvature="0"
           style="opacity:0.72;fill:#008000" />
        <path
           d="m 550.74325,245.38145 a 74.143982,74.143929 0 1 1 -148.28796,0 74.143982,74.143929 0 1 1 148.28796,0 z"
           id="path2995"
           inkscape:connector-curvature="0"
           style="fill:#008000" />
        <path
           d=""
           id="path3016"
           inkscape:connector-curvature="0"
           style="fill:#008000" />
        <path
           id="path3026"
           d=""
           inkscape:connector-curvature="0"
           style="opacity:0.84;fill:#008000" />
        <path
           id="path3018"
           d=""
           inkscape:connector-curvature="0"
           style="opacity:0.77;fill:#008000" />
        <path
           d=""
           id="path3973"
           inkscape:connector-curvature="0"
           style="fill:#008000" />
        <path
           d=""
           id="path3022"
           inkscape:connector-curvature="0"
           style="fill:#008000" />
        <path
           d=""
           id="path3024"
           inkscape:connector-curvature="0"
           style="fill:#008000" />
        <path
           d="m 400.24023,277.85646 a 74.143988,74.143934 0 1 1 -148.28797,0 74.143987,74.143934 0 1 1 148.28797,0 z"
           id="path3969"
           inkscape:connector-curvature="0"
           style="fill:#008000" />
        <path
           d=""
           id="path3981"
           inkscape:connector-curvature="0"
           style="fill:#008000" />
        <path
           d="m 380.62123,142.83415 a 74.143982,74.143929 0 1 1 -148.28796,0 74.143982,74.143929 0 1 1 148.28796,0 z"
           id="path3975"
           inkscape:connector-curvature="0"
           style="fill:#008000" />
        <path
           d=""
           id="path3030"
           inkscape:connector-curvature="0"
           style="fill:#008000" />
        <path
           d=""
           id="path3028"
           inkscape:connector-curvature="0"
           style="opacity:0.86;fill:#008000" />
        <path
           id="path4375"
           d=""
           inkscape:connector-curvature="0"
           style="fill:#008000" />
        <path
           d=""
           id="path4373"
           inkscape:connector-curvature="0"
           style="fill:#008000" />
        <path
           d=""
           id="path4377"
           inkscape:connector-curvature="0"
           style="fill:#008000" />
        <path
           id="path3957"
           d=""
           inkscape:connector-curvature="0"
           style="opacity:0.87;fill:#008000" />
        <path
           d="m 461.1882,190.34256 a 74.143982,74.143929 0 1 1 -148.28795,0 74.143982,74.143929 0 1 1 148.28795,0 z"
           id="path3977"
           inkscape:connector-curvature="0"
           style="display:inline;fill:#008000" />
        <path
           d=""
           id="path3985"
           inkscape:connector-curvature="0"
           style="fill:#008000" />
        <path
           id="path3032"
           d=""
           inkscape:connector-curvature="0"
           style="opacity:0.61;fill:#008000" />
        <path
           d="m 269.60954,564.70967 c 38.903,-18.67701 83.41402,-31.85596 85.29402,-59.77103 1.879,-27.91602 27.02298,-41.19098 44.30099,-54.982 25.20701,-20.117 22.49799,-56.264 12.58899,-86.62298 -0.63299,-1.93802 -9.57,-5.33701 -22.03698,-9.354 -2.56702,-0.827 -12.98102,6.01699 -15.80503,5.14498 -2.76898,-0.85501 11.03702,-8.14199 8.10102,-9.026 -29.73301,-8.95199 -75.056,-20.33398 -77.276,-24.39099 l 50.768,7.02701 -2.98401,-19.612 -19.466,-7.93701 16.24301,0.098 -5.922,-26.186 11.14099,25.09802 30.20301,-11.57001 -25.64902,17.672 9.11902,24.703 46.879,6.86499 2.36999,-27.51599 -52.24499,-60.963 22.30499,19.29601 10.142,-13.97202 -5.16699,20.56702 26.94799,21.021 3.22602,-34.05701 -9.78601,-9.04001 9.64599,1.23801 1.52402,-20.67098 4.694,17.50197 15.88898,-8.76897 -12.97599,14.15099 6.44199,29.5 20.436,-14.651 5.82001,-20.84999 1.099,16.42198 24.5,-18.09798 -47.978,48.37197 9.073,37.09301 37.39499,-25.46301 -2.021,-29.98898 10.76502,25.15198 52.00897,-36.534 c -0.81799,3.76102 -32.517,33.496 -54.99298,54.422 -2.452,2.28201 16.92398,8.401 14.54001,10.63201 -2.61603,2.44901 -19.28501,-6.694 -21.73801,-4.36999 -13.535,12.819 -23.935,23.215 -24.06799,25.59198 -1.93601,34.58401 -1.55002,83.13699 32.66897,93.49301 22.01401,6.66199 27.60102,6.37097 33.82401,34.841 6.22299,28.47 57.16501,54.96604 98.14603,72.50205 -35.909,-22.443 -88.77503,-15.74305 -106.44403,-58.34904 -17.66901,-42.60602 -21.39499,-30.56403 -37.35099,-31.52301 16.26398,18.75897 17.616,31.349 13.97199,49.31302 -3.64301,17.96399 -2.496,25.76599 13.16202,46.45398 15.65899,20.68805 17.37899,55.98401 23.79397,83.97705 -9.74499,-28.51001 -14.134,-66.62201 -34.815,-84.13501 -20.67999,-17.51404 -19.52197,-29.34503 -14.82999,-47.17102 4.693,-17.82602 -6.862,-27.69004 -22.25299,-42.44602 -1.68899,15.96997 -13.38901,36.49002 2.92099,53.043 16.31,16.552 16.13901,21.099 0.29599,41.04303 -15.84299,19.94397 -1.52298,53.62702 2.77503,81.16297 -5.54102,-26.01398 -29.22702,-55.29096 -14.88401,-78.47797 14.34299,-23.18701 3.91999,-27.84802 -8.06201,-42.51001 -11.983,-14.66303 -9.811,-34.39102 -10.00699,-52.76303 -11.074,13.37903 -22.02301,25.11401 -17.95102,42.68204 4.073,17.56799 1.54901,27.73498 -19.03399,45.26001 -20.58301,17.52496 -22.25501,48.21899 -30.41901,72.32897 3.651,-25.42401 1.80402,-56.35699 20.79602,-74.86499 18.992,-18.50799 21.94699,-31.591 13.509,-48.63299 -8.43701,-17.04202 3.67899,-26.08206 10.63098,-38.27103 -17.77298,-8.974 -33.64398,-3.83099 -48.18698,35.89002 -14.54202,39.72 -65.449,35.13199 -95.60801,53.98098 v 0 z"
           id="path3052"
           inkscape:connector-curvature="0"
           style="display:inline;fill:url(#linearGradient3233)" />
        <g
           id="g887"
           transform="translate(117.18872,4.9766946)">
          <ellipse
             style="fill:#00ff00;fill-rule:evenodd"
             id="path874"
             cx="-63.965511"
             cy="535.65015"
             rx="53.223213"
             ry="50.293495" />
          <text
             xml:space="preserve"
             style="font-size:18.9368px;line-height:1.25;font-family:sans-serif;stroke-width:1.77532"
             x="-95.495079"
             y="533.65558"
             id="text878"
             transform="scale(0.98921987,1.0108976)"><tspan
               sodipodi:role="line"
               x="-95.495079"
               y="533.65558"
               id="tspan880"
               style="stroke-width:1.77532">Values</tspan></text>
        </g>
        <g
           id="g936"
           transform="translate(117.18872,-160.00007)">
          <ellipse
             style="fill:#00ff00;fill-rule:evenodd"
             id="path874-1"
             cx="-63.965511"
             cy="535.65015"
             rx="53.223213"
             ry="50.293495" />
          <text
             xml:space="preserve"
             style="font-style:normal;font-variant:normal;font-weight:normal;font-stretch:normal;font-size:16.2134px;line-height:1.25;font-family:sans-serif;-inkscape-font-specification:'sans-serif, Normal';font-variant-ligatures:normal;font-variant-caps:normal;font-variant-numeric:normal;font-variant-east-asian:normal;stroke-width:1.52"
             x="-107.26262"
             y="536.63104"
             id="text878-0"
             transform="scale(1.0114707,0.98865941)"><tspan
               sodipodi:role="line"
               id="tspan913"
               x="-107.26262"
               y="536.63104"
               style="stroke-width:1.52">Principles </tspan><tspan
               sodipodi:role="line"
               id="tspan915"
               x="-107.26262"
               y="556.89777"
               style="stroke-width:1.52">or Purposes</tspan></text>
        </g>
        <g
           id="g974"
           transform="translate(141.0124,-217.61786)">
          <ellipse
             style="fill:#00ff00;fill-rule:evenodd"
             id="path874-1-7"
             cx="-87.789185"
             cy="396.5061"
             rx="53.223213"
             ry="50.293495" />
          <text
             xml:space="preserve"
             style="font-style:normal;font-variant:normal;font-weight:normal;font-stretch:normal;font-size:16.2134px;line-height:1.25;font-family:sans-serif;-inkscape-font-specification:'sans-serif, Normal';font-variant-ligatures:normal;font-variant-caps:normal;font-variant-numeric:normal;font-variant-east-asian:normal;stroke-width:1.52"
             x="-136.2778"
             y="404.97095"
             id="text878-0-3"
             transform="scale(1.0114707,0.98865939)"><tspan
               sodipodi:role="line"
               id="tspan969"
               x="-136.2778"
               y="404.97095">Applications</tspan></text>
        </g>
        <path
           style="fill:none;stroke:#000000;stroke-width:1;stroke-linecap:butt;stroke-linejoin:miter;stroke-miterlimit:4;stroke-dasharray:4, 1;stroke-dashoffset:0;stroke-opacity:1;marker-end:url(#Arrow1Lend)"
           d="m 119.14187,174.90035 h 93.75098"
           id="path1005" />
        <path
           style="fill:none;stroke:#000000;stroke-width:1;stroke-linecap:butt;stroke-linejoin:miter;stroke-miterlimit:4;stroke-dasharray:6, 1;stroke-dashoffset:0;stroke-opacity:1;marker-end:url(#marker1289)"
           d="M 124.02474,374.12118 H 359.37875"
           id="path1007" />
        <path
           style="fill:none;stroke:#000000;stroke-width:1;stroke-linecap:butt;stroke-linejoin:miter;stroke-miterlimit:4;stroke-dasharray:6, 1;stroke-dashoffset:0;stroke-opacity:1;marker-end:url(#marker1317)"
           d="m 121.09502,533.30253 h 167.9705"
           id="path1009" />
        <g
           aria-label="How to use the tree"
           id="text1423"
           style="font-size:10.6667px;line-height:1.25;font-family:sans-serif"
           transform="matrix(1.4813195,0,0,1.9463792,-42.383768,-7.0653257)">
          <path
             d="m 38.849353,8.8256698 h 2.005215 l -0.578127,2.9635512 h 2.958342 l 0.572919,-2.9635512 h 2.005215 l -1.51563,7.7760662 h -2.005215 l 0.640627,-3.296885 h -2.953134 l -0.640627,3.296885 h -2.005215 z"
             style="font-style:italic;font-weight:bold"
             id="path1425" />
          <path
             d="m 50.036888,11.961096 q -0.72396,0 -1.192712,0.656252 -0.468751,0.656253 -0.468751,1.671881 0,0.552085 0.250001,0.843752 0.255209,0.28646 0.739585,0.28646 0.723961,0 1.192712,-0.656252 0.468752,-0.661461 0.468752,-1.682297 0,-0.546877 -0.255209,-0.833336 -0.250001,-0.28646 -0.734378,-0.28646 z m 0.151043,-1.333337 q 1.302087,0 2.046881,0.66146 0.744794,0.661461 0.744794,1.802089 0,0.661461 -0.234376,1.286463 -0.234375,0.619793 -0.682294,1.13542 -0.531251,0.614585 -1.255212,0.927086 -0.72396,0.312501 -1.614588,0.312501 -1.286463,0 -2.031257,-0.66146 -0.739585,-0.661461 -0.739585,-1.802089 0,-0.656252 0.239584,-1.281254 0.239584,-0.630211 0.687502,-1.151046 0.520835,-0.604168 1.239587,-0.916669 0.723961,-0.312501 1.598964,-0.312501 z"
             style="font-style:italic;font-weight:bold"
             id="path1427" />
          <path
             d="m 54.292111,10.768384 h 1.718755 l 0.203126,4.01043 1.760422,-4.01043 h 1.479171 l 0.213543,4.000013 1.750005,-4.000013 h 1.833339 l -2.666675,5.833352 h -1.979173 l -0.192708,-4.010429 -1.781256,4.010429 h -1.932298 z"
             style="font-style:italic;font-weight:bold"
             id="path1429" />
          <path
             d="M 70.771329,9.1121291 70.45362,10.768384 h 1.906256 l -0.265626,1.333338 h -1.906256 l -0.479168,2.468758 q -0.02083,0.08333 -0.03125,0.140625 -0.0052,0.05729 -0.0052,0.109375 0,0.239585 0.156251,0.343752 0.161459,0.104167 0.53646,0.104167 h 0.963545 l -0.265626,1.333337 h -1.567713 q -0.843753,0 -1.286463,-0.354168 -0.44271,-0.354168 -0.44271,-1.020836 0,-0.145834 0.01563,-0.312501 0.01563,-0.166667 0.04687,-0.338543 l 0.479168,-2.473966 h -0.91667 l 0.255209,-1.333338 h 0.927087 l 0.322917,-1.6562549 z"
             style="font-style:italic;font-weight:bold"
             id="path1431" />
          <path
             d="m 76.031762,11.961096 q -0.72396,0 -1.192712,0.656252 -0.468751,0.656253 -0.468751,1.671881 0,0.552085 0.250001,0.843752 0.255209,0.28646 0.739585,0.28646 0.723961,0 1.192712,-0.656252 0.468752,-0.661461 0.468752,-1.682297 0,-0.546877 -0.255209,-0.833336 -0.250001,-0.28646 -0.734378,-0.28646 z m 0.151043,-1.333337 q 1.302087,0 2.046881,0.66146 0.744794,0.661461 0.744794,1.802089 0,0.661461 -0.234376,1.286463 -0.234375,0.619793 -0.682294,1.13542 -0.531251,0.614585 -1.255212,0.927086 -0.72396,0.312501 -1.614588,0.312501 -1.286463,0 -2.031257,-0.66146 -0.739585,-0.661461 -0.739585,-1.802089 0,-0.656252 0.239584,-1.281254 0.239584,-0.630211 0.687502,-1.151046 0.520835,-0.604168 1.239587,-0.916669 0.723961,-0.312501 1.598964,-0.312501 z"
             style="font-style:italic;font-weight:bold"
             id="path1433" />
          <path
             d="m 83.797413,14.330896 0.682293,-3.562512 h 1.869798 l -0.588544,3.036468 q -0.0625,0.296876 -0.09375,0.50521 -0.03125,0.208334 -0.03125,0.328126 0,0.328126 0.182292,0.510418 0.182293,0.182293 0.520835,0.182293 0.578127,0 0.994795,-0.447918 0.416668,-0.447918 0.572919,-1.244796 l 0.562501,-2.869801 H 90.3391 l -1.130212,5.833352 h -1.880214 l 0.171875,-0.854169 q -0.479168,0.50521 -1.005211,0.75521 -0.526044,0.250001 -1.109379,0.250001 -0.796877,0 -1.234379,-0.421876 -0.437501,-0.421876 -0.437501,-1.192712 0,-0.182292 0.02083,-0.385418 0.02083,-0.203126 0.0625,-0.421876 z"
             style="font-style:italic;font-weight:bold"
             id="path1435" />
          <path
             d="m 96.641202,10.950677 -0.276042,1.447921 q -0.546877,-0.260418 -1.088546,-0.395835 -0.541668,-0.135417 -1.026044,-0.135417 -0.552086,0 -0.85417,0.145834 -0.296876,0.140625 -0.296876,0.406251 0,0.156251 0.166667,0.250001 0.166668,0.09375 0.656253,0.197917 l 0.338542,0.0625 q 1.130212,0.239585 1.583339,0.619794 0.453126,0.375001 0.453126,1.046878 0,1.015629 -0.796878,1.588547 -0.796877,0.56771 -2.229173,0.56771 -0.59896,0 -1.223962,-0.09375 -0.625002,-0.09375 -1.276046,-0.281251 l 0.281251,-1.463546 q 0.50521,0.296876 1.078128,0.447918 0.578127,0.151042 1.182296,0.151042 0.588543,0 0.885419,-0.140625 0.296876,-0.140626 0.296876,-0.41146 0,-0.187501 -0.166667,-0.291668 -0.166667,-0.104167 -0.687502,-0.213542 l -0.338543,-0.0625 q -1.000003,-0.208334 -1.427088,-0.614586 -0.427085,-0.406251 -0.427085,-1.125003 0,-0.973961 0.734378,-1.500005 0.739585,-0.526043 2.109381,-0.526043 0.598961,0 1.177087,0.08333 0.583336,0.07813 1.171879,0.239585 z"
             style="font-style:italic;font-weight:bold"
             id="path1437" />
          <path
             d="m 103.72456,13.903811 -0.0625,0.296876 h -4.364598 q 0,0.03125 -0.0052,0.09375 -0.0052,0.05729 -0.0052,0.08854 0,0.56771 0.338543,0.848961 0.343751,0.281251 1.026045,0.281251 0.58855,0 1.23959,-0.177084 0.65625,-0.177084 1.375,-0.526043 l -0.28645,1.447921 q -0.6823,0.250001 -1.35938,0.369793 -0.67188,0.125 -1.3698,0.125 -1.364591,0 -2.109385,-0.63021 -0.739585,-0.63021 -0.739585,-1.781256 0,-0.666669 0.234375,-1.29167 0.239585,-0.630211 0.692711,-1.151046 0.53646,-0.625002 1.281254,-0.947919 0.75001,-0.322918 1.66147,-0.322918 1.18229,0 1.875,0.63021 0.69792,0.630211 0.69792,1.697922 0,0.208334 -0.0312,0.44271 -0.026,0.229167 -0.0885,0.50521 z m -1.76042,-0.854169 q 0.0156,-0.06771 0.0208,-0.135418 0.0104,-0.07292 0.0104,-0.140625 0,-0.416668 -0.25,-0.66146 -0.25,-0.244793 -0.67709,-0.244793 -0.54688,0 -0.93229,0.302084 -0.380213,0.296876 -0.583339,0.880212 z"
             style="font-style:italic;font-weight:bold"
             id="path1439" />
          <path
             d="M 111.80271,9.1121291 111.485,10.768384 h 1.90626 l -0.26563,1.333338 h -1.90625 l -0.47917,2.468758 q -0.0208,0.08333 -0.0312,0.140625 -0.005,0.05729 -0.005,0.109375 0,0.239585 0.15625,0.343752 0.16146,0.104167 0.53646,0.104167 H 112.36 l -0.26562,1.333337 h -1.56771 q -0.84376,0 -1.28647,-0.354168 -0.44271,-0.354168 -0.44271,-1.020836 0,-0.145834 0.0156,-0.312501 0.0156,-0.166667 0.0469,-0.338543 l 0.47917,-2.473966 h -0.91667 l 0.25521,-1.333338 h 0.92709 l 0.32291,-1.6562549 z"
             style="font-style:italic;font-weight:bold"
             id="path1441" />
          <path
             d="m 119.94336,13.049642 -0.69271,3.552094 h -1.8698 l 0.58854,-3.041676 q 0.0625,-0.296876 0.0937,-0.500002 0.0365,-0.208334 0.0365,-0.328126 0,-0.333334 -0.1875,-0.515626 -0.18229,-0.182293 -0.52084,-0.182293 -0.57812,0 -0.99479,0.453127 -0.41146,0.447918 -0.57292,1.244795 l -0.5625,2.869801 h -1.8698 l 1.57292,-8.1041922 h 1.87501 l -0.60938,3.1250102 q 0.51563,-0.50521 1.03646,-0.750003 0.52084,-0.244792 1.08855,-0.244792 0.80729,0 1.24479,0.421876 0.43751,0.421877 0.43751,1.187504 0,0.166667 -0.026,0.369793 -0.0208,0.203125 -0.0677,0.44271 z"
             style="font-style:italic;font-weight:bold"
             id="path1443" />
          <path
             d="m 127.36526,13.903811 -0.0625,0.296876 h -4.3646 q 0,0.03125 -0.005,0.09375 -0.005,0.05729 -0.005,0.08854 0,0.56771 0.33854,0.848961 0.34375,0.281251 1.02604,0.281251 0.58855,0 1.23959,-0.177084 0.65625,-0.177084 1.37501,-0.526043 l -0.28646,1.447921 q -0.6823,0.250001 -1.35938,0.369793 -0.67188,0.125 -1.3698,0.125 -1.36459,0 -2.10938,-0.63021 -0.73959,-0.63021 -0.73959,-1.781256 0,-0.666669 0.23438,-1.29167 0.23958,-0.630211 0.69271,-1.151046 0.53646,-0.625002 1.28125,-0.947919 0.75001,-0.322918 1.66147,-0.322918 1.18229,0 1.875,0.63021 0.69792,0.630211 0.69792,1.697922 0,0.208334 -0.0312,0.44271 -0.026,0.229167 -0.0885,0.50521 z m -1.76042,-0.854169 q 0.0156,-0.06771 0.0208,-0.135418 0.0104,-0.07292 0.0104,-0.140625 0,-0.416668 -0.25,-0.66146 -0.25,-0.244793 -0.67709,-0.244793 -0.54687,0 -0.93229,0.302084 -0.38021,0.296876 -0.58334,0.880212 z"
             style="font-style:italic;font-weight:bold"
             id="path1445" />
          <path
             d="m 135.4434,9.1121291 -0.3177,1.6562549 h 1.90625 l -0.26562,1.333338 h -1.90626 l -0.47917,2.468758 q -0.0208,0.08333 -0.0312,0.140625 -0.005,0.05729 -0.005,0.109375 0,0.239585 0.15625,0.343752 0.16146,0.104167 0.53646,0.104167 h 0.96355 l -0.26563,1.333337 h -1.56771 q -0.84375,0 -1.28646,-0.354168 -0.44271,-0.354168 -0.44271,-1.020836 0,-0.145834 0.0156,-0.312501 0.0156,-0.166667 0.0469,-0.338543 l 0.47917,-2.473966 h -0.91667 l 0.2552,-1.333338 h 0.92709 l 0.32292,-1.6562549 z"
             style="font-style:italic;font-weight:bold"
             id="path1447" />
          <path
             d="m 142.18822,12.356931 q -0.19271,-0.109375 -0.42709,-0.166667 -0.23437,-0.05729 -0.50521,-0.05729 -0.71354,0 -1.1875,0.458335 -0.46875,0.458335 -0.63542,1.322921 l -0.53125,2.687508 h -1.8698 l 1.13542,-5.833352 h 1.87501 l -0.20313,1.000003 q 0.3698,-0.552085 0.92188,-0.843752 0.55729,-0.296876 1.23438,-0.296876 0.099,0 0.22396,0.01042 0.125,0.01042 0.29688,0.03125 z"
             style="font-style:italic;font-weight:bold"
             id="path1449" />
          <path
             d="m 148.67262,13.903811 -0.0625,0.296876 h -4.3646 q 0,0.03125 -0.005,0.09375 -0.005,0.05729 -0.005,0.08854 0,0.56771 0.33855,0.848961 0.34375,0.281251 1.02604,0.281251 0.58855,0 1.23959,-0.177084 0.65625,-0.177084 1.375,-0.526043 l -0.28646,1.447921 q -0.68229,0.250001 -1.35937,0.369793 -0.67188,0.125 -1.3698,0.125 -1.36459,0 -2.10938,-0.63021 -0.73959,-0.63021 -0.73959,-1.781256 0,-0.666669 0.23438,-1.29167 0.23958,-0.630211 0.69271,-1.151046 0.53646,-0.625002 1.28125,-0.947919 0.75,-0.322918 1.66147,-0.322918 1.18229,0 1.875,0.63021 0.69792,0.630211 0.69792,1.697922 0,0.208334 -0.0312,0.44271 -0.026,0.229167 -0.0885,0.50521 z m -1.76042,-0.854169 q 0.0156,-0.06771 0.0208,-0.135418 0.0104,-0.07292 0.0104,-0.140625 0,-0.416668 -0.25,-0.66146 -0.25001,-0.244793 -0.67709,-0.244793 -0.54688,0 -0.93229,0.302084 -0.38021,0.296876 -0.58334,0.880212 z"
             style="font-style:italic;font-weight:bold"
             id="path1451" />
          <path
             d="m 155.90702,13.903811 -0.0625,0.296876 h -4.3646 q 0,0.03125 -0.005,0.09375 -0.005,0.05729 -0.005,0.08854 0,0.56771 0.33855,0.848961 0.34375,0.281251 1.02604,0.281251 0.58854,0 1.23959,-0.177084 0.65625,-0.177084 1.375,-0.526043 l -0.28646,1.447921 q -0.68229,0.250001 -1.35938,0.369793 -0.67187,0.125 -1.36979,0.125 -1.36459,0 -2.10938,-0.63021 -0.73959,-0.63021 -0.73959,-1.781256 0,-0.666669 0.23438,-1.29167 0.23958,-0.630211 0.69271,-1.151046 0.53646,-0.625002 1.28125,-0.947919 0.75,-0.322918 1.66146,-0.322918 1.1823,0 1.87501,0.63021 0.69792,0.630211 0.69792,1.697922 0,0.208334 -0.0312,0.44271 -0.026,0.229167 -0.0885,0.50521 z m -1.76043,-0.854169 q 0.0156,-0.06771 0.0208,-0.135418 0.0104,-0.07292 0.0104,-0.140625 0,-0.416668 -0.25,-0.66146 -0.25,-0.244793 -0.67708,-0.244793 -0.54688,0 -0.9323,0.302084 -0.38021,0.296876 -0.58333,0.880212 z"
             style="font-style:italic;font-weight:bold"
             id="path1453" />
        </g>
        <text
           xml:space="preserve"
           style="font-size:10.6667px;line-height:1.25;font-family:sans-serif"
           x="102.97979"
           y="16.257982"
           id="text1458"><tspan
             sodipodi:role="line"
             id="tspan1456"
             x="102.97979"
             y="16.257982"></tspan></text>
      </g>
    </g>
  </g>
</svg>
