<?xml version="1.0" encoding="UTF-8" standalone="no"?>
<svg
   xmlns:dc="http://purl.org/dc/elements/1.1/"
   xmlns:cc="http://creativecommons.org/ns#"
   xmlns:rdf="http://www.w3.org/1999/02/22-rdf-syntax-ns#"
   xmlns:svg="http://www.w3.org/2000/svg"
   xmlns="http://www.w3.org/2000/svg"
   xmlns:sodipodi="http://sodipodi.sourceforge.net/DTD/sodipodi-0.dtd"
   xmlns:inkscape="http://www.inkscape.org/namespaces/inkscape"
   version="1.0"
   width="225.000000pt"
   height="225.000000pt"
   viewBox="0 0 225.000000 225.000000"
   preserveAspectRatio="xMidYMid meet"
   id="svg14"
   sodipodi:docname="iceburg.svg"
   inkscape:version="1.0.1 (3bc2e813f5, 2020-09-07)">
  <defs
     id="defs18" />
  <sodipodi:namedview
     pagecolor="#ffffff"
     bordercolor="#666666"
     borderopacity="1"
     objecttolerance="10"
     gridtolerance="10"
     guidetolerance="10"
     inkscape:pageopacity="0"
     inkscape:pageshadow="2"
     inkscape:window-width="1858"
     inkscape:window-height="1057"
     id="namedview16"
     showgrid="false"
     inkscape:zoom="2.9666667"
     inkscape:cx="102.47462"
     inkscape:cy="98.410756"
     inkscape:window-x="54"
     inkscape:window-y="-8"
     inkscape:window-maximized="1"
     inkscape:current-layer="svg14" />
  <metadata
     id="metadata2">
Created by potrace 1.10, written by Peter Selinger 2001-2011
<rdf:RDF>
  <cc:Work
     rdf:about="">
    <dc:format>image/svg+xml</dc:format>
    <dc:type
       rdf:resource="http://purl.org/dc/dcmitype/StillImage" />
    <dc:title></dc:title>
  </cc:Work>
</rdf:RDF>
</metadata>
  <g
     transform="translate(0.000000,225.000000) scale(0.100000,-0.100000)"
     fill="#000000"
     stroke="none"
     id="g12">
    <path
       d="M972 2026 l-153 -213 -92 -29 -91 -29 -44 -80 c-24 -44 -60 -109 -80 -145 -21 -36 -38 -67 -40 -70 -1 -3 69 -4 155 -3 l158 2 88 98 c48 54 100 111 116 126 l28 29 151 -75 151 -74 -119 127 -120 128 24 167 c14 92 26 169 28 171 2 2 40 -47 84 -108 78 -109 80 -111 144 -135 161 -58 133 -29 254 -255 l108 -203 42 0 42 0 -61 96 c-33 53 -94 153 -135 222 l-75 126 -60 22 c-175 64 -152 46 -250 189 -50 71 -92 129 -95 129 -3 0 -74 -96 -158 -213z m123 72 c-4 -29 -13 -104 -21 -166 l-15 -114 23 -28 c13 -16 43 -52 68 -81 39 -45 41 -51 20 -44 -14 4 -54 23 -89 41 l-64 34 -26 -22 c-13 -13 -36 -36 -50 -52 -14 -17 -53 -59 -86 -94 -33 -35 -64 -70 -68 -78 -6 -11 -37 -14 -137 -14 -72 0 -130 3 -130 6 0 6 100 200 119 230 8 11 34 26 60 33 120 33 129 40 234 183 53 73 103 140 110 148 6 8 20 27 30 43 9 15 20 27 23 27 2 0 2 -24 -1 -52z m570 -458 c3 -5 1 -10 -4 -10 -6 0 -11 5 -11 10 0 6 2 10 4 10 3 0 8 -4 11 -10z m15 -29 c0 -5 6 -16 13 -23 14 -15 57 -92 57 -103 0 -4 -4 -5 -9 -3 -14 5 -81 138 -70 138 5 0 9 -4 9 -9z"
       id="path4" />
    <path
       d="M522 1298 c22 -62 48 -135 58 -163 l17 -50 509 -1 509 -2 85 156 c47 86 87 160 88 164 2 5 -291 8 -651 8 l-655 0 40 -112z m1238 87 c0 -7 -122 -228 -142 -258 l-19 -27 -497 2 -496 3 -37 105 c-20 58 -41 118 -48 133 -6 16 -11 33 -11 38 0 5 244 9 625 9 344 0 625 -2 625 -5z"
       id="path6" />
    <path
       d="M634 981 c29 -83 35 -92 80 -123 49 -32 54 -41 76 -125 l11 -43 358 0 358 0 32 123 c18 67 40 152 50 190 l18 67 -507 0 -507 0 31 -89z m952 37 c-27 -127 -78 -303 -89 -310 -7 -4 -163 -6 -347 -5 l-334 2 -26 73 c-22 64 -30 75 -70 101 -45 27 -54 43 -85 149 l-6 22 482 0 482 0 -7 -32z"
       id="path8" />
    <path
       d="M810 648 c5 -13 23 -75 41 -138 48 -175 78 -283 82 -286 1 -2 27 20 56 47 29 27 55 49 56 47 1 -2 29 -75 62 -162 l60 -159 21 54 c11 30 63 164 114 299 52 135 97 253 101 263 6 16 9 17 36 2 44 -22 55 -19 67 20 l11 35 -358 0 -359 0 10 -22z m589 -8 c2 0 -1 -6 -7 -13 -6 -7 -31 -66 -57 -132 -25 -66 -52 -133 -59 -150 -7 -16 -33 -83 -56 -148 -24 -65 -48 -116 -53 -114 -6 2 -16 21 -24 43 -7 21 -21 54 -29 73 -9 19 -17 44 -18 57 0 12 -3 20 -5 18 -3 -2 -10 9 -17 26 -20 47 -39 47 -85 1 -23 -23 -43 -40 -46 -38 -8 8 -103 368 -99 375 3 5 471 7 555 2z m75 2 c2 -4 -5 -9 -17 -9 -17 -2 -19 0 -7 7 18 12 18 12 24 2z"
       id="path10" />
  </g>
  <path
     style="opacity:1;fill:#000000;stroke:#000000;stroke-width:0.509;fill-opacity:1;fill-rule:nonzero;stroke-miterlimit:4;stroke-dasharray:none"
     d="m 74.516266,102.31059 c -4.051732,-0.2168 -4.899398,-0.34048 -4.899398,-0.71483 0,-0.57625 9.341851,-18.821392 13.641258,-26.642114 1.788493,-3.253311 2.329692,-4.038863 3.324033,-4.824843 1.838193,-1.453009 4.285403,-2.485651 9.54339,-4.026998 13.089511,-3.837106 15.051251,-5.450923 27.835251,-22.89849 2.42522,-3.309929 7.27378,-9.854571 10.77458,-14.543648 3.5008,-4.689076 7.0318,-9.528493 7.84666,-10.754259 1.75754,-2.643805 3.03327,-4.254645 3.36953,-4.254645 0.67705,0 -0.54557,11.234827 -4.37474,40.200367 l -0.50921,3.851901 3.4179,4.132845 c 1.87985,2.273063 5.1962,6.224371 7.36969,8.780681 2.17348,2.55631 4.34806,5.172735 4.83241,5.814277 0.86155,1.141184 1.1048,1.812942 0.65647,1.812942 -1.14287,0 -9.60454,-3.930268 -17.16718,-7.973795 -2.34051,-1.251405 -4.38319,-2.275281 -4.53927,-2.275281 -0.86243,0 -6.45354,5.48404 -12.39321,12.155881 -1.22542,1.376474 -4.77179,5.237754 -7.88082,8.580621 -6.25823,6.728912 -9.82534,10.746914 -10.4153,11.731798 -0.46692,0.77949 -1.66927,1.29452 -3.82079,1.63666 -2.041497,0.32465 -21.590441,0.4796 -26.611254,0.21093 z"
     id="path845"
     transform="scale(0.75)" />
  <path
     style="opacity:1;fill:#009d87;fill-opacity:1;fill-rule:nonzero;stroke:#000000;stroke-width:0.485282;stroke-miterlimit:4;stroke-dasharray:none"
     d="m 154.76852,287.38015 c 0,-0.15087 -1.51127,-3.90489 -3.35838,-8.34227 -1.8471,-4.43737 -3.78157,-9.62964 -4.29882,-11.53836 -0.51725,-1.90873 -2.04588,-5.44823 -3.39696,-7.86557 -3.25593,-5.8255 -5.64972,-5.83204 -12.43642,-0.034 l -5.1048,4.36117 -0.97056,-2.55275 c -1.16261,-3.0579 -8.91804,-31.83502 -10.84837,-40.25373 l -1.36629,-5.95876 h 36.14474 c 19.8796,0 36.14474,0.34322 36.14474,0.76272 0,0.4195 -0.38254,1.1703 -0.85009,1.66846 -0.76872,0.81904 -11.62237,27.90004 -23.38507,58.34822 -2.48153,6.42355 -4.9083,11.67918 -5.3928,11.67918 -0.48451,0 -0.88092,-0.12344 -0.88092,-0.27432 z"
     id="path859"
     transform="scale(0.75)" />
  <path
     style="opacity:1;fill:#a6ddd5;fill-opacity:1;fill-rule:nonzero;stroke:#009d87;stroke-width:0.485282;stroke-miterlimit:4;stroke-dasharray:none;stroke-opacity:1"
     d="m 106.13212,196.90051 c -3.20156,-8.95018 -3.9625,-10.01107 -11.65658,-16.25119 -4.303167,-3.48999 -7.497949,-9.56838 -9.014447,-17.15087 l -0.5293,-2.6465 h 63.409937 63.40993 l -2.30666,9.77238 c -2.85307,12.08737 -7.69964,28.98898 -9.22689,32.17733 l -1.14173,2.3835 -44.90181,0.24761 -44.90181,0.2476 z"
     id="path861"
     transform="scale(0.75)" />
  <path
     style="opacity:1;fill:#a6ddd5;fill-opacity:1;fill-rule:nonzero;stroke:#009d87;stroke-width:0.485282;stroke-miterlimit:4;stroke-dasharray:none;stroke-opacity:1"
     d="m 130.0927,152.28434 -48.987571,-0.48971 -6.186825,-17.44308 c -3.402754,-9.5937 -5.884786,-17.74529 -5.515627,-18.11465 0.967866,-0.96839 157.762323,-1.47038 161.337993,-0.51653 l 2.99284,0.79837 -6.85866,12.40356 c -3.77226,6.82196 -8.48501,15.08081 -10.47276,18.353 l -3.61409,5.94943 -16.85385,-0.22534 c -9.26963,-0.12394 -38.89828,-0.44571 -65.84145,-0.71505 z"
     id="path863"
     transform="scale(0.75)" />
  <path
     style="fill:none;stroke:#000000;stroke-width:0.75px;stroke-linecap:butt;stroke-linejoin:miter;stroke-opacity:1"
     d="M 4.0449438,80.646067 H 219.69101"
     id="path865" />
</svg>
