<?xml version="1.0" encoding="UTF-8" standalone="no"?>
<!-- Created with Inkscape (http://www.inkscape.org/) -->

<svg
   width="303mm"
   height="239mm"
   viewBox="0 0 303 239"
   version="1.1"
   id="svg107892"
   inkscape:version="1.1.1 (1:1.1+202109281943+c3084ef5ed)"
   sodipodi:docname="shared vision icons.svg"
   xmlns:inkscape="http://www.inkscape.org/namespaces/inkscape"
   xmlns:sodipodi="http://sodipodi.sourceforge.net/DTD/sodipodi-0.dtd"
   xmlns="http://www.w3.org/2000/svg"
   xmlns:svg="http://www.w3.org/2000/svg">
  <sodipodi:namedview
     id="namedview107894"
     pagecolor="#505050"
     bordercolor="#eeeeee"
     borderopacity="1"
     inkscape:pageshadow="0"
     inkscape:pageopacity="0"
     inkscape:pagecheckerboard="0"
     inkscape:document-units="mm"
     showgrid="false"
     inkscape:zoom="0.57370932"
     inkscape:cx="397.4138"
     inkscape:cy="561.25984"
     inkscape:window-width="1851"
     inkscape:window-height="1057"
     inkscape:window-x="69"
     inkscape:window-y="23"
     inkscape:window-maximized="0"
     inkscape:current-layer="layer1" />
  <defs
     id="defs107889" />
  <g
     inkscape:label="Layer 1"
     inkscape:groupmode="layer"
     id="layer1">
    <path
       fill="currentColor"
       d="m 59.266666,170.95541 c 18.706041,0 33.866665,-15.16063 33.866665,-33.86667 0,-18.70605 -15.160624,-33.86667 -33.866665,-33.86667 -18.706041,0 -33.866667,15.16062 -33.866667,33.86667 0,18.70604 15.160626,33.86667 33.866667,33.86667 z m 23.706666,8.46666 H 78.55479 c -5.87375,2.69875 -12.408958,4.23334 -19.288124,4.23334 -6.879167,0 -13.387917,-1.53459 -19.288125,-4.23334 H 35.56 c -19.632084,0 -35.56,15.92792 -35.56,35.56 v 11.00667 c 0,7.01146 5.6885419,12.7 12.7,12.7 h 93.13333 c 7.01146,0 12.7,-5.68854 12.7,-12.7 v -11.00667 c 0,-19.63208 -15.92792,-35.56 -35.559998,-35.56 z"
       id="path107653"
       style="stroke-width:0.264583;fill:#ffffff;fill-opacity:1" />
    <path
       fill="currentColor"
       d="m 243.72052,170.95541 c 18.70604,0 33.86667,-15.16063 33.86667,-33.86667 0,-18.70605 -15.16063,-33.86667 -33.86667,-33.86667 -18.70604,0 -33.86666,15.16062 -33.86666,33.86667 0,18.70604 15.16062,33.86667 33.86666,33.86667 z m 23.70667,8.46666 h -4.41854 c -5.87375,2.69875 -12.40896,4.23334 -19.28813,4.23334 -6.87917,0 -13.38792,-1.53459 -19.28812,-4.23334 h -4.41855 c -19.63208,0 -35.55999,15.92792 -35.55999,35.56 v 11.00667 c 0,7.01146 5.68854,12.7 12.7,12.7 h 93.13333 c 7.01145,0 12.7,-5.68854 12.7,-12.7 v -11.00667 c 0,-19.63208 -15.92792,-35.56 -35.56,-35.56 z"
       id="path107653-7"
       style="stroke-width:0.264583;fill:#ffffff;fill-opacity:1" />
    <path
       fill="currentColor"
       d="m 200.3673,93.715414 c 7.27604,-7.170208 11.64167,-16.166041 11.64167,-25.982083 0,-21.166666 -20.24063,-38.655624 -46.61958,-41.777707 C 157.05501,10.715624 137.47584,0 114.6423,0 84.241681,0 59.608971,18.944166 59.608971,42.333332 c 0,9.789583 4.365627,18.785416 11.641668,25.982083 -4.048125,8.122708 -9.868958,14.419791 -9.974791,14.525624 -1.666877,1.772709 -2.143127,4.365625 -1.164169,6.614584 0.952502,2.248958 3.175002,3.704166 5.609169,3.704166 14.155208,0 25.585207,-5.344583 33.125834,-10.265833 2.434158,0.555625 4.947708,0.978958 7.514158,1.296458 8.30792,15.187083 27.80771,25.876246 50.6148,25.876246 5.50333,0 10.795,-0.635 15.82208,-1.79916 7.54062,4.89479 18.94416,10.26583 33.12583,10.26583 2.43417,0 4.63021,-1.45521 5.60917,-3.70417 0.9525,-2.24895 0.50271,-4.84187 -1.16417,-6.61458 -0.10583,-0.0794 -5.95312,-6.37646 -10.00125,-14.499166 z M 96.438972,69.294373 91.914597,72.231248 c -3.730625,2.407708 -7.540625,4.312708 -11.403541,5.662083 0.714375,-1.243541 1.42875,-2.566458 2.116666,-3.915833 l 4.101042,-8.228541 -6.561667,-6.482292 c -3.571875,-3.545417 -7.858125,-9.339791 -7.858125,-16.933333 0,-16.060208 19.393958,-29.633333 42.333328,-29.633333 22.93938,0 42.33334,13.573125 42.33334,29.633333 0,16.060208 -19.39396,29.633333 -42.33334,29.633333 -4.36562,0 -8.73125,-0.502709 -12.96458,-1.481667 z m 95.011868,15.372291 -6.53521,6.455834 4.10105,8.228541 c 0.68791,1.349371 1.40229,2.672291 2.11666,3.915831 -3.86291,-1.34937 -7.67291,-3.25437 -11.40354,-5.662081 l -4.52437,-2.936875 -5.26521,1.217084 c -4.23333,0.978958 -8.59896,1.481666 -12.96458,1.481666 -14.2875,0 -27.04042,-5.318125 -34.7398,-13.149791 26.8023,-2.8575 47.43979,-20.47875 47.43979,-41.883541 0,-0.899583 -0.10583,-1.772708 -0.1852,-2.645833 17.03916,3.836458 29.81854,15.028333 29.81854,28.045832 0,7.593542 -4.28625,13.387917 -7.85813,16.933333 z"
       id="path107683"
       style="stroke-width:0.264583;fill:#ffffff;fill-opacity:1" />
  </g>
</svg>
